<svg width="245" height="245" viewBox="0 0 245 245" fill="none" xmlns="http://www.w3.org/2000/svg">
<g clip-path="url(#clip0_99_17)">
<path d="M158.558 113.945C157.244 118.483 154.73 121.263 150.295 121.232H150.179C145.371 121.109 146.437 115.929 147.978 111.463C149.686 106.518 152.51 104.7 155.869 104.785C160.85 104.915 159.886 109.339 158.558 113.945ZM157.639 98.713C151.199 98.2528 143.091 100.732 139.601 110.479C134.95 123.461 143.82 127.097 149.19 127.251C151.859 127.327 162.087 127.979 166.486 115.431C170.416 104.208 163.815 99.1518 157.639 98.713ZM79.2238 112.068H68.8523C74.9384 101.15 78.8113 96.2784 78.8113 96.2784C78.8113 96.2784 79.0207 104.347 79.2238 112.068ZM88.198 125.026C88.198 123.336 86.4907 90.1012 86.4135 88.7199C86.3366 87.3385 84.7238 87.384 84.3504 87.384H79.0693C77.7652 87.384 75.7164 88.1426 73.9602 90.6533C65.872 102.225 55.2231 120.496 52.8561 125.792C52.2831 127.078 53.3407 126.99 53.5069 126.99H59.9894C60.7357 126.99 60.9287 126.852 61.2053 126.329C61.7362 125.328 63.6331 121.784 65.2735 118.699H79.3986C79.5001 122.543 79.5789 125.459 79.5931 125.882C79.6394 127.28 81.1558 126.99 81.1558 126.99H86.6289C87.1683 126.99 88.198 126.713 88.198 125.026ZM91.3556 126.99C91.3556 126.99 89.5718 127.176 89.8362 125.676C90.0997 124.18 94.8638 100.924 94.8638 100.924C94.8638 100.924 95.0882 99.0824 96.5378 99.0824H101.43C101.43 99.0824 102.513 99.174 102.319 100.048C102.125 100.924 101.854 102.268 101.854 102.268C101.854 102.268 104.841 99.3114 108.643 99.082C112.446 98.8512 113.991 99.082 113.991 99.082C113.991 99.082 115.501 99.1965 114.423 100.424C113.344 101.653 111.187 104.239 110.776 104.93C110.365 105.621 109.789 106.335 108.914 106.335C108.036 106.335 102.125 105.644 100.729 112.552C99.8703 116.798 99.0036 121.043 98.129 125.287C98.129 125.287 97.9871 126.989 96.745 126.989H91.3549L91.3556 126.99ZM127.331 114.739C126.232 117.519 124.047 121.269 120.126 120.825C114.893 120.232 117.758 112.206 117.758 112.206C117.758 112.206 119.804 104.081 125.601 104.771C130.678 105.377 128.307 112.263 127.331 114.739ZM137.437 99.3103C137.437 99.3103 134.673 99.277 133.214 99.277C131.898 99.277 131.453 102.381 131.453 102.381C131.453 102.381 130.422 98.8176 124.137 98.7839C117.985 98.7503 114.024 104.429 113.132 105.988C112.237 107.548 109.694 112.117 109.341 117.732C108.981 123.477 112.367 127.202 118.253 127.239C123.461 127.272 125.672 124.371 125.672 124.371C124.37 129.476 121.944 132.075 117.954 132.634C115.417 132.988 113.492 131.613 112.567 130.971C111.687 130.362 110.265 130.848 109.906 130.971C109.548 131.096 107.144 132.35 106.626 132.734C106.149 133.082 105.701 134.265 106.404 135.145C110.371 140.103 116.892 139.948 118.55 139.8C121.709 139.52 123.081 138.987 125.136 137.764C129.222 135.333 131.396 130.677 132.383 128.325C133.546 125.554 135.652 116.617 135.941 115.396C136.233 114.173 138.823 103.086 139.235 101.547C139.828 99.3217 137.437 99.3103 137.437 99.3103ZM192.53 106.103C192.53 106.103 194.095 105.267 193.251 104.1C191.785 102.074 189.136 98.8571 181.546 99.0802C173.073 99.3287 169.625 105.113 169.766 108.567C169.898 111.915 171.14 113.218 174.422 114.462C177.28 115.546 182.429 115.94 182.429 118.845C182.429 120.84 179.007 121.608 178.082 121.608C177.158 121.608 174.864 121.077 173.039 118.806C172.224 117.793 171.177 117.793 170.556 118.115C169.935 118.438 167.702 119.444 167.142 119.88C166.585 120.318 166.507 121.377 166.949 122.337C167.392 123.297 170.322 127.9 178.199 127.632C185.85 127.373 191.547 123.813 191.699 117.225C191.784 113.471 188.719 111.399 185.687 110.363C182.653 109.326 179.147 108.9 179.075 106.724C179.029 105.297 180.836 104.422 182.312 104.422C183.786 104.422 185.35 105.429 186.756 106.679C187.587 107.415 188.208 108.175 189.549 107.553C190.251 107.23 192.53 106.103 192.53 106.103Z" stroke="white" stroke-width="13.1687"/>
<path d="M54.2433 139.454C54.2433 139.454 51.9421 137.95 52.6245 137.107C53.699 135.781 55.3894 137.039 56.1551 137.303C56.9201 137.567 86.7628 152.041 124.749 150.936C159.898 149.911 185.137 137.653 187.316 136.982C188.737 136.544 189.994 135.73 190.575 136.614C191.003 137.264 190.814 138.021 189.528 138.801C188.325 139.529 161.247 158.758 121.328 158.49C79.4305 158.208 54.2433 139.454 54.2433 139.454Z" stroke="white" stroke-width="13.1687"/>
<path d="M158.558 113.945C157.244 118.483 154.73 121.263 150.295 121.232H150.179C145.371 121.109 146.437 115.929 147.978 111.463C149.686 106.518 152.51 104.7 155.869 104.785C160.85 104.915 159.886 109.339 158.558 113.945ZM157.639 98.713C151.199 98.2528 143.091 100.732 139.601 110.479C134.95 123.461 143.82 127.097 149.19 127.251C151.859 127.327 162.087 127.979 166.486 115.431C170.416 104.208 163.815 99.1518 157.639 98.713ZM79.2238 112.068H68.8523C74.9384 101.15 78.8113 96.2784 78.8113 96.2784C78.8113 96.2784 79.0207 104.347 79.2238 112.068ZM88.198 125.026C88.198 123.336 86.4907 90.1012 86.4135 88.7199C86.3366 87.3385 84.7238 87.384 84.3504 87.384H79.0693C77.7652 87.384 75.7164 88.1426 73.9602 90.6533C65.872 102.225 55.2231 120.496 52.8561 125.792C52.2831 127.078 53.3407 126.99 53.5069 126.99H59.9894C60.7357 126.99 60.9287 126.852 61.2053 126.329C61.7362 125.328 63.6331 121.784 65.2735 118.699H79.3986C79.5001 122.543 79.5789 125.459 79.5931 125.882C79.6394 127.28 81.1558 126.99 81.1558 126.99H86.6289C87.1683 126.99 88.198 126.713 88.198 125.026ZM91.3556 126.99C91.3556 126.99 89.5718 127.176 89.8362 125.676C90.0997 124.18 94.8638 100.924 94.8638 100.924C94.8638 100.924 95.0882 99.0824 96.5378 99.0824H101.43C101.43 99.0824 102.513 99.174 102.319 100.048C102.125 100.924 101.854 102.268 101.854 102.268C101.854 102.268 104.841 99.3114 108.643 99.082C112.446 98.8512 113.991 99.082 113.991 99.082C113.991 99.082 115.501 99.1965 114.423 100.424C113.344 101.653 111.187 104.239 110.776 104.93C110.365 105.621 109.789 106.335 108.914 106.335C108.036 106.335 102.125 105.644 100.729 112.552C99.8703 116.798 99.0036 121.043 98.129 125.287C98.129 125.287 97.9871 126.989 96.745 126.989H91.3549L91.3556 126.99ZM127.331 114.739C126.232 117.519 124.047 121.269 120.126 120.825C114.893 120.232 117.758 112.206 117.758 112.206C117.758 112.206 119.804 104.081 125.601 104.771C130.678 105.377 128.307 112.263 127.331 114.739ZM137.437 99.3103C137.437 99.3103 134.673 99.277 133.214 99.277C131.898 99.277 131.453 102.381 131.453 102.381C131.453 102.381 130.422 98.8176 124.137 98.7839C117.985 98.7503 114.024 104.429 113.132 105.988C112.237 107.548 109.694 112.117 109.341 117.732C108.981 123.477 112.367 127.202 118.253 127.239C123.461 127.272 125.672 124.371 125.672 124.371C124.37 129.476 121.944 132.075 117.954 132.634C115.417 132.988 113.492 131.613 112.567 130.971C111.687 130.362 110.265 130.848 109.906 130.971C109.548 131.096 107.144 132.35 106.626 132.734C106.149 133.082 105.701 134.265 106.404 135.145C110.371 140.103 116.892 139.948 118.55 139.8C121.709 139.52 123.081 138.987 125.136 137.764C129.222 135.333 131.396 130.677 132.383 128.325C133.546 125.554 135.652 116.617 135.941 115.396C136.233 114.173 138.823 103.086 139.235 101.547C139.828 99.3217 137.437 99.3103 137.437 99.3103ZM192.53 106.103C192.53 106.103 194.095 105.267 193.251 104.1C191.785 102.074 189.136 98.8571 181.546 99.0802C173.073 99.3287 169.625 105.113 169.766 108.567C169.898 111.915 171.14 113.218 174.422 114.462C177.28 115.546 182.429 115.94 182.429 118.845C182.429 120.84 179.007 121.608 178.082 121.608C177.158 121.608 174.864 121.077 173.039 118.806C172.224 117.793 171.177 117.793 170.556 118.115C169.935 118.438 167.702 119.444 167.142 119.88C166.585 120.318 166.507 121.377 166.949 122.337C167.392 123.297 170.322 127.9 178.199 127.632C185.85 127.373 191.547 123.813 191.699 117.225C191.784 113.471 188.719 111.399 185.687 110.363C182.653 109.326 179.147 108.9 179.075 106.724C179.029 105.297 180.836 104.422 182.312 104.422C183.786 104.422 185.35 105.429 186.756 106.679C187.587 107.415 188.208 108.175 189.549 107.553C190.251 107.23 192.53 106.103 192.53 106.103Z" fill="#232323"/>
<path d="M54.2433 139.454C54.2433 139.454 51.9421 137.95 52.6245 137.107C53.699 135.781 55.3894 137.039 56.1551 137.303C56.9201 137.567 86.7628 152.041 124.749 150.936C159.898 149.911 185.137 137.653 187.316 136.982C188.737 136.544 189.994 135.73 190.575 136.614C191.003 137.264 190.814 138.021 189.528 138.801C188.325 139.529 161.247 158.758 121.328 158.49C79.4305 158.208 54.2433 139.454 54.2433 139.454Z" fill="#232323"/>
</g>
<defs>
<clipPath id="clip0_99_17">
<rect width="154" height="85" fill="white" transform="translate(46 80)"/>
</clipPath>
</defs>
</svg>
