<svg width="245" height="245" viewBox="0 0 245 245" fill="none" xmlns="http://www.w3.org/2000/svg">
<g clip-path="url(#clip0_99_16)">
<path d="M200 123.001C200 165.531 165.301 200 122.501 200C79.6972 200.001 45 165.53 45 123.001C45 80.4765 79.6972 46.001 122.5 46.001C165.301 46.001 200 80.4765 200 123.001Z" fill="white"/>
<path d="M197.415 123C197.415 164.108 163.876 197.431 122.5 197.431C81.1239 197.431 47.584 164.109 47.584 123C47.584 81.8909 81.1246 48.5674 122.5 48.5674C163.875 48.5674 197.415 81.8909 197.415 123Z" fill="#232323"/>
<path d="M175.887 123C175.887 152.296 151.984 176.04 122.5 176.04C93.0135 176.04 69.1113 152.295 69.1113 123C69.1113 93.7026 93.0143 69.9561 122.5 69.9561C151.985 69.9553 175.887 93.7033 175.887 123Z" fill="white"/>
<path d="M174.272 123C174.272 151.41 151.089 174.438 122.5 174.438C93.9063 174.438 70.7285 151.409 70.7285 123C70.7285 94.5923 93.9071 71.5625 122.5 71.5625C151.09 71.5632 174.272 94.5923 174.272 123Z" fill="#232323"/>
<path d="M78.1391 167.377C78.711 167.92 80.1214 169.254 80.1214 169.254L81.4725 167.84L77.4428 164.024L76.9241 164.563L71.5137 170.199L73.567 172.143C73.567 172.143 75.3029 170.335 75.937 169.676L77.741 171.383L79.0929 169.973L77.2911 168.263C77.6278 167.91 77.7987 167.732 78.1391 167.377ZM87.8567 173.812C87.6747 172.731 87.0635 171.776 86.14 171.125C85.695 170.806 85.1911 170.578 84.657 170.453C84.123 170.328 83.5693 170.309 83.0278 170.397C81.8565 170.595 80.8036 171.272 80.0622 172.305C79.323 173.342 79.0248 174.552 79.2238 175.72C79.4073 176.798 80.0126 177.746 80.9346 178.399C81.8565 179.05 82.9687 179.311 84.0556 179.129C85.2269 178.932 86.2799 178.254 87.0183 177.218C87.6095 176.399 87.9181 175.459 87.9181 174.52C87.9181 174.286 87.8981 174.045 87.8567 173.812ZM82.0704 176.806C81.1299 176.144 81.9061 174.761 82.4559 174C83.0019 173.233 84.0638 172.048 85.0042 172.709C85.9869 173.407 85.0686 174.916 84.6283 175.529C84.1851 176.147 83.0552 177.504 82.0704 176.806ZM94.1906 175.95C92.0218 174.86 89.5149 175.752 88.3621 178.021C87.7856 179.155 87.6724 180.399 88.0439 181.52C88.3872 182.56 89.1316 183.41 90.1409 183.914C90.6296 184.165 91.1636 184.317 91.712 184.362C92.2604 184.406 92.8121 184.341 93.3352 184.172C94.4614 183.808 95.4018 182.98 95.9745 181.847C97.1318 179.572 96.363 177.039 94.1906 175.95ZM91.7924 182.254C91.5379 182.336 91.2967 182.31 91.0236 182.176C90.593 181.957 90.442 181.568 90.442 181.134C90.442 180.533 90.7336 179.825 90.98 179.341C91.4076 178.5 92.2763 177.174 93.3078 177.69C93.5794 177.829 93.7421 178.007 93.8243 178.257C93.9967 178.774 93.8235 179.624 93.3589 180.534C92.8957 181.44 92.3104 182.083 91.7924 182.254ZM98.6687 179.069L98.2691 180.205C98.2691 180.205 99.2895 180.561 99.5995 180.663L97.4085 186.879L100.081 187.811C100.081 187.811 101.885 182.71 102.274 181.599L103.608 182.06L104.255 180.227L98.9165 178.366L98.6687 179.069ZM109.769 181.533L106.155 180.776L106.001 181.505L104.386 189.123L108.063 189.899C109.238 190.14 110.012 189.853 110.453 189.57C111.013 189.207 111.406 188.611 111.557 187.9C111.598 187.706 111.618 187.518 111.618 187.334C111.618 186.82 111.453 186.356 111.157 185.957C111.572 185.631 111.867 185.17 111.99 184.594C112.021 184.445 112.039 184.277 112.039 184.102C112.041 183.125 111.48 181.888 109.769 181.533ZM108.774 187.35C108.736 187.524 108.666 187.754 108.533 187.84C108.41 187.919 108.175 187.929 107.87 187.864C107.87 187.864 107.731 187.833 107.566 187.801C107.683 187.251 107.762 186.885 107.876 186.335C108.033 186.372 108.235 186.412 108.235 186.412C108.709 186.511 108.8 186.859 108.8 187.112C108.8 187.214 108.787 187.3 108.774 187.35ZM108.528 183.272C108.846 183.345 109.078 183.459 109.168 183.594C109.212 183.671 109.233 183.758 109.229 183.846C109.229 183.908 109.221 183.98 109.205 184.066C109.157 184.289 109.091 184.599 108.465 184.472C108.465 184.472 108.388 184.452 108.28 184.428C108.379 183.966 108.426 183.736 108.528 183.272ZM116.439 182.774L112.514 190.757L114.755 190.928L115.604 189.149C116.078 189.188 116.553 189.221 117.018 189.258L117.63 191.144L120.61 191.374L117.279 181.114L116.439 182.774ZM125.287 189.147L125.013 182.669L122.181 182.787L122.539 191.313L128.214 191.079L128.129 189.033C128.129 189.033 126.101 189.118 125.287 189.147ZM133.055 188.331C132.872 187.178 132.044 181.926 132.044 181.926L131.301 182.043L129.241 182.362L130.571 190.796L136.184 189.921L135.863 187.897C135.863 187.896 133.86 188.209 133.055 188.331ZM149.305 182.659C149.282 183.39 148.848 184.02 148.172 184.286C147.797 184.434 147.439 184.434 147.08 184.283C146.53 184.049 146.019 183.456 145.712 182.695C145.354 181.798 145.279 181.035 145.515 180.5C145.678 180.124 145.995 179.844 146.483 179.651C147.011 179.443 147.511 179.635 148.196 180.035L148.825 180.404L149.871 178.766L149.25 178.361C148.111 177.615 146.7 177.465 145.478 177.948C144.345 178.397 143.466 179.236 143.001 180.311C142.53 181.399 142.53 182.646 143.009 183.827C143.911 186.067 146.459 187.171 148.688 186.284C150.299 185.646 151.209 184.43 151.325 182.77L151.377 182.029L149.327 181.878L149.305 182.659ZM155.915 180.33C155.335 179.306 152.728 174.662 152.728 174.662L152.076 175.028L150.252 176.039L154.443 183.489L159.396 180.739L158.394 178.95C158.395 178.95 156.622 179.933 155.915 180.33ZM161.426 168.842L160.819 169.283L159.755 170.062L163.233 174.772C163.393 174.984 163.393 175.126 163.377 175.21C163.344 175.453 163.089 175.716 162.865 175.877C162.687 175.993 162.473 176.042 162.261 176.016C162.082 175.99 161.94 175.892 161.814 175.724L158.376 171.067L156.086 172.733L159.506 177.368C160.014 178.054 160.644 178.459 161.379 178.571C162.204 178.699 163.143 178.42 164.015 177.78C165.808 176.478 165.779 174.748 164.996 173.687L161.426 168.842ZM171.861 167.129C171.333 166.586 170.682 166.342 170 166.378C169.962 165.832 169.73 165.317 169.344 164.925C168.627 164.191 167.026 163.619 165.551 165.043L162.898 167.593L168.875 173.723L171.573 171.125C172.436 170.295 172.625 169.49 172.635 168.971C172.65 168.305 172.375 167.653 171.861 167.129ZM167.346 166.922C167.435 167.017 167.545 167.127 167.545 167.28C167.545 167.405 167.475 167.561 167.269 167.757L167.137 167.889C166.802 167.544 166.643 167.383 166.303 167.035C166.901 166.491 167.15 166.724 167.346 166.922ZM168.761 169.033C169.245 168.569 169.712 168.977 169.846 169.115C169.974 169.244 170.12 169.425 170.12 169.582V169.587C170.117 169.732 169.994 169.934 169.772 170.148C169.772 170.148 169.668 170.248 169.545 170.362C169.156 169.96 168.89 169.69 168.5 169.291C168.615 169.175 168.761 169.033 168.761 169.033Z" fill="#232323"/>
<path d="M78.1198 166.585C78.3536 166.809 80.0991 168.463 80.0991 168.463L80.6748 167.86L77.459 164.813L77.3288 164.948L72.3105 170.179L73.547 171.352C73.547 171.352 75.6854 169.125 75.9155 168.882L77.7217 170.591L78.2981 169.991L76.4912 168.283C76.7013 168.064 77.9134 166.799 78.1198 166.585ZM85.8115 171.579C85.0145 171.015 84.0608 170.79 83.124 170.946C82.0962 171.121 81.1743 171.718 80.5216 172.63C79.8675 173.545 79.6049 174.606 79.7795 175.623C79.9363 176.556 80.4639 177.38 81.2616 177.94C81.6473 178.217 82.0845 178.416 82.548 178.524C83.0114 178.633 83.4919 178.649 83.9616 178.571C84.9835 178.402 85.9069 177.802 86.5581 176.897C87.079 176.165 87.3542 175.338 87.3542 174.518C87.3542 174.315 87.3365 174.106 87.3032 173.902C87.1441 172.972 86.615 172.146 85.8115 171.579ZM85.0856 175.854C84.5462 176.604 83.1425 178.251 81.7455 177.263C80.3522 176.281 81.4577 174.425 81.9956 173.67C82.5343 172.917 83.9387 171.271 85.329 172.253C86.7268 173.245 85.6243 175.102 85.0856 175.854ZM93.9367 176.45C92.0551 175.506 89.8752 176.292 88.8652 178.277C88.3561 179.276 88.2555 180.362 88.5781 181.348C88.8748 182.244 89.5193 182.975 90.3946 183.413C91.2722 183.857 92.2541 183.937 93.1598 183.642C94.1446 183.32 94.966 182.593 95.4758 181.596C96.4843 179.609 95.8236 177.395 93.9367 176.45ZM90.769 182.671C89.2455 181.91 90.0565 179.906 90.4768 179.084C90.8956 178.257 92.0358 176.423 93.5579 177.191C93.9626 177.391 94.2334 177.691 94.3614 178.083C94.6604 178.989 94.1757 180.162 93.859 180.785C93.5438 181.403 92.8801 182.485 91.9655 182.784C91.5763 182.915 91.1716 182.876 90.769 182.671ZM99.2021 179.251L98.9861 179.859L100.317 180.324C100.199 180.656 98.124 186.535 98.124 186.535L99.7371 187.099C99.7371 187.099 101.815 181.219 101.93 180.886L103.261 181.348L103.54 180.567L99.2613 179.076L99.2021 179.251ZM109.655 182.079L106.593 181.437L106.551 181.621L105.055 188.696L108.18 189.348C108.974 189.514 109.635 189.431 110.147 189.098C110.589 188.812 110.886 188.353 111.007 187.784C111.038 187.629 111.056 187.482 111.056 187.337C111.056 186.718 110.747 186.193 110.195 185.819C110.834 185.637 111.291 185.17 111.439 184.477C111.464 184.37 111.479 184.242 111.479 184.096C111.478 183.387 111.103 182.382 109.655 182.079ZM108.585 182.705C109.1 182.812 109.455 183.008 109.637 183.287C109.742 183.445 109.793 183.63 109.793 183.845C109.793 183.95 109.779 184.059 109.754 184.177C109.555 185.118 108.789 185.109 108.35 185.014C108.35 185.014 107.883 184.918 107.614 184.861C107.677 184.571 108.031 182.892 108.092 182.603C108.288 182.642 108.585 182.705 108.585 182.705ZM108.349 185.863C109.219 186.044 109.356 186.727 109.356 187.14C109.356 187.317 109.327 187.445 109.324 187.465C109.236 187.874 109.08 188.151 108.839 188.305C108.585 188.474 108.218 188.506 107.754 188.412C107.754 188.412 107.196 188.294 106.898 188.235L107.442 185.674C107.697 185.725 108.349 185.863 108.349 185.863ZM116.947 183.019L113.386 190.263L114.412 190.34C114.412 190.34 115.166 188.764 115.265 188.564L117.439 188.732C117.508 188.939 118.051 190.619 118.051 190.619L119.819 190.755L117.173 182.606L116.947 183.019ZM116.556 185.932C116.727 186.479 117.059 187.534 117.169 187.877C116.816 187.852 116.007 187.79 115.658 187.763L116.556 185.932ZM124.746 189.73L124.47 183.252L124.289 183.26L122.764 183.321L123.077 190.732L127.627 190.539L127.586 189.614C127.588 189.614 125.076 189.719 124.746 189.73ZM132.587 188.976C132.53 188.626 131.573 182.563 131.573 182.563L131.39 182.592L129.886 182.828L131.042 190.154L135.54 189.448L135.396 188.533C135.396 188.534 132.909 188.922 132.587 188.976ZM149.866 182.671C149.839 183.636 149.269 184.453 148.38 184.809C147.863 185.012 147.352 185.006 146.859 184.795C146.163 184.503 145.555 183.81 145.186 182.902C144.771 181.864 144.706 180.956 144.995 180.276C145.22 179.763 145.648 179.378 146.274 179.131C147.092 178.805 147.845 179.176 148.48 179.551L148.639 179.643L149.097 178.928L148.944 178.825C147.957 178.183 146.737 178.048 145.687 178.466C144.692 178.863 143.919 179.593 143.518 180.53C143.106 181.478 143.11 182.577 143.533 183.614C144.318 185.571 146.534 186.533 148.481 185.762C149.893 185.199 150.66 184.182 150.762 182.728L150.777 182.541L149.874 182.48L149.866 182.671ZM155.697 181.091C155.522 180.785 152.51 175.426 152.51 175.426L152.344 175.518L151.018 176.255L154.654 182.725L158.629 180.52L158.178 179.709C158.179 179.711 155.978 180.928 155.697 181.091ZM161.303 169.622L161.15 169.733L160.54 170.177L163.686 174.436C163.897 174.724 163.979 175.008 163.935 175.289C163.859 175.795 163.395 176.187 163.2 176.323C162.903 176.53 162.537 176.617 162.177 176.566C161.846 176.518 161.574 176.343 161.356 176.053L158.251 171.843L156.875 172.851L159.961 177.031C160.377 177.595 160.883 177.928 161.466 178.013C162.384 178.151 163.247 177.643 163.68 177.328C165.169 176.241 165.189 174.88 164.546 174.014L161.303 169.622ZM171.456 167.517C170.879 166.923 170.141 166.789 169.375 167.082C169.437 166.908 169.469 166.726 169.472 166.543C169.472 166.102 169.296 165.672 168.94 165.31C168.46 164.819 167.216 164.212 165.944 165.441L163.696 167.605L168.887 172.928L171.185 170.714C171.763 170.161 172.066 169.566 172.073 168.962C172.082 168.436 171.867 167.938 171.456 167.517ZM168.104 167.287C168.104 167.66 167.86 167.966 167.662 168.158C167.662 168.158 167.317 168.491 167.123 168.681C166.913 168.468 165.71 167.236 165.504 167.017C165.643 166.882 165.863 166.675 165.863 166.675C166.565 165.994 167.182 165.951 167.748 166.534C168.009 166.799 168.104 167.052 168.104 167.287ZM169.535 171.15C169.322 170.932 167.919 169.49 167.703 169.272C167.889 169.095 168.369 168.631 168.369 168.631C169.284 167.755 170.212 168.683 170.252 168.726C170.542 169.022 170.682 169.302 170.682 169.581V169.593C170.679 169.899 170.5 170.219 170.161 170.552C170.163 170.552 169.716 170.979 169.535 171.15Z" fill="white"/>
<path d="M88.0689 72.2754L84.9367 73.1149L85.2963 74.2294C85.7292 75.5814 85.3378 76.9973 84.2774 77.9207C83.6877 78.4346 83.0055 78.6706 82.2552 78.6191C81.1135 78.5426 79.8245 77.8082 78.8093 76.654C77.6136 75.2917 77.0157 73.9809 77.0926 72.8708C77.1444 72.0592 77.541 71.3491 78.3024 70.6867C79.143 69.9552 80.2085 69.9839 81.6536 70.2691L82.7251 70.4794L83.4191 67.4983L82.3403 67.2373C80.0191 66.6668 77.5995 67.227 75.8725 68.7289C72.491 71.6688 72.2157 76.4687 75.231 79.8953C78.0338 83.0786 82.896 83.4263 86.0666 80.6717C88.3493 78.6904 89.1448 76.1548 88.3686 73.3494L88.0689 72.2754ZM96.5752 56.6641L93.3757 58.1609C93.3757 58.1609 95.1619 61.922 95.7761 63.2181C94.8637 63.6445 93.9788 64.0592 93.0657 64.4878L90.6624 59.4306L86.4492 61.4067L92.8652 74.9293L97.0821 72.9539C97.0821 72.9539 95.0939 68.7716 94.4545 67.4152C95.3669 66.9903 96.2511 66.5749 97.1664 66.1463L99.7932 71.6821L104.009 69.706L97.5941 56.1863L96.5752 56.6641ZM110.841 65.0413C110.636 64.0349 110.427 63.0101 110.224 62.0044L114.986 61.0501L114.377 58.047L109.614 59.0034C109.426 58.083 109.271 57.3096 109.082 56.3899L114.136 55.3761L113.526 52.3737L112.417 52.595L103.903 54.3057L106.88 68.9612L116.579 67.0138L115.97 64.0121C115.97 64.0121 112.202 64.7664 110.841 65.0413ZM124.599 52.026L119.934 51.9297L119.911 53.0479L119.619 66.877L129.411 67.0807L129.482 63.843C129.482 63.843 125.722 63.7636 124.348 63.7357L124.599 52.026ZM139.716 59.5658C138.505 58.6829 138.152 58.3278 138.274 57.8456C138.334 57.5956 138.608 56.7972 139.478 57.0111C140.001 57.1449 140.521 57.4192 140.754 58.5366L141.008 59.7776L144.089 58.7432L143.896 57.7787C143.517 55.8871 141.907 54.2756 139.884 53.7742C138.436 53.4169 136.985 53.6073 135.794 54.3182C135.257 54.6337 134.789 55.0522 134.417 55.5492C134.045 56.0463 133.776 56.612 133.626 57.2133C132.853 60.2782 134.934 61.7537 136.307 62.7315C137.716 63.7327 138.075 64.1246 137.861 64.9612C137.828 65.0891 137.77 65.2092 137.691 65.3146C137.611 65.42 137.511 65.5085 137.396 65.5751C137.113 65.7397 136.76 65.7993 136.471 65.725C135.731 65.5435 135.409 65.1957 135.099 64.2437L134.72 63.1034L131.63 64.3591L131.928 65.3339C132.507 67.2285 133.89 68.4224 136.154 68.9855C138.698 69.6177 141.784 68.4554 142.553 65.42C143.355 62.2249 141.165 60.623 139.716 59.5658ZM150.844 67.5394L155.177 69.7163L156.569 66.9829C156.569 66.9829 153.419 65.4023 152.237 64.8076C152.66 63.9687 153.021 63.2637 153.442 62.4278L158.046 64.7385L159.434 62.0051L150.675 57.6081L150.169 58.6035L143.886 70.9499L152.719 75.3814L154.112 72.6496L149.441 70.3059C149.903 69.3891 150.38 68.4569 150.844 67.5394ZM168.288 68.9362L154.252 76.1504L156.937 78.4706C156.937 78.4706 159.255 77.2465 160.097 76.8069L162.262 78.6786C161.96 79.5682 161.103 82.0692 161.103 82.0692L164.801 85.2679L170.801 67.6879L168.288 68.9362Z" fill="#232323"/>
<path d="M87.542 73.1844L85.8875 73.6306L86.0088 74.0026C86.5342 75.6435 86.0599 77.3594 84.7672 78.4827C84.025 79.1296 83.1586 79.4266 82.2018 79.3656C80.8455 79.2752 79.4049 78.4665 78.2402 77.144C76.9098 75.6303 76.2498 74.1342 76.3371 72.816C76.4059 71.8162 76.8994 70.909 77.8044 70.1224C78.992 69.091 80.4896 69.2799 81.7963 69.5357L82.1552 69.6049L82.517 68.0478L82.1574 67.9588C80.0723 67.4501 77.908 67.9463 76.363 69.2909C73.3063 71.9508 73.0606 76.2948 75.794 79.4024C78.3231 82.2761 82.708 82.5908 85.57 80.1074C87.6456 78.2989 88.3433 76.0941 87.6396 73.5468L87.542 73.1844ZM96.894 57.335L94.3768 58.5164L96.7749 63.5714C96.2362 63.8257 93.2462 65.2269 92.7038 65.4791C92.4263 64.8902 90.3079 60.4234 90.3079 60.4234L87.4473 61.7621L93.2239 73.9328L96.0831 72.5955L93.4548 67.059C93.9972 66.8053 96.9843 65.4071 97.526 65.152C97.8079 65.7482 100.154 70.69 100.154 70.69L103.009 69.349L97.2322 57.1784L96.894 57.335ZM110.251 65.9202C110.133 65.3358 109.456 62.0062 109.34 61.421L114.1 60.466L113.788 58.9288L109.025 59.8816C108.911 59.3081 108.314 56.3785 108.2 55.8058C108.831 55.6772 113.25 54.7935 113.25 54.7935L112.937 53.2555L104.787 54.8883L107.468 68.0794L115.694 66.4289L115.382 64.8902L110.251 65.9202ZM123.831 52.7571L120.67 52.6895L120.664 53.06L120.385 66.1437L128.678 66.3187L128.716 64.5719L123.582 64.4646C123.6 63.7669 123.831 52.7578 123.831 52.7571ZM139.659 56.2896C140.663 56.5395 141.244 57.2063 141.489 58.387L141.575 58.8001L143.224 58.2473L143.162 57.9246C142.836 56.3123 141.448 54.9346 139.702 54.4987C138.45 54.1885 137.2 54.3509 136.182 54.9582C135.73 55.2244 135.336 55.577 135.022 55.9956C134.709 56.4142 134.482 56.8904 134.355 57.3967C133.706 59.9676 135.392 61.1644 136.745 62.1253C138.114 63.0979 138.939 63.7632 138.587 65.1424C138.532 65.3667 138.433 65.5777 138.293 65.7625C138.154 65.9472 137.979 66.102 137.778 66.2172C137.33 66.4837 136.795 66.5672 136.286 66.4503C135.286 66.2018 134.774 65.6688 134.384 64.4778L134.256 64.097L132.546 64.7895L132.646 65.1152C133.143 66.7384 134.351 67.7669 136.339 68.2624C138.522 68.8035 141.169 67.8221 141.822 65.238C142.501 62.5274 140.71 61.2174 139.262 60.1653C138.032 59.2633 137.289 58.6605 137.543 57.665C137.765 56.7748 138.508 56.0028 139.659 56.2896ZM153.111 61.4261L157.71 63.7346L158.426 62.3326L151.008 58.6097L150.838 58.942L144.899 70.6223L152.386 74.3812L153.1 72.9807L148.432 70.6355C148.702 70.1026 150.244 67.0744 150.513 66.5407C151.083 66.8281 154.845 68.716 154.845 68.716L155.562 67.3148C155.562 67.3148 151.796 65.4276 151.225 65.1395L153.111 61.4261ZM168.633 69.5997L155.581 76.3103L157.04 77.5704L160.199 75.9067L163.137 78.4459C162.998 78.8562 161.974 81.8336 161.974 81.8336L164.451 83.9722L169.493 69.1983L168.633 69.5997ZM161.71 75.134C162.328 74.8164 163.904 74.0026 164.868 73.5056C164.51 74.5216 163.919 76.1949 163.693 76.8455C163.033 76.2735 162.372 75.703 161.71 75.134Z" fill="white"/>
<path d="M159.525 120.98C158.455 118.163 154.769 116.94 151.285 118.245C149.832 118.789 148.642 119.697 147.831 120.768C150.131 114.245 159.502 112.86 159.502 106.791C159.502 96.6183 144.962 99.4678 147.077 106.792C147.077 103.469 152.4 102.86 152.4 106.792C152.4 110.726 143.118 113.304 143.118 119.949C143.118 127.274 150.491 127.952 149.744 134.65C149.618 135.806 148.369 137.324 146.557 137.324C135.264 137.324 139.295 123.511 135.35 119.307L135.556 116.469C137.837 117.86 143.89 114.603 139.905 109.64C139.905 112.081 134.79 111.947 134.79 107.334C134.79 101.095 140.662 104.35 140.946 105.728C140.665 103.455 140.559 102.013 140.935 100.704C137.77 101.718 137.474 99.9001 137.874 99.1966C138.333 98.3842 138.945 97.4336 140.179 97.4336C140.845 97.4336 141.245 97.5255 141.481 97.6873C141.876 97.9556 142.164 97.3432 142.108 97.913C142.446 97.4013 142.31 98.0409 142.639 97.527C142.971 97.0168 143.42 96.4397 144.207 95.6707L144.173 94.5209L145.095 94.8569L145.979 93.4336C145.024 91.4656 143.728 92.4132 142.773 89.9732C141.975 89.7681 129.537 91.1112 129.899 86.1819C128.885 86.1819 126.483 86.7348 127.97 88.7411C126.814 88.8793 125.981 87.5751 124.238 91.1024C126.421 90.6959 125.291 93.1204 125.291 93.8107C125.291 98.2791 119.303 98.2048 119.303 96.1111C117.859 97.5049 118.679 100.551 120.861 101.302C120.861 101.302 120.03 104.561 117.982 106.628C114.94 106.507 110.06 105.982 107.252 103.346C106.042 102.21 105.081 101.59 104.262 101.273V99.7957C105.46 99.2127 106.774 98.1813 108.14 96.4573C109.205 95.1642 109.783 93.5064 109.628 91.7457C109.607 91.5376 109.578 91.3306 109.539 91.1252C109.527 91.0605 109.511 90.998 109.496 90.934C109.467 90.7931 109.431 90.6536 109.389 90.5157C109.37 90.4481 109.351 90.3775 109.329 90.3121C109.284 90.1739 109.233 90.0376 109.177 89.9033C109.154 89.8475 109.137 89.7872 109.11 89.735C109.034 89.558 108.95 89.3845 108.858 89.2152C108.819 89.1461 108.777 89.0822 108.739 89.0182C108.676 88.916 108.616 88.8124 108.55 88.7131C108.496 88.6335 108.44 88.5546 108.384 88.4764C108.326 88.4007 108.265 88.3235 108.205 88.2478C108.139 88.1669 108.073 88.0801 108.003 88.0007C107.956 87.9478 107.907 87.8968 107.856 87.8478C107.561 87.5264 107.233 87.2351 106.88 86.9781L106.785 86.9098C106.659 86.8215 106.53 86.7363 106.396 86.6532C106.387 86.648 106.38 86.6444 106.374 86.6377C105.039 85.8265 103.48 85.4566 101.92 85.5813C97.9921 85.8923 95.0723 89.152 95.4001 92.8653C95.6554 95.7575 97.8012 98.0673 100.594 98.804C99.6148 99.3458 98.7875 99.6604 98.6003 99.6604C98.6314 99.6796 98.6721 99.7031 98.7158 99.7318L98.7543 99.7509C98.7927 99.7751 98.8371 99.8001 98.883 99.8251L98.92 99.845L99.1205 99.9442L99.1575 99.9589C99.2434 100 99.3313 100.038 99.4209 100.071C99.5911 100.141 99.7842 100.205 99.9944 100.265C100.025 100.274 100.056 100.28 100.081 100.288C100.166 100.309 100.253 100.329 100.343 100.35L100.434 100.368C100.546 100.387 100.665 100.407 100.783 100.421C100.794 100.421 100.803 100.427 100.813 100.427V101.268C100.768 101.277 100.728 101.282 100.687 101.288C99.4091 101.496 98.5789 101.887 98.2037 103.018C97.8308 104.152 98.2148 104.563 98.8127 105.359C98.3073 106.256 96.9828 106.592 98.7113 108.575C98.5855 109.324 98.7446 110.517 99.842 110.879C100.199 111 100.498 111.064 100.813 111.118L100.811 125.987C99.7169 126.562 99.1775 127.282 98.8786 127.951C98.8786 127.951 98.0003 126.014 98.0594 129.852C99.0576 129.082 98.664 130.743 98.664 130.743C97.3047 132.493 99.031 132.398 99.031 132.398C100.202 131.236 99.9626 132.924 99.9626 132.924C99.9626 134.984 100.805 135.788 100.811 135.792V147.119L99.8175 147.123L99.8272 150.248L101.567 150.245C100.592 150.648 99.9478 151.605 100.041 152.662C100.159 153.995 101.399 154.987 102.811 154.879C104.222 154.767 105.271 153.597 105.15 152.261C105.07 151.338 104.455 150.585 103.619 150.239L105.223 150.235L105.216 147.108L104.259 147.113L104.261 137.063C104.458 137.171 104.672 137.245 104.903 137.295C104.996 137.312 105.087 137.324 105.181 137.331C105.222 137.337 105.264 137.337 105.306 137.339C105.048 136.017 105.844 135.142 105.844 135.142C106.251 134.532 106.843 134.056 107.513 133.72C109.52 132.721 112.26 132.972 113.079 134.601C118.267 133.243 122.725 128.061 122.725 128.061L125.279 132.38C119.865 134.178 108.07 144.365 116.257 147.893C116.255 148.919 116.116 156.542 111.197 155.937C104.113 155.068 102.346 157.98 103.706 161.254C103.067 164.015 105.207 164.974 105.207 164.974C104.885 163.379 105.656 162.058 108.584 162.075C108.569 164.984 110.46 165.508 110.46 165.508C110.473 163.018 112.216 162.095 113.763 162.102C113.751 164.154 116.152 164.935 116.152 164.935C116.152 164.935 115.544 162.569 118.257 162.102C125.126 160.913 118.674 153.894 129.12 151.96C129.12 151.96 123.92 151.18 123.92 148.356C123.92 145.785 128.627 144.026 130.248 144.026C133.573 150.337 137.185 150.387 138.131 150.432C139.602 152.066 139.109 157.573 136.983 157.464C129.203 157.05 129.488 161.752 130.36 162.713C130.26 164.539 131.69 165.593 131.69 165.593C131.69 163.637 133.563 163.086 135.966 163.215C135.84 165.606 137.372 165.963 137.372 165.963C137.414 163.558 139.205 163.149 140.477 163.215C140.384 164.901 142.067 165.399 142.067 165.399C142.067 165.399 141.901 163.259 144.169 163.259C148.469 163.257 142.223 154.1 150.616 145.044C143.244 148.436 139.321 139.96 139.321 138.333C143.111 142.738 155.397 143.618 155.397 136.092C155.397 128.903 147.444 126.224 151.164 123.474C153.328 121.875 157.585 125.105 155.15 128.441C158.642 127.156 160.588 123.797 159.518 120.982M112.4 121.207C109.621 122.83 107.757 124.884 105.224 125.783C104.839 125.918 104.532 125.955 104.265 125.938V111.905C104.936 111.968 106.679 112.205 108.716 113.041C110.734 114.135 110.734 116.396 108.188 116.932C109.796 119.993 115.371 118.494 116.587 116.001C117.182 115.949 117.708 117.004 118.203 118.002C117.418 118.406 115.818 119.208 112.4 121.207ZM143.51 97.9431C143.205 98.3563 142.903 98.765 142.639 99.1172C142.994 99.7066 143.509 100.184 144.126 100.496C144.742 100.807 145.434 100.938 146.123 100.876C147.088 100.784 147.978 100.317 148.597 99.5751C149.216 98.8335 149.514 97.8784 149.425 96.919C149.413 96.8462 149.404 96.7808 149.394 96.7102C149.18 97.7446 147.953 98.6209 146.391 98.7628C145.211 98.8723 144.141 98.5349 143.51 97.9431Z" fill="#232323"/>
<path d="M98.6017 89.4981C98.6017 89.5003 98.5965 89.5054 98.5965 89.5106H98.5951C98.5973 89.5064 98.5995 89.5022 98.6017 89.4981ZM98.7297 148.357C98.7327 148.355 98.7379 148.355 98.7394 148.351C98.7371 148.356 98.7334 148.356 98.7297 148.357ZM97.5791 148.012L99.3187 148.01C99.1107 148.096 98.9159 148.211 98.7401 148.352C98.9118 148.286 99.0953 148.246 99.2906 148.246C99.7092 148.246 100.111 148.411 100.407 148.705C100.703 148.999 100.869 149.398 100.869 149.814C100.869 150.23 100.703 150.629 100.407 150.923C100.111 151.217 99.7092 151.382 99.2906 151.382C98.956 151.382 98.6301 151.276 98.3608 151.078C98.0915 150.881 97.893 150.603 97.7945 150.285V150.427C97.9136 151.763 99.1508 152.756 100.565 152.641C101.974 152.532 103.023 151.359 102.907 150.025C102.824 149.106 102.21 148.352 101.374 148.006L102.977 147.999L102.97 144.873L102.013 144.879V134.828C101.547 134.586 101.172 134.201 100.944 133.731C100.716 133.26 100.647 132.729 100.747 132.216C101.345 132.216 101.881 132.371 102.239 132.614C101.687 133.823 103.061 135.103 103.061 135.103C102.804 133.781 103.597 132.91 103.597 132.91C104.009 132.298 104.599 131.821 105.267 131.485C107.277 130.484 110.015 130.736 110.833 132.365C116.021 131.008 120.48 125.825 120.48 125.825L123.035 130.141C129.024 130.141 126.938 125.684 126.548 125.295C127.925 125.295 129.865 126.303 129.865 128.535C129.865 134.015 113.83 134.797 113.83 141.448C113.83 144.241 116.618 145.303 116.618 145.303C116.618 151.367 112.426 154.97 109.559 154.97C104.974 154.97 101.463 154.047 101.463 159.014H103.061C101.543 160.523 102.96 162.735 102.96 162.735C102.64 161.142 103.414 159.823 106.341 159.838H108.168C107.007 160.99 107.685 162.74 108.219 163.274C108.23 160.78 109.969 159.858 111.519 159.867H112.845C112.484 160.219 113.063 161.86 113.909 162.697C113.909 162.697 113.298 160.333 116.014 159.867C122.88 158.678 116.429 151.659 126.874 149.722C126.874 149.722 121.677 148.944 121.677 146.117C121.677 143.55 126.382 141.787 128 141.787C129.277 141.607 130.492 141.651 131.53 141.873C131.953 145.948 136.662 145.749 137.687 145.749C141.68 149.718 136.672 156.088 136.672 156.088C130.542 156.088 128.116 156.929 128.116 160.475H129.276C128.625 161.124 128.994 162.909 129.443 163.354C129.443 161.397 131.32 160.85 133.722 160.977H134.985C134.37 161.588 134.477 163.077 135.13 163.723C135.166 161.318 136.96 160.909 138.233 160.977H139.286C138.892 161.371 139.286 162.626 139.827 163.164C139.827 163.164 139.659 161.023 141.926 161.021C146.226 161.021 139.978 151.861 148.377 142.806C141.005 146.198 137.078 137.72 137.078 136.093C140.868 140.5 153.156 141.379 153.156 133.856C153.156 127.785 147.488 124.932 147.958 122.536C148.038 121.642 148.453 120.81 149.119 120.204C149.786 119.599 150.657 119.263 151.561 119.263C152.52 119.264 153.44 119.643 154.118 120.317C154.796 120.992 155.176 121.906 155.176 122.859C155.177 123.576 154.962 124.277 154.558 124.872C154.154 125.466 153.58 125.927 152.91 126.194C152.913 126.194 152.913 126.191 152.913 126.191C152.91 126.194 152.906 126.198 152.906 126.204C156.395 124.919 158.343 121.559 157.279 118.744C156.205 115.928 152.518 114.701 149.037 116.007C147.577 116.554 146.394 117.459 145.582 118.532C147.879 112.009 157.251 110.627 157.251 104.554C157.251 94.3825 142.711 97.2327 144.826 104.557C144.826 104.448 144.833 104.338 144.846 104.233C145.216 100.093 152.665 99.2463 152.665 104.644C152.665 109.255 143.125 111.811 143.125 118.015C143.125 124.387 150.171 125.98 150.171 132.685C150.171 133.484 149.746 136.922 145.065 136.922C140.548 136.922 138.376 134.414 137.143 131.139C134.842 126.722 135.687 119.828 133.095 117.071L133.3 114.236C135.583 115.628 141.638 112.368 137.661 107.405C137.661 109.849 132.541 109.711 132.541 105.1C132.541 98.8611 138.41 102.116 138.694 103.493C138.412 101.222 138.302 99.7757 138.688 98.4715C135.519 99.4823 135.226 97.6657 135.62 96.9607C136.084 96.1462 136.697 95.1978 137.928 95.1978C139.707 95.1978 139.594 95.8469 139.5 96.7607C140.18 95.7396 140.373 94.9714 141.954 93.4356L141.921 92.2821L142.837 92.621L143.729 91.1963C142.775 89.2283 141.478 90.1796 140.519 87.7373C139.725 87.5308 129.268 86.5714 129.63 81.6406C128.705 81.6406 126.186 84.8107 127.888 86.5074H125.717C124.557 86.6449 121.848 85.8391 120.107 89.365C124.389 85.1121 127.168 95.2595 119.282 95.2595V95.2566C118.119 95.2595 117.121 94.7773 117.053 93.962C116.267 97.3864 121.235 98.4524 121.235 98.4524C121.235 99.4698 118.747 104.978 117.537 106.179C118.352 106.99 118.604 111.88 114.836 111.88C116.195 108.229 112.199 105.135 108.316 103.088H108.321C107.618 102.824 106.949 102.5 106.328 102.112C103.945 101.029 102.007 100.42 102.007 100.42V97.5577C103.206 96.9739 104.52 95.9418 105.886 94.2185C106.952 92.9269 107.527 91.2691 107.371 89.5069C107.354 89.2981 107.324 89.0906 107.28 88.8857C107.271 88.8217 107.256 88.7607 107.243 88.6967C107.212 88.5562 107.176 88.4168 107.135 88.2792C107.073 88.0707 107.002 87.8651 106.922 87.6631C106.899 87.6065 106.879 87.5521 106.856 87.4955C106.779 87.3203 106.694 87.1484 106.603 86.9801C106.566 86.9088 106.523 86.8449 106.485 86.778C106.422 86.6765 106.361 86.5758 106.296 86.4765C106.241 86.3986 106.188 86.3163 106.128 86.2376C106.071 86.1619 106.012 86.0847 105.951 86.0119C105.886 85.9262 105.818 85.8428 105.747 85.762C105.701 85.7089 105.652 85.6574 105.602 85.6076C105.423 85.4151 105.233 85.2335 105.032 85.0635C105.012 85.0481 104.995 85.0253 104.975 85.0114C104.861 84.9165 104.744 84.8263 104.623 84.7408C104.592 84.721 104.562 84.6945 104.53 84.6717C104.403 84.5822 104.273 84.4966 104.141 84.4151C104.133 84.4115 104.125 84.4048 104.117 84.4012C102.783 83.5887 101.223 83.2185 99.6635 83.344C99.3121 83.3719 98.9702 83.4344 98.6365 83.5057C96.3745 84.3666 94.7296 86.997 94.7296 90.1097C94.7296 93.043 96.1932 95.5441 98.2517 96.5424C98.2799 96.5498 98.3095 96.5608 98.339 96.5689C97.3579 97.1107 96.5306 97.4253 96.3427 97.4253C96.3745 97.4444 96.4167 97.468 96.4611 97.4981C96.4737 97.5033 96.4848 97.5099 96.4973 97.5165C96.5373 97.5386 96.578 97.5621 96.6283 97.5885C96.6409 97.5952 96.6512 97.6018 96.6653 97.6062C96.7238 97.6371 96.7926 97.6738 96.8636 97.7084C96.8765 97.7117 96.8888 97.7171 96.8999 97.7246C96.962 97.754 97.0301 97.7797 97.1019 97.8098C97.31 97.8952 97.523 97.9683 97.7397 98.0289L97.827 98.0524C97.9091 98.0738 97.9965 98.0936 98.086 98.112C98.1163 98.1201 98.1474 98.1252 98.1792 98.1318C98.2917 98.1524 98.4079 98.173 98.5292 98.1877C98.5387 98.1873 98.548 98.1899 98.5558 98.1951C99.3047 98.2561 100.19 98.0715 100.19 98.0715V99.7323C100.056 99.7323 98.8799 99.3551 98.5558 99.0346C98.5159 99.0405 98.473 99.0486 98.4301 99.0559C97.1551 99.2632 96.3242 99.6529 95.9498 100.785C95.5761 101.919 95.9601 102.33 96.5573 103.126C96.0482 104.02 94.7274 104.358 96.4529 106.342C96.3301 107.09 96.4877 108.285 97.5836 108.648C97.9417 108.768 98.2414 108.829 98.5544 108.884C99.204 108.884 100.189 109.422 100.189 110.763V123.541C100.78 123.575 101.422 123.655 102.005 123.705V109.67C102.677 109.733 104.421 109.971 106.455 110.805C106.476 110.816 106.497 110.829 106.516 110.843C106.515 110.841 106.512 110.841 106.512 110.839C106.698 110.862 106.887 110.902 107.074 110.958C108.429 111.371 109.272 112.539 108.955 113.574C108.639 114.605 107.279 115.109 105.927 114.696C107.533 117.759 113.11 116.26 114.326 113.767C114.918 113.715 115.445 114.771 115.941 115.767C115.941 115.767 117.338 116.299 120.796 116.299C120.796 116.299 106.79 125.184 102.74 125.184C101.009 125.184 97.1707 125.184 97.1707 126.484C96.1155 126.484 94.5957 128.265 94.5957 129.284C95.5931 128.51 96.4049 128.51 96.4049 128.51C97.255 128.51 97.7338 128.763 97.7338 128.763C97.4223 129.069 96.0245 130.637 96.0245 131.852C97.1951 130.688 97.7057 130.693 97.7057 130.693C97.7057 130.693 98.928 130.536 99.3639 130.972C99.0701 131.263 98.5536 132.316 98.5536 133.562C98.5536 133.562 99.2795 132.169 100.187 132.169V145.526C100.187 145.935 98.3324 146.326 97.568 146.326M98.1496 107.601C97.8033 107.614 97.6405 107.168 97.6376 107.006C97.6294 106.843 97.7589 106.388 98.103 106.376C98.9236 106.348 100.565 106.739 100.571 106.899C100.577 107.058 98.9695 107.571 98.1496 107.601ZM97.6206 105.396C97.144 105.363 96.9879 104.723 97.0042 104.498C97.019 104.279 97.2684 103.668 97.7449 103.703C98.8799 103.787 101.082 104.574 101.063 104.795C101.049 105.021 98.7542 105.479 97.6206 105.396ZM97.4252 102.571C96.9213 102.439 96.8806 101.723 96.9406 101.486C97.0042 101.25 97.3934 100.645 97.8995 100.776C99.1004 101.089 101.306 102.372 101.245 102.607C101.183 102.843 98.6269 102.884 97.4252 102.571ZM101.145 94.6126C101.354 94.1178 101.309 93.443 101.18 92.8078L101.115 92.8092C100.772 92.8093 100.432 92.7422 100.115 92.6118C99.7972 92.4813 99.5089 92.29 99.266 92.0488C99.0231 91.8076 98.8305 91.5213 98.699 91.2061C98.5674 90.8909 98.4997 90.5531 98.4996 90.2119C98.4783 89.9739 98.5119 89.7342 98.5965 89.5106C98.5965 89.5054 98.6002 89.5003 98.6025 89.4988C98.7582 88.9558 99.0877 88.4781 99.5411 88.1377C99.9945 87.7973 100.547 87.6129 101.115 87.6124C101.809 87.6131 102.474 87.8874 102.964 88.375C103.454 88.8626 103.729 89.5235 103.729 90.2126C103.729 91.8682 102.556 93.393 101.145 94.6126Z" fill="white"/>
<path d="M140.391 96.8815C140.744 97.4715 141.259 97.9497 141.875 98.2606C142.492 98.5716 143.184 98.7027 143.872 98.6386C144.838 98.5482 145.728 98.0807 146.347 97.3387C146.966 96.5967 147.263 95.6409 147.174 94.6812C147.166 94.6106 147.153 94.5423 147.144 94.4717C146.93 95.5046 145.698 96.3831 144.14 96.5257C142.955 96.636 141.888 96.2986 141.257 95.7075C140.954 96.1214 140.65 96.5301 140.391 96.8815Z" fill="#232323"/>
<path d="M135.508 90.1436L136.771 90.2097L136.139 91.0706C136.139 91.0713 135.295 91.336 135.508 90.1436ZM132.496 90.1436H134.315C134.315 90.1436 134.249 91.6014 135.578 91.733L135.295 92.1976C135.295 92.1976 131.725 91.2706 132.496 90.1436Z" fill="#232323"/>
<path d="M101.246 102.608C101.309 102.372 99.1023 101.09 97.9006 100.777C97.3938 100.647 97.0053 101.251 96.9424 101.487C96.881 101.724 96.9224 102.441 97.4256 102.573C98.628 102.884 101.184 102.843 101.246 102.608ZM101.065 104.796C101.083 104.574 98.8818 103.788 97.7467 103.704C97.2702 103.669 97.0208 104.28 97.006 104.499C96.9905 104.725 97.1459 105.363 97.6232 105.397C98.756 105.479 101.051 105.022 101.065 104.796ZM98.5651 98.196V99.0349C98.8885 99.3569 100.065 99.7325 100.199 99.7325V98.0718C100.2 98.0725 99.3147 98.257 98.5651 98.196ZM98.1049 106.375C97.76 106.389 97.6306 106.843 97.6394 107.006C97.6424 107.167 97.8074 107.613 98.1515 107.6C98.9706 107.571 100.578 107.058 100.572 106.898C100.566 106.739 98.9247 106.347 98.1049 106.375ZM96.4156 128.508C95.0578 130.256 96.0353 131.85 96.0353 131.85C96.0353 130.634 97.433 129.068 97.7452 128.762C97.7445 128.761 97.2658 128.508 96.4156 128.508ZM100.746 132.216C100.624 132.844 100.755 133.494 101.112 134.026C101.469 134.558 102.024 134.928 102.654 135.056C102.751 135.078 102.842 135.09 102.937 135.101L103.061 135.105C103.061 135.105 101.686 133.826 102.239 132.616C101.88 132.371 101.345 132.216 100.746 132.216ZM98.2617 96.5441C96.204 95.5465 94.7396 93.0447 94.7396 90.1114C94.7396 86.9987 96.3852 84.3683 98.6465 83.5074C95.2517 84.2558 92.8565 87.2524 93.1562 90.6312C93.41 93.4947 95.5151 95.7832 98.2617 96.5441ZM120.117 89.3652C122.302 88.9565 123.042 90.8863 123.042 91.5781C123.042 94.1945 120.992 95.248 119.292 95.2583V95.2598C127.179 95.259 124.399 85.1123 120.117 89.3652ZM114.845 111.883C118.614 111.883 118.361 106.992 117.546 106.18C118.755 104.979 121.244 99.4708 121.244 98.4533C121.244 98.4533 116.269 97.3874 117.064 93.9578C117.063 93.9556 117.063 93.9541 117.063 93.9512L116.996 93.9394C115.64 95.3605 116.465 98.3247 118.615 99.0643C118.615 99.0643 117.786 102.323 115.736 104.391C113.696 104.312 110.836 104.045 108.325 103.09C112.207 105.137 116.204 108.232 114.845 111.883ZM100.122 88.3985C101.096 88.3213 101.955 89.0079 102.038 89.9328C102.118 90.8532 101.392 91.667 100.416 91.7442C99.4382 91.8222 98.5792 91.1355 98.5007 90.2114C98.5011 90.9003 98.7769 91.5609 99.2674 92.0478C99.7579 92.5348 100.423 92.8082 101.116 92.808L101.182 92.8065C101.311 93.4417 101.355 94.1173 101.147 94.6114C102.558 93.3925 103.731 91.8677 103.731 90.2107C103.832 89.8535 103.854 89.4791 103.796 89.1127C103.739 88.7463 103.603 88.3964 103.398 88.0864C103.194 87.7765 102.924 87.5137 102.609 87.3157C102.293 87.1177 101.939 86.9892 101.569 86.9386C101.199 86.8881 100.823 86.9168 100.465 87.0228C100.107 87.1288 99.7768 87.3097 99.4953 87.5532C99.2138 87.7967 98.9881 88.0973 98.8333 88.4347C98.6785 88.7721 98.5981 89.1385 98.5977 89.5093C98.8256 88.9087 99.4035 88.4566 100.122 88.3985ZM127.898 86.5084C126.192 84.8124 128.712 81.6416 129.638 81.6416C128.625 81.6416 124.237 84.4962 125.727 86.5084H127.898ZM105.938 114.695C107.29 115.108 108.65 114.605 108.966 113.573C109.283 112.539 108.439 111.372 107.085 110.957C106.901 110.903 106.713 110.863 106.523 110.839C108.479 111.947 108.456 114.17 105.938 114.695ZM102.016 100.422C102.016 100.422 103.954 101.032 106.337 102.114C105.861 101.824 105.415 101.487 105.006 101.109C103.796 99.9737 102.834 99.3539 102.016 99.0393V100.422ZM102.751 125.182C106.802 125.182 120.808 116.298 120.808 116.298C117.348 116.298 115.951 115.766 115.951 115.766C115.17 116.171 113.567 116.97 110.152 118.968C107.372 120.594 105.509 122.649 102.974 123.547C102.589 123.686 102.281 123.718 102.017 123.704C101.434 123.655 100.792 123.575 100.2 123.54V110.763C100.2 109.423 99.2155 108.884 98.5666 108.884V123.754C97.4715 124.331 96.9321 125.049 96.6361 125.718C96.6361 125.718 94.548 125.442 94.6072 129.283C94.6072 128.264 96.1285 126.482 97.1822 126.482C97.1814 125.182 101.02 125.182 102.751 125.182ZM137.688 145.754C136.662 145.754 131.953 145.952 131.532 141.878C130.492 141.655 129.275 141.612 128.001 141.792C131.33 148.103 134.943 148.153 135.888 148.202C137.358 149.833 136.865 155.338 134.74 155.229C126.959 154.815 127.244 159.52 128.117 160.482C128.117 156.936 130.542 156.095 136.673 156.095C136.672 156.092 141.681 149.722 137.688 145.754ZM139.288 160.981H138.234C138.145 162.671 139.828 163.168 139.828 163.168C139.288 162.631 138.893 161.376 139.288 160.981ZM129.441 163.36C128.994 162.914 128.624 161.129 129.274 160.479H128.115C128.018 162.308 129.441 163.36 129.441 163.36ZM152.667 104.645C152.667 99.2466 145.215 100.096 144.847 104.24C145.176 101.201 150.155 100.753 150.155 104.559C150.155 108.493 140.87 111.068 140.87 117.715C140.87 125.041 148.241 125.718 147.495 132.414C147.369 133.574 146.12 135.089 144.309 135.089C140.428 135.089 138.351 133.452 137.144 131.139C138.377 134.413 140.549 136.922 145.066 136.922C149.748 136.922 150.173 133.485 150.173 132.686C150.173 125.982 143.125 124.387 143.125 118.015C143.127 111.812 152.667 109.256 152.667 104.645ZM97.7164 130.691C97.7164 132.758 98.5644 133.559 98.5644 133.559C98.5644 132.314 99.0801 131.259 99.3746 130.97C98.9395 130.534 97.7164 130.691 97.7164 130.691ZM151.563 119.265C150.66 119.264 149.788 119.6 149.121 120.205C148.454 120.811 148.04 121.643 147.96 122.537C148.045 122.097 148.342 121.669 148.918 121.24C151.086 119.64 155.332 122.864 152.911 126.195C153.58 125.927 154.154 125.467 154.558 124.872C154.962 124.278 155.177 123.577 155.176 122.86C155.177 121.907 154.797 120.993 154.119 120.319C153.441 119.645 152.522 119.266 151.563 119.265ZM134.985 160.981H133.722C133.592 163.368 135.13 163.727 135.13 163.727C134.478 163.082 134.368 161.592 134.985 160.981ZM99.291 148.246C99.0949 148.246 98.9129 148.286 98.7397 148.353C98.438 148.576 98.1948 148.869 98.0304 149.205C97.866 149.541 97.7852 149.912 97.7948 150.286C97.8935 150.604 98.0921 150.882 98.3613 151.079C98.6306 151.276 98.9564 151.382 99.291 151.382C99.4982 151.382 99.7035 151.342 99.895 151.263C100.086 151.184 100.26 151.069 100.407 150.923C100.554 150.777 100.67 150.604 100.749 150.414C100.828 150.224 100.869 150.02 100.869 149.814C100.869 149.608 100.828 149.404 100.749 149.214C100.67 149.024 100.554 148.851 100.407 148.705C100.26 148.56 100.086 148.444 99.895 148.365C99.7035 148.287 99.4982 148.246 99.291 148.246ZM108.167 159.841H106.341C106.326 162.749 108.219 163.277 108.219 163.277C107.684 162.743 107.007 160.993 108.167 159.841ZM113.831 141.449C113.831 134.798 129.865 134.017 129.865 128.536C129.865 126.305 127.927 125.297 126.549 125.297C126.938 125.685 129.025 130.143 123.036 130.143C117.62 131.942 105.826 142.129 114.013 145.658C114.009 146.683 113.871 154.304 108.954 153.705C101.871 152.833 100.104 155.742 101.463 159.018C101.463 154.05 104.974 154.974 109.559 154.974C112.426 154.974 116.618 151.372 116.618 145.306C116.617 145.305 113.831 144.243 113.831 141.449ZM100.2 145.527V132.169C99.291 132.169 98.5658 133.562 98.5658 133.562V144.958V144.884L97.5728 144.887L97.581 146.326C98.3446 146.326 100.2 145.934 100.2 145.527ZM102.96 162.738C102.96 162.738 101.542 160.525 103.061 159.017H101.463C100.82 161.78 102.96 162.738 102.96 162.738ZM112.844 159.87H111.518C111.508 161.923 113.908 162.701 113.908 162.701C113.063 161.863 112.484 160.223 112.844 159.87Z" fill="#232323"/>
<path d="M68.2564 137.694L68.1684 137.424L68.1306 137.144C68.0011 136.183 67.7673 134.394 66.377 134.073C66.0055 133.988 65.6215 134.031 65.2108 134.199C65.3226 133.774 65.31 133.389 65.1753 133.036C64.6633 131.712 62.8482 131.729 61.873 131.741H61.5866L61.3039 131.69C60.3465 131.515 58.5603 131.184 57.827 132.398C57.6294 132.723 57.5517 133.099 57.585 133.537C57.2143 133.3 56.8399 133.192 56.4625 133.211C55.0345 133.287 54.4899 135.006 54.1976 135.933L54.1081 136.201L53.9756 136.451C53.508 137.304 52.6408 138.886 53.5775 139.957C53.8276 140.244 54.1643 140.435 54.5942 140.537C54.2546 140.816 54.0348 141.134 53.9393 141.501C53.5664 142.869 55.0463 143.915 55.838 144.476L56.0704 144.645L56.2709 144.846C56.942 145.553 58.1903 146.858 59.5037 146.305C59.8522 146.156 60.1393 145.898 60.3701 145.524C60.5352 145.932 60.7712 146.235 61.0901 146.443C62.2858 147.213 63.7435 146.14 64.5279 145.567L64.7595 145.399L65.017 145.273C65.8975 144.855 67.5372 144.081 67.4136 142.668C67.3811 142.288 67.2212 141.942 66.9356 141.608C67.3759 141.583 67.7377 141.45 68.0329 141.212C69.1451 140.321 68.5672 138.613 68.2564 137.694Z" fill="white"/>
<path d="M62.0066 138.839C69.9897 143.527 67.5317 138.371 67.3556 137.609C67.1787 136.85 67.1114 131.147 62.0066 138.839ZM61.5049 140.013C59.4856 149.001 63.6596 145.088 64.3329 144.689C65.0055 144.287 70.4433 142.461 61.5049 140.013ZM60.2233 139.903C50.9904 140.77 56.0293 143.506 56.622 144.018C57.2155 144.528 60.6414 149.104 60.2233 139.903ZM59.9332 138.655C56.2491 130.201 55.1858 135.807 54.8787 136.526C54.5724 137.241 51.2508 141.896 59.9332 138.655Z" fill="#232323"/>
<path d="M191.796 136.452L191.663 136.201L191.574 135.933C191.281 135.006 190.735 133.285 189.313 133.211C188.931 133.193 188.558 133.299 188.188 133.533C188.222 133.098 188.14 132.722 187.947 132.398C187.211 131.183 185.428 131.514 184.47 131.689L184.184 131.74H183.898C182.928 131.727 181.111 131.711 180.6 133.035C180.461 133.388 180.451 133.774 180.56 134.198C180.156 134.031 179.772 133.987 179.397 134.073C178.008 134.392 177.77 136.182 177.647 137.143L177.604 137.423L177.518 137.693C177.206 138.612 176.63 140.32 177.741 141.213C178.035 141.45 178.396 141.582 178.838 141.609C178.552 141.942 178.392 142.29 178.36 142.669C178.237 144.082 179.875 144.855 180.757 145.274L181.012 145.399L181.243 145.568C182.029 146.141 183.488 147.213 184.681 146.443C185.004 146.235 185.238 145.932 185.401 145.524C185.633 145.898 185.918 146.154 186.27 146.304C187.582 146.857 188.832 145.552 189.503 144.847L189.703 144.646L189.933 144.476C190.727 143.915 192.206 142.868 191.835 141.502C191.735 141.135 191.52 140.815 191.178 140.537C191.606 140.436 191.944 140.244 192.192 139.958C193.131 138.886 192.266 137.305 191.796 136.452Z" fill="white"/>
<path d="M184.738 138C177.786 131.907 183.478 132.634 184.26 132.565C185.039 132.5 190.522 130.799 184.738 138ZM183.77 138.839C175.787 143.527 178.239 138.371 178.42 137.608C178.595 136.85 178.66 131.147 183.77 138.839ZM184.27 140.012C186.291 149.001 182.116 145.088 181.441 144.689C180.769 144.287 175.334 142.461 184.27 140.012ZM185.55 139.903C194.782 140.77 189.747 143.506 189.152 144.018C188.563 144.528 185.132 149.104 185.55 139.903ZM185.837 138.655C189.523 130.201 190.585 135.807 190.892 136.526C191.198 137.241 194.52 141.896 185.837 138.655Z" fill="#232323"/>
<path d="M187.631 138.919C187.622 138.845 187.598 138.781 187.588 138.709C188.329 138.169 189.13 137.589 189.13 137.589L189.053 137.418L187.223 137.737C187.001 137.371 186.696 137.062 186.332 136.834C185.969 136.606 185.557 136.465 185.129 136.423C184.942 135.863 184.756 135.303 184.571 134.742L184.383 134.758C184.383 134.758 184.258 135.641 184.13 136.507C183.586 136.653 183.1 136.961 182.738 137.389C182.547 137.622 182.396 137.884 182.288 138.164C181.384 138.164 180.431 138.168 180.431 138.168L180.391 138.353C180.391 138.353 181.279 138.783 182.101 139.183C182.104 139.258 182.094 139.331 182.101 139.406C182.163 140.117 182.503 140.776 183.048 141.241L182.436 143.139L182.595 143.234C182.595 143.234 183.344 142.464 184.011 141.784C184.36 141.896 184.73 141.942 185.106 141.909C185.483 141.88 185.841 141.768 186.167 141.6C186.94 142.153 187.812 142.779 187.812 142.779L187.954 142.656C187.954 142.656 187.459 141.728 187.019 140.897C187.474 140.342 187.693 139.633 187.631 138.919Z" fill="white"/>
<path d="M184.723 137.539C184.508 137.556 184.298 137.615 184.107 137.714C183.916 137.813 183.746 137.949 183.609 138.114C183.436 138.32 183.316 138.564 183.261 138.826C183.205 139.089 183.216 139.36 183.291 139.618C183.367 139.875 183.505 140.11 183.694 140.301C183.883 140.493 184.116 140.635 184.373 140.715C184.63 140.796 184.904 140.812 185.169 140.762C185.434 140.713 185.683 140.599 185.893 140.431C186.103 140.263 186.268 140.046 186.374 139.8C186.48 139.553 186.523 139.285 186.499 139.018C186.48 138.805 186.42 138.597 186.32 138.408C186.221 138.218 186.085 138.05 185.92 137.912C185.755 137.775 185.564 137.671 185.359 137.607C185.153 137.543 184.937 137.52 184.723 137.539ZM61.0356 138C67.9888 131.907 62.2942 132.634 61.5136 132.565C60.7315 132.5 55.25 130.799 61.0356 138Z" fill="#232323"/>
<path d="M63.6683 139.179C64.4955 138.78 65.3805 138.349 65.3805 138.349L65.3383 138.164C65.3383 138.164 64.3868 138.16 63.4818 138.16C63.3751 137.88 63.2237 137.618 63.0334 137.385C62.6711 136.956 62.185 136.649 61.6409 136.503L61.39 134.754L61.1991 134.738C61.1991 134.738 60.9224 135.585 60.6479 136.419C60.2192 136.46 59.8062 136.601 59.4416 136.829C59.0771 137.057 58.7711 137.366 58.5479 137.732L56.7158 137.414L56.6426 137.586C56.6426 137.586 57.4417 138.165 58.1824 138.705C58.1706 138.778 58.1491 138.843 58.141 138.915C58.0791 139.628 58.3 140.337 58.7566 140.891C58.3119 141.722 57.8176 142.65 57.8176 142.65L57.9634 142.772C57.9634 142.772 58.8343 142.145 59.6068 141.593C59.9309 141.761 60.289 141.87 60.6664 141.902C61.036 141.935 61.4084 141.892 61.7607 141.776L63.174 143.227L63.339 143.132L62.7234 141.237C63.2672 140.77 63.6068 140.111 63.6705 139.399C63.6801 139.327 63.6683 139.254 63.6683 139.179Z" fill="white"/>
<path d="M62.165 138.114C62.0281 137.949 61.8587 137.812 61.6672 137.713C61.4756 137.615 61.2659 137.555 61.0506 137.54C60.8363 137.521 60.6204 137.544 60.4152 137.608C60.21 137.672 60.0195 137.776 59.8546 137.913C59.6897 138.05 59.5537 138.219 59.4544 138.408C59.355 138.598 59.2942 138.805 59.2755 139.018C59.2385 139.455 59.3739 139.872 59.6529 140.208C59.8621 140.454 60.1398 140.633 60.451 140.722C60.7622 140.811 61.093 140.807 61.4019 140.71C61.7108 140.614 61.984 140.428 62.187 140.177C62.3901 139.926 62.514 139.622 62.5431 139.301C62.5797 138.871 62.4438 138.445 62.165 138.114Z" fill="#232323"/>
<path d="M62.0527 99.6695C58.1666 98.9873 54.4447 101.579 53.758 105.441C53.0721 109.305 55.6782 113.002 59.5651 113.684C63.4549 114.366 67.1783 111.775 67.8627 107.911C68.5509 104.05 65.9433 100.353 62.0527 99.6695Z" fill="white"/>
<path d="M63.6738 105.051C63.5713 104.987 63.4696 104.921 63.3689 104.854C62.7814 104.467 61.6293 103.711 61.5975 103.688C61.4384 103.579 61.283 103.475 61.1299 103.373C60.6729 103.064 60.206 102.769 59.7299 102.489C59.5698 102.398 59.4072 102.311 59.2423 102.229C58.5578 101.885 57.9015 101.678 57.1275 101.61C56.5277 102.042 56.0084 102.574 55.5929 103.183C57.3732 103.821 59.1121 104.845 62.7318 107.078C62.9398 106.605 63.6323 105.14 63.6738 105.051ZM62.0045 108.865C62.0777 108.686 62.3952 107.886 62.5254 107.578C58.8153 105.288 57.0928 104.275 55.3088 103.648C55.0282 104.152 54.8198 104.693 54.6895 105.255C55.7076 106.644 58.4372 108.008 62.0045 108.865ZM61.6027 103.047C62.9916 102.231 64.5706 102.453 65.7885 102.866C65.3337 102.277 64.777 101.773 64.1444 101.378C62.993 101.149 61.4044 101.115 60.1391 102.114C60.5993 102.382 61.0744 102.695 61.6027 103.047Z" fill="#232323"/>
<path d="M56.061 109.64C56.2467 109.767 56.4376 109.887 56.6389 110.001C57.0488 110.225 57.4905 110.419 57.9493 110.585C58.1432 110.659 58.34 110.725 58.539 110.789C59.2338 111.017 60.8321 111.429 60.9505 111.456L61.7999 109.366C59.034 108.685 56.0055 107.491 54.567 105.941C54.4795 106.64 54.5131 107.349 54.6662 108.038C54.9703 108.696 55.4572 109.219 56.061 109.64ZM61.0437 112.031L60.4666 111.884C59.8947 111.742 59.3263 111.586 58.7617 111.417C59.0496 112.027 59.5017 112.502 59.9841 112.869C60.6147 112.953 61.2544 112.941 61.8813 112.833C61.4396 112.49 61.0437 112.031 61.0437 112.031ZM66.8285 104.862C66.6987 104.436 66.5241 104.025 66.3076 103.636C65.2162 103.154 63.5565 102.681 62.1063 103.386L64.1056 104.699C64.5229 104.662 64.9069 104.65 65.2584 104.659C65.45 104.662 65.6284 104.672 65.7978 104.689C66.1907 104.724 66.5244 104.786 66.8285 104.862ZM65.8045 105.226C65.746 108.492 64.1958 111.011 62.8603 112.588C64.9506 111.866 66.5992 110.076 67.0106 107.764C67.1438 107 67.1333 106.218 66.9795 105.457C66.5968 105.34 66.2031 105.263 65.8045 105.226ZM59.64 101.836C60.5761 101.016 61.6815 100.739 62.7019 100.716C62.4411 100.631 62.1746 100.564 61.9043 100.517C60.5065 100.271 59.0662 100.505 57.8198 101.18C58.4628 101.306 59.0444 101.53 59.64 101.836Z" fill="#232323"/>
<path d="M64.1838 105.229C63.708 106.214 63.4283 106.817 63.1959 107.365C63.1242 107.531 63.0554 107.692 62.9851 107.86C62.8741 108.135 62.5322 108.99 62.5322 108.99L62.3295 109.493L61.446 111.666C61.6902 111.988 61.9854 112.25 62.2755 112.454C63.5874 110.967 65.2212 108.467 65.2707 105.195C64.9392 105.183 64.5759 105.195 64.1838 105.229ZM58.1 111.202C57.6578 111.054 57.2251 110.879 56.8044 110.678C56.9597 111.154 57.1832 111.578 57.4074 111.94C57.8788 112.241 58.396 112.477 58.948 112.646C58.5913 112.246 58.2828 111.772 58.1 111.202ZM56.1562 110.327C55.8622 110.152 55.5833 109.953 55.3223 109.733C55.6145 110.251 55.9792 110.725 56.4055 111.141C56.3001 110.877 56.2167 110.605 56.1562 110.327Z" fill="#232323"/>
<path d="M177.135 107.911C177.822 111.774 181.542 114.365 185.43 113.684C189.319 113.002 191.923 109.304 191.241 105.441C190.554 101.58 186.833 98.9884 182.944 99.6691C179.055 100.352 176.449 104.049 177.135 107.911Z" fill="white"/>
<path d="M181.322 105.051L181.629 104.854C182.377 104.363 183.123 103.869 183.868 103.373C184.324 103.062 184.791 102.767 185.268 102.489C185.434 102.395 185.596 102.307 185.754 102.229C186.437 101.885 187.096 101.678 187.869 101.61C188.469 102.04 188.987 102.573 189.399 103.183C187.62 103.821 185.886 104.845 182.261 107.078C182.054 106.605 181.365 105.14 181.322 105.051ZM182.992 108.865C182.918 108.686 182.598 107.886 182.475 107.578C186.178 105.288 187.906 104.275 189.689 103.648C189.964 104.142 190.173 104.68 190.309 105.255C189.289 106.644 186.558 108.008 182.992 108.865ZM183.394 103.047C182.003 102.231 180.426 102.453 179.207 102.866C179.663 102.277 180.221 101.773 180.855 101.378C182.005 101.149 183.592 101.115 184.856 102.114C184.359 102.411 183.872 102.722 183.394 103.047Z" fill="#232323"/>
<path d="M188.934 109.64C188.749 109.77 188.556 109.89 188.358 110C187.95 110.225 187.509 110.419 187.051 110.585C186.855 110.659 186.657 110.725 186.459 110.789C185.766 111.017 184.168 111.429 184.048 111.456C184.02 111.395 183.42 109.925 183.198 109.366C185.963 108.685 188.989 107.491 190.433 105.941C190.518 106.641 190.483 107.349 190.331 108.038C190.028 108.696 189.542 109.219 188.934 109.64ZM183.956 112.031L184.529 111.884C185.103 111.742 185.673 111.586 186.24 111.417C185.946 112.027 185.497 112.502 185.016 112.869C184.386 112.953 183.746 112.941 183.12 112.833C183.558 112.49 183.956 112.031 183.956 112.031ZM178.17 104.862C178.299 104.435 178.475 104.024 178.694 103.636C179.782 103.154 181.439 102.681 182.89 103.386L180.892 104.698C180.509 104.664 180.123 104.65 179.738 104.659C179.558 104.661 179.377 104.671 179.198 104.689C178.851 104.719 178.508 104.777 178.17 104.862ZM179.195 105.226C179.252 108.492 180.806 111.011 182.142 112.588C180.045 111.866 178.395 110.076 177.988 107.764C177.853 107 177.864 106.217 178.021 105.457C178.403 105.34 178.796 105.263 179.195 105.226ZM185.36 101.836C184.424 101.016 183.315 100.739 182.297 100.716C182.558 100.631 182.825 100.564 183.096 100.517C184.493 100.271 185.932 100.505 187.178 101.18C186.537 101.306 185.955 101.53 185.36 101.836Z" fill="#232323"/>
<path d="M180.815 105.229C181.16 105.934 181.491 106.647 181.807 107.365L182.011 107.86C182.124 108.135 182.466 108.99 182.466 108.99L182.667 109.493L183.552 111.666C183.318 111.969 183.038 112.235 182.723 112.454C181.411 110.967 179.775 108.467 179.729 105.195C180.059 105.183 180.423 105.195 180.815 105.229ZM186.898 111.202C187.34 111.053 187.773 110.879 188.194 110.678C188.043 111.121 187.839 111.544 187.588 111.94C187.11 112.243 186.593 112.48 186.051 112.646C186.406 112.246 186.715 111.772 186.898 111.202ZM188.843 110.327C189.136 110.151 189.414 109.952 189.675 109.733C189.384 110.251 189.019 110.725 188.591 111.141C188.696 110.876 188.78 110.604 188.843 110.327Z" fill="#232323"/>
</g>
<defs>
<clipPath id="clip0_99_16">
<rect width="155" height="154" fill="white" transform="translate(45 46)"/>
</clipPath>
</defs>
</svg>
