<svg width="245" height="245" viewBox="0 0 245 245" fill="none" xmlns="http://www.w3.org/2000/svg">
<g clip-path="url(#clip0_99_20)">
<path d="M57.695 135.271C55.9632 135.271 54.4215 134.923 53.07 134.226C51.7183 133.508 50.6624 132.526 49.9021 131.281C49.1419 130.014 48.7617 128.578 48.7617 126.973C48.7617 125.347 49.1419 123.911 49.9021 122.666C50.6624 121.42 51.7078 120.449 53.0383 119.752C54.3687 119.034 55.8998 118.675 57.6316 118.675C59.2999 118.675 60.831 119.108 62.2249 119.973C63.6187 120.839 64.6113 122.095 65.2027 123.742L59.754 125.516C59.5851 125.094 59.2683 124.745 58.8037 124.471C58.3602 124.196 57.8639 124.059 57.3148 124.059C56.7868 124.059 56.3222 124.186 55.9209 124.439C55.5197 124.671 55.2029 125.009 54.9706 125.453C54.7383 125.896 54.6222 126.403 54.6222 126.973C54.6222 127.543 54.7383 128.05 54.9706 128.493C55.2029 128.916 55.5302 129.253 55.9526 129.507C56.375 129.76 56.8502 129.887 57.3782 129.887C57.9061 129.887 58.3919 129.75 58.8354 129.475C59.2789 129.201 59.5957 128.852 59.7857 128.43L65.2343 130.172C64.643 131.819 63.6504 133.086 62.2566 133.973C60.8838 134.838 59.3633 135.271 57.695 135.271Z" fill="white"/>
<path d="M67.0332 134.892V112.721H72.7353V134.892H67.0332ZM76.9484 134.892V126.783H82.6505V134.892H76.9484ZM76.9484 126.783C76.9484 126.171 76.8745 125.675 76.7266 125.295C76.5999 124.894 76.3993 124.587 76.1248 124.376C75.8713 124.165 75.544 124.049 75.1427 124.028C74.3402 123.986 73.7384 124.165 73.3371 124.566C72.9358 124.967 72.7353 125.601 72.7353 126.467H71.183C71.183 124.799 71.4364 123.384 71.9433 122.223C72.4501 121.061 73.1365 120.185 74.0023 119.594C74.8682 118.981 75.8502 118.675 76.9484 118.675C78.2366 118.675 79.3031 118.939 80.1479 119.467C80.9926 119.974 81.6156 120.755 82.0169 121.811C82.4393 122.866 82.6505 124.207 82.6505 125.833V126.783H76.9484Z" fill="white"/>
<path d="M93.3594 135.271C91.6486 135.271 90.128 134.923 88.7975 134.226C87.4671 133.529 86.4217 132.558 85.6615 131.312C84.9223 130.066 84.5527 128.62 84.5527 126.973C84.5527 125.326 84.9223 123.88 85.6615 122.634C86.4006 121.388 87.4248 120.417 88.7342 119.72C90.0435 119.023 91.5535 118.675 93.2644 118.675C94.89 118.675 96.3158 119.034 97.541 119.752C98.7864 120.449 99.7581 121.515 100.455 122.951C101.173 124.386 101.532 126.202 101.532 128.398H89.6845L90.3814 127.575C90.3814 128.251 90.4871 128.842 90.6982 129.349C90.9094 129.855 91.2262 130.246 91.6486 130.52C92.071 130.795 92.5883 130.932 93.201 130.932C93.8981 130.932 94.4992 130.774 95.0062 130.457C95.5343 130.119 95.8617 129.707 95.9884 129.222L100.994 130.774C100.614 131.872 100.001 132.759 99.1561 133.434C98.3323 134.089 97.4037 134.564 96.3687 134.86C95.3547 135.134 94.3514 135.271 93.3594 135.271ZM90.4131 125.833L89.8113 124.914H96.3687L95.7983 125.833C95.7983 125.009 95.661 124.365 95.3864 123.901C95.1118 123.436 94.7633 123.109 94.3408 122.919C93.9403 122.708 93.5284 122.602 93.1059 122.602C92.6623 122.602 92.2293 122.708 91.8069 122.919C91.4057 123.109 91.0678 123.436 90.7933 123.901C90.5399 124.365 90.4131 125.009 90.4131 125.833Z" fill="white"/>
<path d="M109.275 135.271C108.219 135.271 107.237 135.124 106.329 134.828C105.421 134.532 104.639 134.121 103.985 133.593C103.351 133.044 102.908 132.389 102.654 131.629L107.184 129.855C107.417 130.425 107.744 130.795 108.166 130.964C108.588 131.112 108.958 131.186 109.275 131.186C109.613 131.186 109.887 131.112 110.099 130.964C110.31 130.816 110.415 130.605 110.415 130.33C110.415 130.035 110.268 129.792 109.972 129.602C109.676 129.391 109.222 129.211 108.609 129.063L107.311 128.747C105.896 128.388 104.829 127.765 104.112 126.878C103.394 125.991 103.035 124.957 103.035 123.774C103.035 122.148 103.626 120.892 104.808 120.005C106.012 119.118 107.639 118.675 109.687 118.675C110.933 118.675 111.978 118.833 112.823 119.15C113.689 119.446 114.396 119.868 114.946 120.417C115.495 120.966 115.916 121.599 116.212 122.317L111.809 123.996C111.662 123.574 111.408 123.267 111.049 123.077C110.711 122.887 110.289 122.792 109.782 122.792C109.423 122.792 109.137 122.877 108.926 123.046C108.736 123.215 108.641 123.415 108.641 123.647C108.641 123.901 108.789 124.123 109.085 124.313C109.402 124.481 109.877 124.65 110.511 124.819L111.809 125.136C112.78 125.368 113.625 125.727 114.344 126.213C115.062 126.677 115.621 127.258 116.022 127.955C116.423 128.652 116.624 129.454 116.624 130.362C116.624 131.397 116.318 132.283 115.705 133.023C115.093 133.74 114.238 134.3 113.14 134.701C112.041 135.081 110.753 135.271 109.275 135.271Z" fill="white"/>
<path d="M118.912 134.892V112.721H124.615V134.892H118.912ZM128.828 134.892V126.783H134.529V134.892H128.828ZM128.828 126.783C128.828 126.171 128.754 125.675 128.606 125.295C128.479 124.894 128.279 124.587 128.004 124.376C127.751 124.165 127.423 124.049 127.022 124.028C126.219 123.986 125.617 124.165 125.217 124.566C124.815 124.967 124.615 125.601 124.615 126.467H123.062C123.062 124.799 123.315 123.384 123.822 122.223C124.329 121.061 125.016 120.185 125.881 119.594C126.747 118.981 127.729 118.675 128.828 118.675C130.116 118.675 131.182 118.939 132.027 119.467C132.872 119.974 133.494 120.755 133.896 121.811C134.318 122.866 134.529 124.207 134.529 125.833V126.783H128.828Z" fill="white"/>
<path d="M137.541 134.891V119.055H143.244V134.891H137.541ZM140.392 117.535C139.548 117.535 138.809 117.218 138.175 116.585C137.541 115.951 137.225 115.212 137.225 114.367C137.225 113.502 137.541 112.763 138.175 112.15C138.809 111.517 139.548 111.2 140.392 111.2C141.258 111.2 141.998 111.517 142.61 112.15C143.244 112.763 143.561 113.502 143.561 114.367C143.561 115.212 143.244 115.951 142.61 116.585C141.998 117.218 141.258 117.535 140.392 117.535Z" fill="white"/>
<path d="M150.784 126.814C150.784 125.104 151.122 123.668 151.798 122.507C152.495 121.346 153.371 120.469 154.427 119.878C155.483 119.287 156.58 118.991 157.721 118.991V124.566C156.728 124.566 155.8 124.661 154.934 124.851C154.089 125.02 153.402 125.284 152.874 125.643C152.368 126.001 152.115 126.434 152.115 126.941L150.784 126.814ZM146.412 134.891V119.055H152.115V134.891H146.412Z" fill="white"/>
<path d="M167.636 135.271C165.926 135.271 164.405 134.923 163.074 134.226C161.744 133.529 160.699 132.558 159.938 131.312C159.2 130.066 158.83 128.62 158.83 126.973C158.83 125.326 159.2 123.88 159.938 122.634C160.678 121.388 161.702 120.417 163.012 119.72C164.32 119.023 165.831 118.675 167.541 118.675C169.167 118.675 170.593 119.034 171.818 119.752C173.064 120.449 174.036 121.515 174.732 122.951C175.45 124.386 175.809 126.202 175.809 128.398H163.961L164.658 127.575C164.658 128.251 164.764 128.842 164.975 129.349C165.187 129.855 165.503 130.246 165.926 130.52C166.348 130.795 166.865 130.932 167.478 130.932C168.175 130.932 168.777 130.774 169.284 130.457C169.812 130.119 170.139 129.707 170.266 129.222L175.27 130.774C174.89 131.872 174.278 132.759 173.434 133.434C172.61 134.089 171.68 134.564 170.645 134.86C169.632 135.134 168.629 135.271 167.636 135.271ZM164.69 125.833L164.088 124.914H170.645L170.076 125.833C170.076 125.009 169.938 124.365 169.664 123.901C169.389 123.436 169.041 123.109 168.618 122.919C168.217 122.708 167.805 122.602 167.383 122.602C166.939 122.602 166.507 122.708 166.084 122.919C165.683 123.109 165.345 123.436 165.07 123.901C164.817 124.365 164.69 125.009 164.69 125.833Z" fill="white"/>
<path d="M178.514 141.226V119.055H180.889L181.048 121.969V141.226H178.514ZM186.402 135.271C185.071 135.271 183.899 134.923 182.885 134.226C181.893 133.529 181.122 132.558 180.573 131.312C180.024 130.045 179.749 128.599 179.749 126.973C179.749 125.326 180.024 123.88 180.573 122.634C181.122 121.388 181.893 120.417 182.885 119.72C183.899 119.023 185.071 118.675 186.402 118.675C187.817 118.675 189.062 119.023 190.14 119.72C191.217 120.417 192.05 121.388 192.642 122.634C193.254 123.88 193.561 125.326 193.561 126.973C193.561 128.599 193.254 130.045 192.642 131.312C192.05 132.558 191.217 133.529 190.14 134.226C189.062 134.923 187.817 135.271 186.402 135.271ZM185.831 132.959C186.824 132.959 187.701 132.706 188.46 132.199C189.242 131.692 189.854 130.985 190.298 130.077C190.763 129.169 190.995 128.134 190.995 126.973C190.995 125.812 190.773 124.777 190.33 123.869C189.907 122.961 189.305 122.254 188.524 121.747C187.743 121.24 186.856 120.987 185.863 120.987C184.933 120.987 184.1 121.24 183.361 121.747C182.642 122.254 182.072 122.961 181.65 123.869C181.248 124.777 181.048 125.812 181.048 126.973C181.048 128.134 181.248 129.169 181.65 130.077C182.072 130.985 182.642 131.692 183.361 132.199C184.079 132.706 184.902 132.959 185.831 132.959Z" fill="white"/>
<path d="M197.23 134.891V119.055H199.764V134.891H197.23ZM198.529 115.381C198.106 115.381 197.737 115.223 197.421 114.906C197.104 114.589 196.945 114.22 196.945 113.798C196.945 113.354 197.104 112.985 197.421 112.689C197.737 112.372 198.106 112.214 198.529 112.214C198.972 112.214 199.342 112.372 199.638 112.689C199.955 112.985 200.113 113.354 200.113 113.798C200.113 114.22 199.955 114.589 199.638 114.906C199.342 115.223 198.972 115.381 198.529 115.381Z" fill="white"/>
<path d="M202.533 134.891L208.996 125.801L213.558 119.055H216.567L210.548 127.606L205.607 134.891H202.533ZM213.906 134.891L209.028 127.606L202.945 119.055H205.955L210.548 125.801L216.947 134.891H213.906Z" fill="white"/>
<path d="M226.253 135.271C224.712 135.271 223.349 134.923 222.166 134.226C220.984 133.508 220.055 132.526 219.379 131.281C218.724 130.035 218.396 128.599 218.396 126.973C218.396 125.347 218.724 123.911 219.379 122.666C220.055 121.42 220.974 120.449 222.134 119.752C223.317 119.034 224.669 118.675 226.189 118.675C227.668 118.675 228.946 119.044 230.022 119.783C231.1 120.501 231.934 121.515 232.526 122.824C233.116 124.133 233.412 125.675 233.412 127.448H220.329L220.963 126.91C220.963 128.177 221.185 129.264 221.628 130.172C222.092 131.08 222.737 131.777 223.56 132.262C224.384 132.727 225.324 132.959 226.379 132.959C227.499 132.959 228.439 132.695 229.199 132.167C229.98 131.639 230.582 130.943 231.005 130.077L233.19 131.186C232.79 132.009 232.251 132.727 231.575 133.339C230.92 133.952 230.139 134.427 229.231 134.765C228.344 135.102 227.351 135.271 226.253 135.271ZM221.121 125.833L220.456 125.326H231.385L230.719 125.864C230.719 124.851 230.519 123.975 230.117 123.236C229.716 122.497 229.178 121.927 228.502 121.525C227.826 121.124 227.045 120.924 226.158 120.924C225.292 120.924 224.469 121.124 223.687 121.525C222.927 121.927 222.303 122.497 221.818 123.236C221.354 123.954 221.121 124.819 221.121 125.833Z" fill="white"/>
<path d="M236.607 134.892V112.721H239.141V134.892H236.607Z" fill="white"/>
<path fill-rule="evenodd" clip-rule="evenodd" d="M30.2312 98H17.6157C17.6158 98 17.6156 98 17.6157 98C10.6484 98 5 103.647 5 110.614C5 117.58 10.6481 123.227 17.6155 123.227C17.639 123.227 17.6623 123.227 17.6857 123.227H30.2312V98ZM17.6153 140.044H30.2307V135.84C37.1981 135.84 42.8464 130.193 42.8464 123.227C42.8464 116.261 37.1983 110.613 30.231 110.613C30.2311 110.613 30.2309 110.613 30.231 110.613L17.6153 110.613V140.044Z" fill="white"/>
</g>
<defs>
<clipPath id="clip0_99_20">
<rect width="235" height="44" fill="white" transform="translate(5 98)"/>
</clipPath>
</defs>
</svg>
