<?xml version="1.0" encoding="utf-8"?>
<!-- Generator: Adobe Illustrator 25.2.1, SVG Export Plug-In . SVG Version: 6.00 Build 0)  -->
<svg version="1.1" id="Layer_1" xmlns="http://www.w3.org/2000/svg" xmlns:xlink="http://www.w3.org/1999/xlink" x="0px" y="0px"
	 viewBox="0 0 512 512" style="enable-background:new 0 0 512 512;" xml:space="preserve">
<style type="text/css">
	.st0{fill:#FFFFFF;}
</style>
<path class="st0" d="M0,256c0,141.4,114.6,256,256,256s256-114.6,256-256S397.4,0,256,0S0,114.6,0,256z M281,385
	c-9.4,9.4-24.6,9.4-33.9,0s-9.4-24.6,0-33.9l71-71L136,280c-13.3,0-24-10.7-24-24s10.7-24,24-24h182.1l-71-71
	c-9.4-9.4-9.4-24.6,0-33.9s24.6-9.4,33.9,0L393,239c9.4,9.4,9.4,24.6,0,33.9L281,385z"/>
</svg>
