<svg width="245" height="245" viewBox="0 0 245 245" fill="none" xmlns="http://www.w3.org/2000/svg">
<g clip-path="url(#clip0_99_19)">
<path d="M122.519 45C79.7851 45 45 79.7851 45 122.519C45 165.253 79.7851 200.038 122.519 200.038C165.253 200.038 200.038 165.253 200.038 122.519C200 79.7851 165.253 45 122.519 45Z" fill="white"/>
<path d="M191.939 122.519C191.939 84.1763 160.863 53.1006 122.482 53.1006C84.1389 53.1006 53.0254 84.1763 53.0254 122.519C53.0254 160.862 84.1389 191.976 122.482 191.976C160.863 191.938 191.939 160.862 191.939 122.519Z" fill="#232323"/>
<path d="M166.729 122.519C166.729 98.1047 146.933 78.3086 122.519 78.3086C98.1047 78.3086 78.3086 98.1047 78.3086 122.519C78.3086 146.933 98.1047 166.729 122.519 166.729C146.933 166.729 166.729 146.933 166.729 122.519Z" fill="white"/>
<path d="M122.518 170.212C96.212 170.212 74.8262 148.788 74.8262 122.481C74.8262 96.1749 96.212 74.7891 122.518 74.7891C148.825 74.7891 170.249 96.1749 170.249 122.481C170.211 148.826 148.825 170.212 122.518 170.212ZM122.518 77.4765C97.6882 77.4765 77.4757 97.6889 77.4757 122.519C77.4757 147.35 97.6882 167.562 122.518 167.562C147.349 167.562 167.561 147.35 167.561 122.519C167.561 97.6889 147.349 77.4765 122.518 77.4765Z" fill="white"/>
<path d="M122.519 196.859C81.5265 196.859 48.1797 163.512 48.1797 122.519C48.1797 81.5265 81.5265 48.1797 122.519 48.1797C163.512 48.1797 196.859 81.5265 196.859 122.519C196.821 163.512 163.512 196.859 122.519 196.859ZM122.519 49.7694C82.397 49.7694 49.8073 82.397 49.8073 122.519C49.8073 162.603 82.4349 195.231 122.519 195.231C162.603 195.231 195.231 162.603 195.231 122.519C195.231 82.397 162.603 49.7694 122.519 49.7694Z" fill="#232323"/>
<path d="M60.4804 120.816L59.2313 121.119L58.8906 119.832L60.9724 119.227H62.0323V126.494H60.4804V120.816Z" fill="white"/>
<path d="M63.8496 124.487C63.8496 123.579 64.266 123.087 65.023 122.746C64.4552 122.406 64.1146 121.951 64.1146 121.156V121.119C64.1146 120.021 65.1365 119.15 66.6506 119.15C68.1646 119.15 69.1866 120.021 69.1866 121.119V121.156C69.1866 121.914 68.8459 122.406 68.2782 122.746C68.9974 123.125 69.4516 123.579 69.4516 124.45V124.487C69.4516 125.812 68.2782 126.607 66.6884 126.607C65.0987 126.607 63.8496 125.736 63.8496 124.487ZM67.8618 124.374C67.8618 123.806 67.3319 123.465 66.6127 123.465C65.8936 123.465 65.3637 123.806 65.3637 124.336C65.3637 124.828 65.8179 125.244 66.6127 125.244C67.4076 125.244 67.8618 124.866 67.8618 124.374ZM67.6726 121.346C67.6726 120.892 67.2941 120.475 66.6506 120.475C66.0071 120.475 65.6286 120.854 65.6286 121.308V121.346C65.6286 121.838 66.045 122.216 66.6506 122.216C67.2562 122.216 67.6726 121.838 67.6726 121.346Z" fill="white"/>
<path d="M178.122 123.503C177.744 123.806 177.29 123.995 176.646 123.995C175.094 123.995 174.072 123.125 174.072 121.686V121.648C174.072 120.21 175.208 119.112 176.835 119.112C177.82 119.112 178.349 119.339 178.917 119.907C179.447 120.437 179.75 121.194 179.75 122.632V122.67C179.75 125.017 178.652 126.607 176.608 126.607C175.548 126.607 174.867 126.266 174.224 125.736L175.056 124.525C175.586 124.941 176.041 125.131 176.646 125.131C177.744 125.131 178.047 124.109 178.122 123.503ZM178.16 121.61C178.16 120.967 177.706 120.475 176.911 120.475C176.116 120.475 175.7 120.929 175.7 121.573V121.61C175.7 122.254 176.192 122.708 176.949 122.708C177.706 122.67 178.16 122.216 178.16 121.61Z" fill="white"/>
<path d="M184.822 124.904H181.302L181.037 123.768L184.974 119.188H186.298V123.617H187.283V124.904H186.298V126.456H184.784V124.904H184.822ZM184.822 123.617V121.384L182.892 123.617H184.822Z" fill="white"/>
<path d="M122.519 167.562C97.689 167.562 77.4766 147.35 77.4766 122.519C77.4766 97.689 97.689 77.4766 122.519 77.4766C147.35 77.4766 167.562 97.689 167.562 122.519C167.562 147.35 147.35 167.562 122.519 167.562ZM122.519 79.142C98.5974 79.142 79.142 98.5974 79.142 122.519C79.142 146.441 98.5974 165.897 122.519 165.897C146.441 165.897 165.897 146.441 165.897 122.519C165.897 98.5974 146.441 79.142 122.519 79.142Z" fill="#232323"/>
<path fill-rule="evenodd" clip-rule="evenodd" d="M121.687 83.7217C99.4682 83.7217 86.6367 86.6362 86.6367 86.6362C86.6367 86.6362 81.5268 106.129 84.4413 131.073C85.6526 141.558 94.169 164.079 122.406 171.801C150.643 164.117 159.159 141.558 160.371 131.073C163.285 106.092 158.175 86.6362 158.175 86.6362C158.175 86.6362 145.344 83.7217 123.125 83.7217H121.687Z" fill="white"/>
<path fill-rule="evenodd" clip-rule="evenodd" d="M156.471 125.282C156.206 132.852 155.033 155.487 122.367 167.94C89.967 155.828 88.2637 132.398 88.2637 125.282H156.471Z" fill="#232323"/>
<path fill-rule="evenodd" clip-rule="evenodd" d="M155.487 124.033C156.357 105.259 153.178 90.0431 153.178 90.0431C153.178 90.0431 140.99 87.6963 122.405 87.6963C103.782 87.6963 91.4049 90.2702 91.4049 90.2702C91.4049 90.2702 88.0361 105.562 88.9445 123.995H155.487V124.033Z" fill="white"/>
<path d="M123.389 167.259L88.9065 125.585C87.6574 134.177 94.622 159.499 123.389 167.259Z" fill="white"/>
<path d="M99.2012 125.32L131.11 163.815C134.327 162.263 136.712 160.749 138.983 158.932L111.124 125.32H99.2012Z" fill="white"/>
<path d="M121.346 125.358L144.927 153.785C147.236 151.173 149.204 148.788 150.605 146.29L133.269 125.358H121.346Z" fill="white"/>
<path d="M155.903 125.358L144.131 125.32L154.01 137.243C155.713 133.572 155.903 127.402 155.903 125.358Z" fill="white"/>
<path d="M136.297 140.952C136.222 140.687 135.995 140.46 135.73 140.347L133.761 139.666C133.572 139.59 133.421 139.628 133.231 139.666C133.08 138.984 132.701 138.379 132.134 137.962C132.058 137.924 131.982 137.849 131.907 137.811C131.793 137.735 131.642 137.659 131.49 137.584C131.225 137.47 130.96 137.394 130.733 137.319C130.165 137.129 129.598 136.94 128.879 136.448C128.197 135.956 127.894 135.502 127.592 135.086C127.516 134.972 127.44 134.896 127.365 134.783C127.175 134.48 126.91 134.215 126.645 133.988C126.153 133.647 125.548 133.458 124.942 133.458C124.791 133.458 124.677 133.496 124.526 133.496C124.526 133.496 124.526 133.496 124.526 133.458C124.564 133.231 124.488 132.966 124.374 132.777L123.163 131.149C122.974 130.922 122.709 130.771 122.406 130.771C122.103 130.771 121.838 130.884 121.687 131.111L120.4 132.739C120.249 132.928 120.173 133.193 120.211 133.458C120.097 133.458 120.021 133.42 119.908 133.42C119.302 133.42 118.697 133.609 118.205 133.95C118.129 133.988 118.053 134.064 118.015 134.101C117.902 134.215 117.788 134.291 117.675 134.442C117.485 134.669 117.334 134.858 117.183 135.086C116.804 135.578 116.501 136.032 115.744 136.562C115.063 137.054 114.533 137.205 114.041 137.357C113.927 137.394 113.814 137.432 113.7 137.47C113.36 137.546 113.019 137.697 112.716 137.924C112.111 138.341 111.732 138.984 111.581 139.703C111.391 139.628 111.164 139.628 110.937 139.666L109.007 140.309C108.742 140.385 108.515 140.612 108.401 140.877C108.325 141.142 108.363 141.444 108.515 141.672L109.688 143.375C109.839 143.564 110.029 143.678 110.256 143.753C109.953 144.397 109.877 145.192 110.104 145.873C110.142 145.949 110.18 146.024 110.18 146.1C110.218 146.252 110.294 146.403 110.407 146.554C110.559 146.781 110.71 147.009 110.861 147.198C111.24 147.69 111.581 148.144 111.846 149.015C112.111 149.81 112.073 150.339 112.073 150.869C112.073 150.983 112.073 151.134 112.073 151.248C112.035 151.626 112.073 151.967 112.224 152.308C112.451 152.989 112.943 153.557 113.511 153.897C113.435 154.049 113.36 154.2 113.397 154.352V156.396C113.397 156.698 113.549 156.963 113.776 157.115C114.003 157.266 114.306 157.342 114.571 157.266L116.577 156.698C116.766 156.661 116.88 156.509 116.993 156.396C117.599 156.963 118.432 157.228 119.227 157.191C119.378 157.191 119.529 157.153 119.719 157.115C119.984 157.039 120.249 156.963 120.476 156.888C121.043 156.698 121.611 156.509 122.52 156.509C123.352 156.509 123.844 156.698 124.374 156.85C124.488 156.888 124.601 156.926 124.715 156.963C125.056 157.115 125.434 157.153 125.775 157.153C126.494 157.153 127.213 156.85 127.743 156.358C127.857 156.509 127.97 156.585 128.159 156.661L130.128 157.266C130.393 157.342 130.695 157.304 130.96 157.153C131.187 157.001 131.339 156.736 131.339 156.434L131.377 154.39C131.377 154.238 131.339 154.087 131.263 153.935C131.869 153.595 132.361 153.027 132.55 152.346C132.588 152.27 132.588 152.194 132.626 152.081C132.664 151.929 132.701 151.778 132.701 151.589C132.739 151.324 132.739 151.059 132.739 150.794C132.739 150.188 132.739 149.62 133.004 148.75C133.269 147.955 133.572 147.539 133.913 147.122C133.988 147.009 134.064 146.933 134.14 146.819C134.367 146.554 134.556 146.214 134.67 145.873C134.897 145.154 134.821 144.359 134.48 143.678C134.67 143.602 134.821 143.526 134.935 143.375L136.146 141.709C136.335 141.52 136.411 141.255 136.297 140.952Z" fill="white"/>
<path d="M121.309 145.381C121.309 144.737 121.839 144.245 122.482 144.245C123.125 144.245 123.655 144.775 123.655 145.381C123.655 146.024 123.125 146.516 122.482 146.516C121.839 146.516 121.309 145.986 121.309 145.381Z" fill="#232323"/>
<path d="M122.443 135.616C122.254 134.897 121.799 134.291 121.232 133.95L122.443 132.398L123.578 133.95C123.011 134.329 122.632 134.897 122.443 135.616ZM113.169 142.353C112.564 141.937 112.147 141.407 111.92 140.764L110.104 141.369L111.201 142.959C111.731 142.58 112.45 142.353 113.169 142.353ZM116.765 153.065C116.198 153.519 115.554 153.746 114.835 153.746V155.677L116.727 155.109C116.5 154.503 116.5 153.784 116.765 153.065ZM128.121 153.103C128.386 153.784 128.386 154.466 128.158 155.109L130.013 155.677L130.051 153.746C129.408 153.784 128.726 153.557 128.121 153.103ZM131.641 142.391C132.398 142.353 133.041 142.543 133.571 142.959L134.707 141.407L132.852 140.764C132.701 141.369 132.246 141.975 131.641 142.391ZM120.096 153.141C119.226 153.141 118.544 152.459 118.544 151.589C118.544 151.475 118.431 151.438 118.355 151.513C117.787 152.195 117.371 152.8 117.333 153.519C117.295 154.579 118.204 155.45 119.301 155.45C119.377 155.45 119.453 155.45 119.491 155.45C119.604 155.45 119.68 155.45 119.831 155.412C120.588 155.223 121.27 154.844 122.557 154.844C123.654 154.844 124.222 155.147 124.79 155.298C125.017 155.374 125.282 155.45 125.547 155.45C126.644 155.45 127.515 154.579 127.515 153.519C127.515 152.762 127.061 152.195 126.493 151.513C126.455 151.438 126.342 151.513 126.342 151.589C126.342 152.422 125.622 153.141 124.79 153.141C124.146 153.141 123.314 152.573 122.481 152.573C121.762 152.573 120.74 153.141 120.096 153.141ZM119.074 151.021C119.074 151.74 119.642 152.308 120.361 152.308C120.437 152.308 120.513 152.308 120.626 152.27C120.664 152.27 120.702 152.27 120.74 152.232H120.778C121.232 152.081 121.648 151.892 122.443 151.892C123.238 151.892 123.616 152.119 124.071 152.232C124.222 152.27 124.373 152.308 124.525 152.308C125.244 152.308 125.812 151.74 125.812 151.021C125.812 150.832 125.774 150.643 125.698 150.491C125.66 150.416 125.622 150.34 125.585 150.302C125.585 150.302 123.389 147.312 123.314 147.236C123.2 147.085 123.049 147.16 122.973 147.198C122.859 147.236 122.594 147.312 122.405 147.312C122.216 147.312 121.989 147.274 121.875 147.198C121.724 147.122 121.61 147.085 121.535 147.236C121.459 147.35 119.869 149.507 119.377 150.188C119.188 150.416 119.074 150.68 119.074 151.021ZM129.18 150.037C128.915 150.87 128.045 151.286 127.212 151.021C127.099 150.983 127.023 151.059 127.099 151.173C127.591 151.892 128.007 152.497 128.726 152.762C129.748 153.103 130.884 152.535 131.187 151.513C131.224 151.438 131.224 151.4 131.224 151.324C131.262 151.248 131.262 151.135 131.3 151.021C131.376 150.226 131.187 149.507 131.603 148.258C131.944 147.236 132.398 146.782 132.738 146.29C132.89 146.101 133.041 145.873 133.117 145.646C133.458 144.624 132.89 143.489 131.868 143.186C131.149 142.959 130.43 143.224 129.597 143.527C129.521 143.564 129.521 143.64 129.635 143.678C130.467 143.943 130.922 144.814 130.657 145.646C130.467 146.252 129.673 146.858 129.408 147.652C129.18 148.296 129.408 149.394 129.18 150.037ZM126.834 150.34C127.515 150.567 128.272 150.188 128.499 149.507C128.537 149.431 128.537 149.356 128.537 149.242C128.537 149.204 128.537 149.166 128.537 149.129V149.091C128.537 148.637 128.461 148.144 128.688 147.425C128.953 146.668 129.256 146.365 129.521 145.987C129.597 145.873 129.673 145.722 129.748 145.571C129.975 144.889 129.597 144.17 128.915 143.943C128.726 143.905 128.537 143.867 128.386 143.905C128.31 143.905 128.234 143.905 128.158 143.943C128.158 143.943 124.6 145.079 124.487 145.116C124.336 145.192 124.336 145.343 124.336 145.419C124.336 145.533 124.298 145.798 124.26 145.987C124.222 146.138 124.108 146.365 123.995 146.479C123.881 146.593 123.806 146.706 123.919 146.82C124.033 146.933 125.547 149.091 126.077 149.772C126.266 150.037 126.531 150.226 126.834 150.34ZM128.953 140.423C129.673 140.915 129.824 141.899 129.294 142.58C129.218 142.656 129.294 142.77 129.408 142.732C130.278 142.505 130.959 142.278 131.414 141.672C132.057 140.801 131.868 139.59 130.997 138.947C130.959 138.909 130.884 138.871 130.808 138.833C130.732 138.757 130.657 138.72 130.505 138.682C129.786 138.379 129.029 138.303 127.969 137.546C127.099 136.903 126.796 136.335 126.417 135.843C126.304 135.654 126.115 135.464 125.887 135.275C125.017 134.632 123.768 134.821 123.162 135.691C122.746 136.297 122.746 137.054 122.784 137.925C122.784 138 122.897 138.038 122.935 137.925C123.427 137.243 124.411 137.092 125.13 137.584C125.66 137.963 126.001 138.909 126.682 139.363C127.288 139.931 128.423 140.044 128.953 140.423ZM128.537 142.77C128.953 142.202 128.84 141.369 128.234 140.953C128.196 140.915 128.121 140.839 128.007 140.801C127.969 140.801 127.931 140.764 127.894 140.764H127.856C127.401 140.612 126.947 140.536 126.304 140.082C125.66 139.628 125.471 139.212 125.206 138.871C125.13 138.757 125.017 138.644 124.903 138.53C124.336 138.114 123.503 138.227 123.086 138.833C122.973 138.985 122.897 139.136 122.859 139.325C122.859 139.401 122.821 139.477 122.821 139.552C122.821 139.552 122.821 143.262 122.821 143.375C122.821 143.564 122.973 143.564 123.086 143.602C123.2 143.64 123.465 143.754 123.578 143.829C123.73 143.943 123.881 144.094 123.957 144.208C124.033 144.322 124.108 144.435 124.26 144.359C124.411 144.284 126.947 143.489 127.742 143.224C128.083 143.186 128.348 142.997 128.537 142.77ZM119.718 137.698C120.399 137.206 121.383 137.357 121.913 138.038C121.989 138.114 122.102 138.114 122.102 138C122.14 137.13 122.14 136.373 121.724 135.767C121.118 134.897 119.869 134.707 118.999 135.351C118.923 135.389 118.885 135.427 118.847 135.464C118.771 135.502 118.696 135.578 118.62 135.691C118.09 136.297 117.787 136.978 116.727 137.735C115.857 138.379 115.213 138.492 114.646 138.644C114.419 138.72 114.154 138.795 113.964 138.947C113.094 139.59 112.867 140.801 113.548 141.672C114.002 142.278 114.721 142.505 115.554 142.732C115.63 142.77 115.668 142.656 115.63 142.58C115.138 141.899 115.289 140.915 115.97 140.423C116.5 140.044 117.484 140.006 118.166 139.514C118.696 139.136 119.188 138.076 119.718 137.698ZM121.837 138.833C121.421 138.265 120.588 138.114 120.02 138.53C119.945 138.568 119.907 138.606 119.831 138.682C119.793 138.72 119.793 138.72 119.756 138.757L119.718 138.795C119.453 139.174 119.226 139.59 118.582 140.044C117.939 140.499 117.484 140.536 117.068 140.726C116.917 140.764 116.765 140.839 116.652 140.915C116.084 141.331 115.933 142.126 116.349 142.732C116.462 142.883 116.614 142.997 116.765 143.072C116.841 143.11 116.879 143.148 116.955 143.148C116.955 143.148 120.513 144.284 120.626 144.322C120.815 144.359 120.891 144.246 120.929 144.17C121.005 144.094 121.156 143.867 121.307 143.754C121.459 143.64 121.648 143.564 121.799 143.527C121.951 143.489 122.064 143.451 122.064 143.3C122.064 143.148 122.064 140.499 122.064 139.666C122.102 139.401 122.027 139.098 121.837 138.833ZM114.267 145.608C114.002 144.776 114.456 143.905 115.251 143.64C115.365 143.602 115.365 143.489 115.289 143.451C114.456 143.148 113.737 142.883 113.056 143.11C112.034 143.413 111.466 144.549 111.807 145.571C111.807 145.646 111.845 145.684 111.883 145.76C111.92 145.836 111.958 145.949 112.034 146.063C112.45 146.744 113.018 147.236 113.434 148.485C113.775 149.507 113.662 150.151 113.662 150.756C113.624 150.983 113.662 151.248 113.737 151.513C114.078 152.535 115.176 153.103 116.198 152.762C116.917 152.535 117.333 151.93 117.825 151.173C117.863 151.097 117.787 151.021 117.712 151.059C116.879 151.324 116.008 150.87 115.743 150.075C115.554 149.469 115.819 148.523 115.554 147.728C115.327 147.009 114.456 146.214 114.267 145.608ZM115.97 143.981C115.289 144.208 114.911 144.927 115.138 145.608C115.138 145.684 115.176 145.76 115.251 145.836C115.289 145.873 115.289 145.911 115.327 145.911C115.327 145.911 115.327 145.949 115.365 145.949C115.63 146.328 115.97 146.668 116.235 147.387C116.5 148.144 116.387 148.561 116.425 149.015C116.425 149.166 116.425 149.318 116.5 149.469C116.727 150.151 117.447 150.529 118.128 150.302C118.317 150.264 118.469 150.151 118.582 150.037C118.62 149.999 118.696 149.923 118.734 149.886C118.734 149.886 120.929 146.895 120.967 146.782C121.08 146.63 120.967 146.517 120.891 146.441C120.815 146.365 120.664 146.138 120.626 145.949C120.588 145.798 120.55 145.571 120.55 145.419C120.55 145.268 120.55 145.154 120.399 145.116C120.248 145.079 117.712 144.246 116.917 143.981C116.614 143.905 116.311 143.867 115.97 143.981Z" fill="#232323"/>
<path d="M133.344 105.334L141.33 102.571C141.33 102.571 140.649 105.902 140.838 108.476C141.065 111.807 142.996 114.343 142.996 114.343L133.154 117.75L133.344 105.334Z" fill="#232323"/>
<path d="M142.995 114.343C142.995 114.343 141.254 111.845 140.951 108.93C140.724 106.735 140.951 104.842 141.33 102.571C140.989 104.085 139.702 108.362 136.106 112.337C134.668 113.926 134.025 115.327 133.76 116.311L133.608 97.499C133.608 97.499 131.716 98.1803 131.527 98.2182C131.299 98.2939 131.186 98.4453 131.186 98.4832C131.186 98.5967 131.11 98.6724 130.959 98.7103C130.807 98.7481 129.71 99.1645 128.953 99.3916C128.801 99.4294 128.877 99.5808 128.953 99.5808C129.861 99.543 131.148 99.4294 131.262 99.4294C131.451 99.3916 131.527 99.3159 131.527 99.2023C131.527 99.2023 131.527 99.2023 131.527 99.1645C131.564 99.0131 131.678 98.8995 131.829 98.8995C131.943 98.8995 132.624 98.8238 133.041 98.7481L132.851 118.998H133.76V117.56L142.995 114.343Z" fill="#232323"/>
<path d="M107.605 118.28C107.605 118.28 106.129 117.182 105.712 115.1C105.296 112.981 106.356 111.769 106.356 111.769L116.045 108.438C116.045 108.438 115.44 110.369 116.008 112.564C116.727 115.327 118.203 117.182 118.203 117.182C118.203 117.182 114.645 116.501 111.201 116.955C107.945 117.371 107.605 118.28 107.605 118.28Z" fill="#232323"/>
<path d="M96.4766 115.857C96.4766 115.857 97.6878 112.564 101.208 108.968C103.895 106.243 105.637 105.448 105.637 105.448C105.637 105.448 104.085 107.681 103.441 111.353C103.025 113.624 103.479 116.501 103.479 116.501C103.479 116.501 101.662 116.122 99.5803 115.895C97.8392 115.706 96.4766 115.857 96.4766 115.857Z" fill="#232323"/>
<path d="M105.638 105.448C105.638 105.448 104.124 107.681 103.48 111.353C103.064 113.624 103.518 116.501 103.518 116.501C103.518 116.501 103.064 116.387 102.004 116.16C97.6891 115.176 105.638 105.448 105.638 105.448Z" fill="#232323"/>
<path d="M111.315 108.097L111.239 99.3916C111.05 99.4673 109.347 100.035 109.157 100.111C108.93 100.186 108.817 100.338 108.817 100.414C108.817 100.527 108.741 100.603 108.59 100.641C108.438 100.679 107.341 101.057 106.584 101.322C106.432 101.36 106.508 101.511 106.584 101.511C107.454 101.473 108.779 101.36 108.892 101.36C109.082 101.322 109.157 101.246 109.195 101.133C109.195 101.133 109.195 101.133 109.195 101.095C109.233 100.943 109.347 100.83 109.498 100.83C109.612 100.83 110.255 100.754 110.709 100.716L110.634 108.135H111.315V108.097Z" fill="#232323"/>
<path d="M122.595 100.224H123.276V91.8594C123.276 91.8594 121.384 92.5407 121.194 92.5785C120.967 92.6542 120.854 92.8057 120.854 92.8435C120.854 92.9571 120.778 93.0328 120.627 93.0706C120.475 93.1085 119.378 93.487 118.621 93.7519C118.469 93.7898 118.545 93.9412 118.621 93.9412C119.529 93.9033 120.816 93.7898 120.93 93.7898C121.119 93.7519 121.194 93.6762 121.232 93.5627C121.27 93.4113 121.384 93.2977 121.535 93.2977C121.649 93.2977 122.254 93.222 122.709 93.1842L122.595 100.224Z" fill="#232323"/>
<path d="M120.891 93.8277H120.929C121.118 93.7898 121.194 93.7141 121.194 93.6006C121.194 93.487 121.27 93.4113 121.383 93.3735L121.156 92.6543C120.929 92.73 120.853 92.8814 120.853 92.9193C120.853 93.0328 120.778 93.0707 120.664 93.1085L120.891 93.8277Z" fill="#232323"/>
<path d="M108.854 101.323H108.892C109.081 101.285 109.157 101.209 109.157 101.096C109.195 100.982 109.233 100.906 109.346 100.869L109.119 100.149C108.892 100.225 108.816 100.377 108.816 100.414C108.816 100.528 108.741 100.566 108.627 100.604L108.854 101.323Z" fill="#232323"/>
<path d="M131.186 99.4302H131.224C131.413 99.3924 131.489 99.3167 131.489 99.2031C131.527 99.0896 131.565 99.0139 131.678 98.976L131.451 98.2568C131.224 98.3325 131.148 98.4839 131.148 98.5218C131.148 98.6353 131.073 98.6732 130.959 98.711L131.186 99.4302Z" fill="#232323"/>
<path d="M118.204 117.182C118.204 117.182 116.652 114.911 116.046 112.489C115.517 110.407 116.046 108.438 116.046 108.438C116.046 108.438 115.024 111.996 112.564 113.927C110.861 115.29 106.659 116.539 107.644 118.28C107.795 118.053 108.211 117.598 109.915 117.182C110.104 117.144 110.331 117.106 110.558 117.069V119.945H111.467V116.955C114.608 116.614 118.204 117.182 118.204 117.182Z" fill="#232323"/>
<path d="M106.584 111.163C106.584 111.163 105.448 110.482 105.6 108.287C105.751 106.016 106.887 105.031 106.887 104.956L114.419 102.382C114.419 102.382 113.851 103.517 114.268 105.221C114.722 107.265 116.047 108.438 116.047 108.438C116.047 108.438 112.262 108.476 108.855 109.649C107.19 110.217 106.584 111.163 106.584 111.163Z" fill="#232323"/>
<path d="M111.05 106.432C113.208 104.653 114.381 102.382 114.381 102.382C114.381 102.382 114.078 103.82 114.305 105.107C114.722 107.302 116.009 108.438 116.009 108.438C116.009 108.438 112.943 108.476 109.65 109.422C107.454 110.028 106.773 110.898 106.584 111.201C105.865 109.536 108.855 108.249 111.05 106.432Z" fill="#232323"/>
<path d="M119.643 118.847C119.643 118.847 117.561 117.295 117.069 114.381C116.653 112.072 118.205 110.407 118.205 110.407L129.976 106.356C129.976 106.356 129.333 108.968 129.938 111.466C130.62 114.267 133.194 117.75 133.194 117.75C133.194 117.75 128.311 116.349 124.071 116.879C120.021 117.409 119.643 118.847 119.643 118.847Z" fill="#232323"/>
<path d="M117.257 100.187C117.182 98.4078 118.431 96.9695 118.468 96.8938L126.909 93.9414C126.909 93.9414 126.341 95.2662 126.493 96.4017C126.758 98.5592 127.969 99.6948 127.969 99.6948C127.969 99.6948 124.638 99.5055 120.74 100.868C118.582 101.625 118.355 102.647 118.355 102.647C118.355 102.647 117.333 102.382 117.257 100.187Z" fill="#232323"/>
<path d="M123.92 97.916C125.434 96.5912 126.91 93.9795 126.91 93.9795C126.91 93.9795 126.342 95.3043 126.494 96.4398C126.759 98.5973 127.97 99.7329 127.97 99.7329C127.97 99.7329 124.374 99.695 120.93 100.906C119.454 101.436 118.507 102.231 118.394 102.685C117.902 101.02 121.838 99.7329 123.92 97.916Z" fill="#232323"/>
<path d="M118.468 109.914C118.468 109.914 117.257 108.514 117.03 106.318C116.803 104.047 118.128 103.139 118.241 103.063L128.007 99.6943C128.007 99.6943 127.742 100.414 127.969 102.382C128.196 104.047 129.824 106.318 129.824 106.318C129.824 106.318 124.6 106.47 121.383 107.719C119.339 108.514 118.468 109.914 118.468 109.914Z" fill="#232323"/>
<path d="M124.94 104.275C127.06 102.458 128.006 99.7324 128.006 99.7324C128.006 99.7324 127.741 101.284 128.006 102.496C128.498 104.615 130.013 106.394 130.013 106.394C130.013 106.394 125.47 106.47 122.177 107.568C120.02 108.287 118.695 109.574 118.506 109.952C118.014 108.098 122.821 106.091 124.94 104.275Z" fill="#232323"/>
<path d="M133.381 117.939C133.381 117.939 130.732 114.495 129.937 111.467C129.445 109.46 129.823 107.189 129.975 106.395C129.672 107.454 128.612 110.899 126 113.321C123.502 115.63 118.582 116.728 119.641 118.885C119.831 118.545 120.398 117.712 122.405 117.22L122.367 119.983H123.313V117.031C127.666 116.349 133.381 117.939 133.381 117.939Z" fill="#232323"/>
<path fill-rule="evenodd" clip-rule="evenodd" d="M137.925 124.412C138.531 124.298 139.136 124.147 140.045 123.92C140.007 123.882 139.931 123.844 139.893 123.806C138.909 122.709 139.061 121.535 139.666 120.967C141.862 118.923 141.824 117.409 141.824 117.409C141.824 117.409 136.487 118.507 129.447 118.886C128.992 118.923 127.365 119.643 126.873 119.643C125.889 119.68 124.904 119.718 123.882 119.718C110.597 119.832 106.887 118.886 102.534 118.091C98.1059 117.258 96.1755 116.387 96.1755 116.387L96.024 116.842C96.024 116.842 99.5063 118.204 102.005 119.416C102.534 119.68 104.616 122.784 105.298 123.844H89.5137C88.6431 105.751 92.1254 90.9515 92.1254 90.9515C92.1254 90.9515 104.2 88.3777 122.368 88.3777V86.4473C103.102 86.4473 90.2707 89.1725 90.2707 89.1725C90.2707 89.1725 84.6687 108.931 87.6211 132.474C88.8702 142.278 96.9703 160.635 122.293 169.152L123.39 167.6L122.293 166.048C98.4465 158.061 91.4819 141.899 90.2707 132.701C90.0057 130.657 89.8165 128.613 89.6651 126.645H122.406V123.882H105.6C105.979 122.671 107.152 122.368 108.628 122.709C110.142 123.087 111.657 123.466 113.095 123.39C116.691 123.201 116.161 122.254 116.501 122.254C120.211 122.481 121.611 123.39 124.829 123.314C127.781 123.276 128.803 122.481 129.068 122.481C132.664 122.444 134.026 124.109 137.622 124.412C137.736 124.412 137.849 124.412 137.925 124.412Z" fill="#232323"/>
<path fill-rule="evenodd" clip-rule="evenodd" d="M154.428 89.1725C154.428 89.1725 141.634 86.4473 122.368 86.4473V88.3777C140.537 88.3777 152.573 90.9515 152.573 90.9515C152.573 90.9515 156.093 105.751 155.185 123.844H139.363C138.114 122.633 138.833 121.043 139.25 120.665C141.104 118.999 141.104 117.864 141.104 117.864C141.104 117.864 136.827 118.923 129.787 119.226C129.333 119.226 127.364 120.135 126.872 120.135C125.888 120.173 124.526 120.21 123.504 120.21C114.344 120.21 109.839 120.021 101.891 118.318C102.042 118.507 102.118 118.583 102.269 118.81C102.307 118.886 105.751 119.756 105.789 119.832C106.319 120.551 107.001 121.043 107.833 121.497C109.12 122.179 111.013 122.746 112.565 122.86C116.16 123.087 115.479 121.724 115.82 121.724C119.491 121.649 121.876 122.974 125.093 122.936C128.046 122.898 128.121 121.952 128.424 121.952C131.339 121.8 134.291 123.049 136.827 123.882H122.368V126.645H154.996C154.844 128.651 154.655 130.657 154.39 132.701C153.179 141.937 146.214 158.061 122.368 166.048V169.152C147.69 160.635 155.828 142.315 157.04 132.474C160.03 108.931 154.428 89.1725 154.428 89.1725Z" fill="#232323"/>
<path d="M63.2441 97.6889L64.5689 95.1529L70.5494 94.7365L67.5213 89.5509L68.8461 87.0527L79.4822 92.6547L78.271 94.9636L71.3064 91.3299L74.2966 96.7048L74.2588 96.7426L68.2026 97.3482L75.0915 100.982L73.8803 103.291L63.2441 97.6889Z" fill="white"/>
<path d="M75.3945 78.7624L77.06 76.9834L89.3994 81.5255L87.5069 83.5316L84.7816 82.4718L81.2993 86.1812L82.5105 88.8308L80.6558 90.799L75.3945 78.7624ZM82.4727 81.6012L78.5362 80.0872L80.2773 83.9101L82.4727 81.6012Z" fill="white"/>
<path d="M84.9336 70.0194L87.0154 68.7703L95.6833 72.1769L91.8603 65.8558L94.0935 64.4932L100.301 74.7508L98.3707 75.9242L89.4379 72.404L93.4122 78.9523L91.179 80.3149L84.9336 70.0194Z" fill="white"/>
<path d="M101.096 67.9375C100.149 64.6066 101.815 61.2 105.373 60.178C107.53 59.5346 109.082 59.9131 110.445 60.6322L109.347 62.979C108.212 62.4112 107.19 62.1841 106.016 62.5248C104.086 63.0926 103.14 65.0987 103.707 67.1048V67.1426C104.275 69.1109 106.13 70.36 108.098 69.7922C109.423 69.4137 110.066 68.6567 110.748 67.559L112.829 68.7324C111.997 70.36 110.899 71.5333 108.704 72.1768C105.335 73.1609 102.042 71.2684 101.096 67.9375Z" fill="white"/>
<path d="M115.516 58.2855L118.127 58.2098L118.279 62.979L123.124 62.8654L123.01 58.0962L125.66 58.0205L125.963 70.0571L123.313 70.1328L123.199 65.2879L118.317 65.4393L118.468 70.2464L115.818 70.3221L115.516 58.2855Z" fill="white"/>
<path d="M141.217 71.6851L143.412 70.6253C144.018 71.8744 144.813 72.8964 146.062 73.4641C147.046 73.9183 147.803 73.8048 148.106 73.1613V73.1235C148.408 72.5178 148.144 72.0258 146.554 70.7388C144.623 69.1491 143.488 67.9 144.472 65.7425V65.7047C145.38 63.7364 147.576 63.1686 149.809 64.1906C151.399 64.9098 152.534 66.0453 153.216 67.4458L151.134 68.6949C150.49 67.5594 149.695 66.7266 148.787 66.3103C147.879 65.8939 147.197 66.0832 146.932 66.6131V66.6509C146.592 67.3701 146.97 67.8243 148.636 69.187C150.566 70.7767 151.474 72.1772 150.566 74.0697V74.1076C149.582 76.2651 147.349 76.7193 145.002 75.6595C143.412 74.8268 142.012 73.4641 141.217 71.6851Z" fill="white"/>
<path d="M158.78 72.4038L155.866 70.1706L157.342 68.2402L165.253 74.2585L163.777 76.2268L160.862 73.9936L155.071 81.6016L152.951 80.0119L158.78 72.4038Z" fill="white"/>
<path d="M177.78 89.4746L180.241 94.3952C180.922 95.7579 181.074 97.007 180.733 98.0668C180.43 98.9752 179.749 99.6944 178.727 100.224H178.689C176.948 101.095 175.396 100.716 174.185 99.5808L171.649 104.123L170.248 101.36L172.519 97.3098L171.573 95.4551L168.128 97.1962L166.955 94.8495L177.78 89.4746ZM174.942 96.8556C175.509 97.9911 176.456 98.3696 177.364 97.9154H177.402C178.424 97.4233 178.575 96.4392 178.008 95.3037L176.834 92.9569L173.768 94.5088L174.942 96.8556Z" fill="white"/>
<path d="M133.194 66.3478L137.622 67.2941L138.871 65.1744L133.723 64.0389L134.215 61.6543L140.499 63.0169L141.029 60.7458L132.134 58.8154L129.598 70.5493L138.568 72.5175L139.06 70.2086L132.664 68.8081L133.194 66.3478Z" fill="white"/>
<path d="M168.886 77.8545L159.65 85.5761L165.555 92.5785L167.334 91.0645L163.171 86.0682L165.101 84.4406L168.053 87.9607L170.438 87.1658L166.918 82.9265L168.772 81.3746L172.898 86.2953L174.715 84.7812L168.886 77.8545Z" fill="white"/>
<path d="M102.117 180.355C102.117 176.835 104.729 173.996 108.514 173.996C110.823 173.996 112.186 174.753 113.359 175.889L111.656 177.857C110.709 176.986 109.763 176.494 108.514 176.494C106.432 176.494 104.956 178.198 104.956 180.317V180.355C104.956 182.437 106.394 184.216 108.514 184.216C109.915 184.216 110.785 183.648 111.731 182.778L113.435 184.519C112.186 185.881 110.785 186.714 108.4 186.714C104.805 186.638 102.117 183.837 102.117 180.355Z" fill="white"/>
<path d="M116.047 174.186H118.734V186.411H116.047V174.186Z" fill="white"/>
<path d="M124.979 176.684H121.27V174.186H131.414V176.684H127.704V186.449H125.017V176.684H124.979Z" fill="white"/>
<path d="M137.242 181.604L132.549 174.186H135.69L138.605 179.106L141.557 174.186H144.623L139.93 181.529V186.411H137.242V181.604Z" fill="white"/>
</g>
<defs>
<clipPath id="clip0_99_19">
<rect width="155" height="155" fill="white" transform="translate(45 45)"/>
</clipPath>
</defs>
</svg>
