<svg width="27" height="27" viewBox="0 0 27 27" fill="none" xmlns="http://www.w3.org/2000/svg">
<path d="M3.85714 0C1.72969 0 0 1.72969 0 3.85714V23.1429C0 25.2703 1.72969 27 3.85714 27H23.1429C25.2703 27 27 25.2703 27 23.1429V3.85714C27 1.72969 25.2703 0 23.1429 0H3.85714ZM13.1384 14.4462L3.8692 8.46161C3.97768 7.49732 4.79129 6.75 5.78571 6.75H21.2143C22.2087 6.75 23.0223 7.49732 23.1308 8.46161L13.8616 14.4462C13.7531 14.5185 13.6266 14.5547 13.5 14.5547C13.3734 14.5547 13.2469 14.5185 13.1384 14.4462ZM14.9103 16.0674L23.1429 10.7518V18.3214C23.1429 19.3882 22.281 20.25 21.2143 20.25H5.78571C4.71897 20.25 3.85714 19.3882 3.85714 18.3214V10.7518L12.0897 16.0674C12.5116 16.3386 12.9998 16.4833 13.5 16.4833C14.0002 16.4833 14.4884 16.3386 14.9103 16.0674Z" fill="white"/>
</svg>
