<?xml version="1.0" encoding="utf-8"?>
<!-- Generator: Adobe Illustrator 25.2.1, SVG Export Plug-In . SVG Version: 6.00 Build 0)  -->
<svg version="1.1" id="Layer_1" xmlns="http://www.w3.org/2000/svg" xmlns:xlink="http://www.w3.org/1999/xlink" x="0px" y="0px"
	 viewBox="0 0 512 388" style="enable-background:new 0 0 512 388;" xml:space="preserve">
<style type="text/css">
	.st0{fill:#FFFFFF;}
</style>
<path class="st0" d="M48,2C21.5,2,0,23.5,0,50c0,15.1,7.1,29.3,19.2,38.4l217.6,163.2c11.4,8.5,27,8.5,38.4,0L492.8,88.4
	C504.9,79.3,512,65.1,512,50c0-26.5-21.5-48-48-48C464,2,48,2,48,2z M0,114v208c0,35.3,28.7,64,64,64h384c35.3,0,64-28.7,64-64V114
	L294.4,277.2c-22.8,17.1-54,17.1-76.8,0L0,114z"/>
</svg>
