<svg width="27" height="27" viewBox="0 0 27 27" fill="none" xmlns="http://www.w3.org/2000/svg">
<path d="M3.85714 0C1.72969 0 0 1.72969 0 3.85714V23.1429C0 25.2703 1.72969 27 3.85714 27H9.77545V18.2129H6.5933V13.5H9.77545V11.469C9.77545 6.21964 12.15 3.78482 17.3089 3.78482C18.2853 3.78482 19.9728 3.97768 20.6658 4.17054V8.4375C20.3042 8.40134 19.6714 8.37723 18.8819 8.37723C16.3507 8.37723 15.3743 9.33549 15.3743 11.8246V13.5H20.4127L19.5449 18.2129H15.3683V27H23.1429C25.2703 27 27 25.2703 27 23.1429V3.85714C27 1.72969 25.2703 0 23.1429 0H3.85714Z" fill="white"/>
</svg>
