<svg width="245" height="245" viewBox="0 0 245 245" fill="none" xmlns="http://www.w3.org/2000/svg">
<path d="M150.516 112.384H139.043V148.063H150.516V112.384Z" fill="#232323"/>
<path d="M39.061 97.8403C37.1425 98.5205 35.3336 99.6334 34.0884 101.244C32.6218 103.082 31.9887 105.438 31.9075 107.741C31.8993 109.288 31.9298 110.836 31.8918 112.383C30.5094 112.386 29.1285 112.383 27.7461 112.384C27.7461 115.495 27.7461 118.608 27.7461 121.719C29.133 121.719 30.5206 121.719 31.9082 121.719C31.9082 130.532 31.9082 139.344 31.9082 148.159C35.8645 148.159 39.8208 148.159 43.7772 148.159C43.7772 139.344 43.7772 130.532 43.7772 121.719C44.8628 121.72 45.9469 121.716 47.0326 121.721C46.3145 123.388 45.8806 125.163 45.6614 126.957C45.6308 127.164 45.6233 127.374 45.592 127.581C45.4571 129.125 45.4146 130.681 45.5592 132.225C45.8851 136.479 47.5717 140.716 50.6757 143.755C53.4525 146.535 57.2298 148.34 61.1884 148.683C62.3859 148.801 63.5908 148.79 64.7861 148.65C66.5793 148.443 68.3561 147.875 69.8258 146.827C71.0494 145.963 71.9963 144.735 72.5421 143.357C72.5675 144.958 72.5458 146.559 72.5533 148.159C76.4761 148.159 80.3973 148.159 84.3201 148.159C84.3156 146.77 84.3298 145.382 84.3134 143.993C85.1761 145.283 86.3393 146.377 87.7097 147.132C89.4053 148.107 91.3357 148.603 93.2699 148.852C94.7373 149.012 96.2211 149.074 97.6952 148.982C98.1053 148.966 98.5139 148.933 98.9218 148.882C100.805 148.675 102.676 148.2 104.357 147.327C105.728 146.624 106.961 145.647 107.905 144.438C107.907 145.678 107.905 146.918 107.906 148.159C111.862 148.159 115.819 148.159 119.775 148.159C119.775 142.491 119.775 136.821 119.775 131.155C119.782 129.557 119.727 127.955 119.902 126.365C120.06 125.122 120.416 123.844 121.264 122.876C122.113 121.895 123.475 121.47 124.756 121.514C125.964 121.468 127.265 121.818 128.08 122.741C128.957 123.751 129.205 125.122 129.281 126.408C129.281 133.657 129.281 140.908 129.281 148.157C134.016 148.162 138.751 148.149 143.486 148.164C142.649 147.919 141.845 147.459 141.349 146.738C140.861 146.089 140.686 145.267 140.686 144.474C140.691 142.103 140.688 139.731 140.689 137.36C143.618 137.36 146.547 137.36 149.476 137.36C149.476 138.032 149.476 138.705 149.476 139.378C147.232 139.378 144.987 139.378 142.744 139.378C142.744 140.151 142.744 140.925 142.744 141.699C144.987 141.699 147.233 141.699 149.476 141.699C149.475 142.56 149.477 143.422 149.476 144.283C149.433 145.048 149.347 145.848 148.936 146.519C148.436 147.32 147.613 147.889 146.703 148.161C148.106 148.152 149.509 148.159 150.914 148.157C150.92 145.127 150.901 142.099 150.922 139.07C151.854 140.936 153.065 142.691 154.615 144.115C157.538 146.883 161.487 148.466 165.497 148.879C167.03 149.053 168.579 149.05 170.117 148.952C170.328 148.916 170.543 148.909 170.758 148.876C170.851 148.866 170.947 148.857 171.044 148.848C174.543 148.437 177.954 147.128 180.688 144.924C182.318 143.613 183.687 141.997 184.73 140.201C184.716 142.852 184.728 145.503 184.724 148.156C188.679 148.156 192.636 148.156 196.593 148.156C196.593 142.286 196.593 136.416 196.593 130.545C196.599 129.321 196.56 128.097 196.655 126.876C196.82 125.375 197.202 123.765 198.353 122.685C199.016 121.989 199.976 121.636 200.925 121.529C202.025 121.454 203.205 121.53 204.159 122.13C204.876 122.562 205.382 123.276 205.651 124.052C206.011 125.064 206.125 126.146 206.099 127.212C206.099 134.193 206.099 141.174 206.099 148.155C210.056 148.155 214.012 148.155 217.969 148.155C217.969 139.965 217.969 131.774 217.969 123.585C218.001 122.166 217.825 120.741 217.469 119.367C216.91 117.251 215.785 115.209 214.001 113.854C212.51 112.679 210.646 112.049 208.761 111.839C207.325 111.71 205.872 111.753 204.449 111.99C202.715 112.314 201.051 112.999 199.638 114.04C198.238 115.076 197.046 116.375 196.081 117.81C196.077 116 196.081 114.19 196.079 112.38C192.294 112.38 188.509 112.38 184.724 112.38C184.727 115.035 184.717 117.689 184.728 120.342C183.89 118.885 182.838 117.548 181.6 116.399C178.607 113.572 174.554 111.976 170.447 111.605C169.746 111.526 169.041 111.509 168.336 111.522C165.399 111.452 162.43 111.962 159.727 113.105C157.736 113.937 155.912 115.15 154.365 116.633C152.933 118.042 151.786 119.713 150.911 121.504C150.915 118.463 150.911 115.421 150.913 112.38C150.433 112.38 149.952 112.38 149.475 112.38C149.476 112.996 149.473 113.614 149.476 114.231C147.671 114.573 145.879 114.987 144.067 115.292C145.872 115.677 147.677 116.068 149.476 116.481C149.475 117.025 149.47 117.569 149.479 118.113C147.668 118.502 145.867 118.931 144.05 119.292C144.622 119.343 145.184 119.457 145.744 119.582C146.988 119.834 148.23 120.099 149.476 120.348C149.477 121.034 149.471 121.721 149.479 122.408C146.548 121.718 143.623 121.003 140.689 120.331C140.689 119.699 140.688 119.069 140.689 118.439C142.311 118.029 143.936 117.636 145.568 117.272C143.924 116.985 142.316 116.522 140.689 116.152C140.688 115.52 140.688 114.889 140.689 114.257C143.314 113.657 145.928 112.999 148.555 112.409C148.125 112.366 147.694 112.38 147.263 112.38C144.524 112.38 141.784 112.38 139.043 112.38C139.043 113.518 139.043 114.655 139.043 115.793C138.686 115.315 138.311 114.846 137.878 114.432C136.179 112.812 133.844 111.953 131.502 111.807C130.779 111.753 130.044 111.751 129.322 111.807C126.867 111.963 124.467 112.912 122.618 114.511C121.482 115.44 120.582 116.609 119.779 117.819C119.77 110.96 119.778 104.101 119.776 97.2428C115.819 97.2428 111.863 97.2428 107.907 97.2428C107.907 103.778 107.907 110.313 107.907 116.848C107.168 115.65 106.155 114.623 104.975 113.841C103.019 112.502 100.66 111.833 98.3059 111.606C97.2628 111.472 96.2114 111.537 95.1638 111.521C92.4848 111.638 89.7543 112.312 87.5614 113.879C86.1745 114.867 85.0419 116.2 84.3209 117.728C84.3216 115.945 84.3208 114.163 84.3216 112.38C80.5189 112.38 76.7169 112.38 72.9142 112.38C72.9112 113.925 72.9209 115.472 72.909 117.017C72.1059 115.629 70.9897 114.406 69.6215 113.536C68.0989 112.541 66.3019 112.01 64.496 111.808C63.4081 111.664 62.3083 111.735 61.216 111.735C61.002 111.77 60.7872 111.778 60.574 111.809C55.9369 112.295 51.6272 114.857 48.8728 118.526C48.8586 116.478 48.8706 114.429 48.8661 112.38C47.1735 112.374 45.4809 112.394 43.7898 112.369C43.7846 111.547 43.7481 110.72 43.8092 109.899C43.851 109.273 44.0359 108.649 44.4027 108.131C44.9083 107.43 45.7613 107.087 46.5971 106.944C46.706 106.928 46.8141 106.912 46.9215 106.894C47.5672 106.814 48.2166 106.827 48.8653 106.83C48.8653 103.484 48.8653 100.136 48.8653 96.7888C47.6149 96.7888 46.3652 96.791 45.1148 96.7881C43.0621 96.8708 40.9982 97.152 39.061 97.8403ZM142.892 97.39C140.64 98.1309 138.958 100.297 138.87 102.634C138.792 103.003 138.892 103.376 138.902 103.748C138.92 103.853 138.938 103.959 138.953 104.066C139.333 106.22 141.037 108.064 143.174 108.665C144.507 109.049 145.972 108.974 147.249 108.437C149.121 107.675 150.519 105.927 150.848 103.965C151.202 101.888 150.364 99.6488 148.661 98.3557C147.078 97.0802 144.815 96.7134 142.892 97.39ZM142.631 143.719C142.628 144.057 142.678 144.392 142.697 144.731C142.795 145.067 142.901 145.424 143.164 145.677C143.593 146.153 144.283 146.286 144.902 146.297C145.625 146.317 146.434 146.224 146.972 145.699C147.458 145.157 147.509 144.406 147.471 143.719C145.857 143.719 144.243 143.719 142.631 143.719ZM93.5585 120.063C94.2467 119.322 95.3092 119.061 96.2972 119.042C97.2471 118.999 98.2746 119.269 98.9263 119.985C99.5697 120.653 99.7949 121.588 99.8896 122.476C102.562 122.476 105.234 122.476 107.906 122.476C107.906 125.178 107.906 127.88 107.906 130.581C107.645 130.225 107.282 129.967 106.962 129.67C105.43 128.407 103.62 127.53 101.792 126.762C99.8292 125.942 97.7892 125.327 95.7991 124.576C94.911 124.212 93.9611 123.822 93.3773 123.032C92.7577 122.155 92.8106 120.851 93.5585 120.063ZM64.2872 120.622C64.8621 120.539 65.4437 120.539 66.0193 120.622C66.126 120.64 66.2341 120.658 66.3429 120.673C68.1362 120.995 69.7132 122.082 70.7958 123.503C71.801 124.775 72.3773 126.322 72.6987 127.889C72.7054 127.933 72.7166 128.022 72.7218 128.067C72.9194 129.241 72.9701 130.439 72.8292 131.623C72.8173 131.716 72.8068 131.809 72.7964 131.903C72.5302 133.978 71.7264 136.033 70.2672 137.582C68.7618 139.233 66.425 140.182 64.1709 139.823C62.3464 139.544 60.7075 138.488 59.6069 137.05C58.5556 135.708 57.9576 134.078 57.6653 132.422C57.5997 131.981 57.5639 131.534 57.5072 131.091C57.4766 130.189 57.4841 129.285 57.6123 128.389C57.9084 126.258 58.7338 124.11 60.3324 122.592C61.2987 121.6 62.5924 120.928 63.9644 120.674C64.0717 120.658 64.1791 120.64 64.2872 120.622ZM164.031 122.794C166.256 120.836 169.927 120.81 172.211 122.69C173.813 123.955 174.647 125.924 174.997 127.869C175.063 128.244 175.098 128.623 175.156 128.998C175.153 129.638 175.289 130.28 175.18 130.918C175.166 131.524 175.097 132.127 174.998 132.725C174.641 134.711 173.73 136.687 172.077 137.95C171.305 138.546 170.377 138.921 169.419 139.115C169.309 139.129 169.201 139.145 169.095 139.165C167.131 139.445 165.004 138.832 163.622 137.404C162.269 136.118 161.572 134.314 161.256 132.523C161.189 132.081 161.154 131.635 161.098 131.192C161.08 130.595 161.08 129.999 161.098 129.403C161.154 128.96 161.189 128.514 161.254 128.073C161.609 126.099 162.439 124.111 164.031 122.794ZM141.774 123.467C142.681 122.688 143.898 122.265 145.103 122.322C147.011 122.254 148.988 123.462 149.527 125.303C149.994 126.745 149.292 128.363 148.084 129.239C147.48 129.713 146.742 129.994 145.988 130.131C145.875 130.147 145.765 130.167 145.659 130.19C145.256 130.199 144.853 130.199 144.452 130.19C144.341 130.167 144.232 130.147 144.123 130.131C143.37 129.991 142.628 129.716 142.024 129.247C141.151 128.607 140.554 127.616 140.436 126.551C140.429 126.357 140.429 126.163 140.436 125.971C140.547 125.009 141.041 124.109 141.774 123.467ZM144.312 124.402C143.713 124.517 143.12 124.816 142.772 125.321C142.409 125.845 142.37 126.595 142.743 127.125C143.074 127.65 143.669 127.967 144.273 128.091C145.167 128.293 146.168 128.147 146.909 127.6C147.298 127.335 147.55 126.896 147.616 126.439C147.703 125.807 147.341 125.173 146.811 124.832C146.091 124.338 145.155 124.255 144.312 124.402ZM84.3156 128.033C84.8488 129.017 85.5482 129.93 86.4332 130.633C89.535 132.968 93.3691 133.982 96.9041 135.491C97.8526 135.894 98.8405 136.383 99.4139 137.265C99.8628 138.057 99.8568 139.093 99.3684 139.867C98.8785 140.651 97.9704 141.085 97.0696 141.232C96.9242 141.245 96.7789 141.26 96.6364 141.288C96.3717 141.298 96.1078 141.298 95.8446 141.288C95.7007 141.258 95.5538 141.245 95.4099 141.232C94.6441 141.094 93.8582 140.812 93.3504 140.204C92.6652 139.451 92.525 138.382 92.5385 137.41C89.799 137.413 87.0596 137.411 84.3194 137.411C84.3171 134.285 84.3246 131.16 84.3156 128.033ZM140.688 131.054C143.616 131.054 146.545 131.054 149.474 131.054C149.471 132.03 149.478 133.008 149.472 133.985C149.432 134.603 149.328 135.285 148.849 135.733C148.275 136.368 147.363 136.589 146.527 136.552C145.952 136.5 145.347 136.384 144.894 136.008C144.535 135.734 144.341 135.317 144.186 134.912C143.022 135.58 141.85 136.237 140.688 136.906C140.688 136.14 140.688 135.374 140.688 134.61C141.797 134.064 142.91 133.524 144.016 132.972C142.907 132.97 141.797 132.972 140.688 132.971C140.688 132.332 140.688 131.693 140.688 131.054ZM145.308 132.971C145.301 133.496 145.293 134.21 145.873 134.458C146.348 134.609 146.946 134.59 147.345 134.26C147.65 133.909 147.614 133.406 147.629 132.974C146.855 132.968 146.082 132.972 145.308 132.971Z" fill="#232323"/>
<path d="M39.0598 97.8415C40.997 97.1532 43.0616 96.8713 45.1129 96.793C46.3633 96.7959 47.613 96.7937 48.8634 96.7937C48.8634 100.141 48.8634 103.489 48.8634 106.834C48.2139 106.831 47.5645 106.819 46.9195 106.898C46.8122 106.916 46.7033 106.934 46.5952 106.949C45.7593 107.092 44.9063 107.435 44.4008 108.136C44.0339 108.654 43.849 109.278 43.8073 109.903C43.7454 110.725 43.7819 111.551 43.7879 112.374C45.479 112.398 47.1716 112.377 48.8641 112.385C48.8686 114.433 48.8559 116.482 48.8708 118.531C51.6252 114.862 55.9357 112.3 60.572 111.813C60.7845 111.783 61 111.774 61.214 111.739C62.3064 111.739 63.4069 111.669 64.4941 111.813C66.3007 112.014 68.0969 112.545 69.6195 113.54C70.9878 114.41 72.104 115.634 72.907 117.022C72.9189 115.477 72.9092 113.931 72.9122 112.385C76.715 112.385 80.5169 112.385 84.3196 112.385C84.3189 114.167 84.3196 115.95 84.3189 117.733C85.0399 116.204 86.1725 114.873 87.5594 113.884C89.7523 112.316 92.4828 111.643 95.1619 111.526C96.2095 111.542 97.2608 111.477 98.3039 111.611C100.658 111.839 103.017 112.507 104.973 113.846C106.153 114.628 107.167 115.655 107.905 116.852C107.905 110.317 107.905 103.783 107.905 97.2469C111.861 97.2469 115.817 97.2469 119.774 97.2469C119.776 104.106 119.769 110.965 119.777 117.823C120.58 116.614 121.48 115.444 122.616 114.516C124.465 112.917 126.865 111.969 129.32 111.812C130.042 111.756 130.777 111.757 131.5 111.812C133.842 111.958 136.177 112.817 137.876 114.437C138.309 114.851 138.684 115.32 139.042 115.798C139.042 114.659 139.042 113.522 139.042 112.385C141.782 112.385 144.522 112.385 147.261 112.385C147.692 112.385 148.123 112.371 148.553 112.414C145.925 113.004 143.312 113.661 140.687 114.262C140.686 114.894 140.686 115.525 140.687 116.157C142.314 116.527 143.922 116.989 145.567 117.277C143.934 117.641 142.309 118.033 140.687 118.443C140.686 119.074 140.687 119.705 140.687 120.336C143.621 121.008 146.546 121.723 149.477 122.413C149.47 121.726 149.476 121.038 149.474 120.352C148.228 120.104 146.986 119.839 145.742 119.586C145.182 119.461 144.621 119.347 144.048 119.297C145.865 118.936 147.666 118.506 149.477 118.118C149.468 117.573 149.473 117.03 149.474 116.486C147.674 116.073 145.87 115.682 144.065 115.296C145.877 114.991 147.669 114.577 149.474 114.235C149.471 113.618 149.474 113.001 149.473 112.385C149.951 112.385 150.431 112.385 150.911 112.385C150.909 115.426 150.913 118.468 150.909 121.509C151.784 119.718 152.931 118.047 154.363 116.638C155.91 115.154 157.734 113.941 159.725 113.11C162.428 111.966 165.397 111.457 168.334 111.526C169.039 111.513 169.744 111.531 170.445 111.609C174.551 111.98 178.604 113.577 181.598 116.403C182.836 117.552 183.888 118.89 184.726 120.346C184.716 117.693 184.725 115.038 184.722 112.385C188.507 112.385 192.292 112.385 196.077 112.385C196.078 114.194 196.075 116.005 196.079 117.814C197.044 116.379 198.236 115.081 199.636 114.044C201.049 113.003 202.713 112.318 204.448 111.994C205.871 111.757 207.323 111.715 208.76 111.843C210.644 112.054 212.509 112.684 213.999 113.858C215.783 115.214 216.908 117.255 217.467 119.372C217.823 120.746 217.999 122.17 217.967 123.589C217.967 131.779 217.967 139.97 217.967 148.16C214.01 148.16 210.054 148.16 206.097 148.16C206.097 141.179 206.097 134.198 206.097 127.217C206.123 126.151 206.009 125.069 205.649 124.056C205.38 123.281 204.874 122.567 204.157 122.135C203.203 121.535 202.023 121.458 200.923 121.533C199.974 121.641 199.014 121.994 198.351 122.69C197.199 123.77 196.818 125.38 196.653 126.881C196.559 128.101 196.598 129.326 196.591 130.549C196.591 136.419 196.591 142.291 196.591 148.16C192.634 148.16 188.677 148.16 184.722 148.16C184.726 145.508 184.714 142.857 184.728 140.205C183.685 142.001 182.317 143.617 180.686 144.927C177.952 147.131 174.541 148.441 171.042 148.852C170.944 148.861 170.849 148.869 170.756 148.88C170.541 148.913 170.326 148.92 170.115 148.956C168.577 149.054 167.029 149.058 165.495 148.884C161.485 148.47 157.535 146.887 154.613 144.119C153.063 142.696 151.852 140.94 150.92 139.074C150.899 142.103 150.917 145.132 150.912 148.161C149.507 148.163 148.104 148.156 146.701 148.165C147.611 147.893 148.433 147.325 148.935 146.522C149.344 145.851 149.431 145.052 149.474 144.287C149.475 143.426 149.473 142.563 149.474 141.703C147.23 141.703 144.985 141.703 142.742 141.703C142.742 140.929 142.742 140.155 142.742 139.382C144.985 139.382 147.231 139.382 149.474 139.382C149.474 138.709 149.474 138.036 149.474 137.364C146.545 137.364 143.616 137.364 140.687 137.364C140.686 139.734 140.689 142.105 140.684 144.477C140.684 145.269 140.859 146.092 141.347 146.74C141.843 147.463 142.647 147.922 143.484 148.167C138.749 148.153 134.014 148.165 129.279 148.161C129.279 140.911 129.279 133.661 129.279 126.411C129.203 125.124 128.955 123.753 128.078 122.744C127.263 121.82 125.961 121.471 124.754 121.517C123.473 121.473 122.111 121.897 121.262 122.878C120.414 123.847 120.058 125.125 119.9 126.369C119.725 127.958 119.78 129.56 119.773 131.157C119.773 136.825 119.773 142.493 119.773 148.162C115.817 148.162 111.86 148.162 107.904 148.162C107.903 146.922 107.905 145.681 107.903 144.442C106.959 145.65 105.726 146.627 104.355 147.33C102.674 148.203 100.803 148.678 98.9198 148.886C98.512 148.936 98.1034 148.969 97.6933 148.984C96.2192 149.077 94.7354 149.016 93.268 148.856C91.3338 148.606 89.4034 148.109 87.7078 147.136C86.3373 146.38 85.1741 145.286 84.3114 143.996C84.3278 145.385 84.3137 146.773 84.3181 148.162C80.3954 148.162 76.4741 148.162 72.5513 148.162C72.5439 146.562 72.5655 144.96 72.5402 143.36C71.9944 144.738 71.0474 145.966 69.8238 146.83C68.3542 147.88 66.5774 148.446 64.7841 148.653C63.5889 148.793 62.3832 148.804 61.1864 148.686C57.2286 148.343 53.4513 146.539 50.6738 143.759C47.569 140.72 45.8824 136.483 45.5573 132.229C45.4126 130.684 45.4559 129.129 45.5901 127.584C45.6221 127.377 45.6288 127.168 45.6594 126.961C45.8786 125.167 46.3126 123.392 47.0306 121.724C45.945 121.72 44.8608 121.724 43.7752 121.723C43.7752 130.536 43.7752 139.349 43.7752 148.163C39.8189 148.163 35.8626 148.163 31.9063 148.163C31.9063 139.349 31.9063 130.537 31.9063 121.723C30.5186 121.723 29.1318 121.723 27.7441 121.723C27.7441 118.611 27.7441 115.499 27.7441 112.388C29.1265 112.387 30.5074 112.39 31.8891 112.387C31.9271 110.84 31.8966 109.292 31.9048 107.745C31.9853 105.441 32.6191 103.086 34.0857 101.248C35.3317 99.6347 37.1413 98.5217 39.0598 97.8415ZM93.5573 120.064C92.8094 120.852 92.7565 122.156 93.3753 123.031C93.9592 123.822 94.9091 124.213 95.7971 124.576C97.7872 125.327 99.8273 125.943 101.79 126.763C103.618 127.53 105.428 128.407 106.96 129.67C107.28 129.968 107.643 130.225 107.904 130.581C107.904 127.88 107.904 125.178 107.904 122.476C105.232 122.476 102.56 122.476 99.8877 122.476C99.793 121.588 99.5678 120.653 98.9243 119.985C98.2726 119.269 97.2452 119 96.2952 119.042C95.308 119.062 94.2455 119.322 93.5573 120.064ZM64.286 120.623C64.1779 120.642 64.0713 120.658 63.9639 120.674C62.592 120.929 61.2983 121.601 60.3319 122.592C58.7333 124.11 57.9079 126.258 57.6119 128.388C57.4836 129.284 57.4754 130.189 57.5068 131.091C57.5634 131.535 57.5985 131.98 57.6648 132.422C57.9571 134.078 58.5551 135.708 59.6064 137.049C60.707 138.487 62.3459 139.543 64.1705 139.822C66.4245 140.182 68.7613 139.233 70.2667 137.582C71.7259 136.032 72.529 133.978 72.7959 131.903C72.8064 131.808 72.8168 131.716 72.8287 131.622C72.9696 130.438 72.9189 129.241 72.7214 128.067C72.7161 128.022 72.7049 127.933 72.6982 127.889C72.3769 126.321 71.8005 124.776 70.7954 123.503C69.7135 122.083 68.1357 120.996 66.3425 120.673C66.2336 120.658 66.1255 120.641 66.0189 120.623C65.4418 120.54 64.8609 120.54 64.286 120.623ZM164.03 122.794C162.439 124.112 161.608 126.099 161.252 128.073C161.187 128.515 161.151 128.961 161.096 129.404C161.078 129.999 161.078 130.595 161.096 131.193C161.152 131.635 161.187 132.082 161.254 132.523C161.57 134.315 162.267 136.117 163.62 137.405C165.002 138.832 167.129 139.445 169.093 139.166C169.199 139.147 169.307 139.13 169.417 139.116C170.375 138.922 171.303 138.546 172.075 137.951C173.729 136.688 174.639 134.712 174.996 132.726C175.095 132.128 175.164 131.525 175.179 130.919C175.287 130.281 175.151 129.639 175.154 128.999C175.096 128.623 175.061 128.245 174.995 127.87C174.645 125.924 173.811 123.956 172.208 122.691C169.926 120.811 166.255 120.837 164.03 122.794ZM141.773 123.467C141.039 124.109 140.545 125.009 140.434 125.971C140.427 126.164 140.427 126.357 140.434 126.552C140.553 127.617 141.149 128.609 142.022 129.249C142.626 129.716 143.368 129.993 144.121 130.132C144.23 130.148 144.34 130.168 144.45 130.19C144.851 130.2 145.254 130.2 145.657 130.19C145.763 130.168 145.873 130.148 145.986 130.132C146.741 129.994 147.479 129.714 148.082 129.24C149.29 128.363 149.992 126.747 149.525 125.304C148.985 123.463 147.009 122.256 145.101 122.323C143.896 122.266 142.679 122.689 141.773 123.467ZM84.3144 128.035C84.3234 131.16 84.3152 134.286 84.3181 137.413C87.0583 137.413 89.7978 137.414 92.5372 137.412C92.5238 138.383 92.664 139.453 93.3492 140.205C93.857 140.814 94.6429 141.096 95.4087 141.233C95.5526 141.247 95.6995 141.26 95.8434 141.29C96.1066 141.3 96.3705 141.3 96.6352 141.29C96.7776 141.261 96.923 141.247 97.0684 141.233C97.9692 141.087 98.8773 140.653 99.3672 139.869C99.8556 139.095 99.8616 138.058 99.4127 137.267C98.8393 136.385 97.8513 135.896 96.9029 135.493C93.3679 133.983 89.5338 132.97 86.432 130.635C85.547 129.93 84.8475 129.017 84.3144 128.035ZM140.686 131.055C140.686 131.694 140.686 132.333 140.686 132.973C141.796 132.973 142.905 132.972 144.015 132.973C142.909 133.525 141.796 134.065 140.686 134.611C140.686 135.376 140.686 136.14 140.686 136.907C141.85 136.238 143.022 135.581 144.185 134.913C144.34 135.318 144.534 135.734 144.892 136.009C145.347 136.385 145.951 136.5 146.526 136.552C147.362 136.59 148.273 136.369 148.847 135.734C149.327 135.286 149.43 134.605 149.471 133.987C149.477 133.01 149.47 132.032 149.473 131.055C146.544 131.055 143.615 131.055 140.686 131.055ZM142.89 97.3912C144.813 96.7139 147.077 97.0815 148.659 98.357C150.363 99.6493 151.201 101.889 150.846 103.966C150.518 105.929 149.119 107.676 147.247 108.437C145.97 108.975 144.505 109.049 143.172 108.665C141.035 108.065 139.33 106.22 138.951 104.066C138.936 103.959 138.918 103.854 138.9 103.747C138.89 103.376 138.79 103.004 138.869 102.634C138.957 100.297 140.639 98.1314 142.89 97.3912ZM144.311 124.403C145.153 124.256 146.091 124.338 146.809 124.833C147.34 125.174 147.702 125.808 147.615 126.44C147.549 126.897 147.296 127.335 146.908 127.6C146.166 128.149 145.165 128.295 144.271 128.092C143.668 127.968 143.072 127.652 142.741 127.125C142.369 126.596 142.408 125.845 142.77 125.321C143.118 124.817 143.711 124.518 144.311 124.403ZM145.307 132.973C146.081 132.973 146.854 132.969 147.628 132.975C147.613 133.408 147.648 133.911 147.343 134.261C146.945 134.592 146.346 134.61 145.871 134.459C145.292 134.212 145.3 133.496 145.307 132.973ZM142.63 143.72C144.242 143.72 145.856 143.72 147.469 143.72C147.507 144.407 147.457 145.157 146.971 145.699C146.433 146.225 145.624 146.316 144.901 146.297C144.281 146.286 143.591 146.154 143.163 145.676C142.9 145.424 142.794 145.067 142.696 144.73C142.676 144.393 142.627 144.057 142.63 143.72Z" fill="white"/>
</svg>
