<svg width="245" height="245" viewBox="0 0 245 245" fill="none" xmlns="http://www.w3.org/2000/svg">
<g clip-path="url(#clip0_99_17)">
<path d="M184.017 98.1182H171.557V110.642H184.017V98.1182Z" fill="white"/>
<path d="M184.017 47.3838H171.557V59.3936H184.017V47.3838Z" fill="white"/>
<path d="M134.177 98.1182H121.717V110.642H134.177V98.1182Z" fill="white"/>
<path d="M134.177 47.3838H121.717V59.3936H134.177V47.3838Z" fill="white"/>
<path d="M159.097 98.1182H146.637V110.642H159.097V98.1182Z" fill="white"/>
<path d="M159.097 47.3838H146.637V59.3936H159.097V47.3838Z" fill="white"/>
<path d="M170.892 110.643H158.432V123.167H170.892V110.643Z" fill="white"/>
<path d="M170.892 135.783H158.432V148.307H170.892V135.783Z" fill="white"/>
<path d="M145.972 110.643H133.512V123.167H145.972V110.643Z" fill="white"/>
<path d="M145.972 135.783H133.512V148.307H145.972V135.783Z" fill="white"/>
<path d="M183.352 123.166H170.893V135.689H183.352V123.166Z" fill="white"/>
<path d="M183.352 148.308H170.893V160.832H183.352V148.308Z" fill="white"/>
<path d="M133.513 123.166H121.053V135.689H133.513V123.166Z" fill="white"/>
<path d="M133.513 148.308H121.053V160.832H133.513V148.308Z" fill="white"/>
<path d="M158.433 123.166H145.973V135.689H158.433V123.166Z" fill="white"/>
<path d="M158.433 148.308H145.973V160.832H158.433V148.308Z" fill="white"/>
<mask id="mask0_99_17" style="mask-type:luminance" maskUnits="userSpaceOnUse" x="60" y="47" width="125" height="151">
<path d="M60 198H185V47H60V198Z" fill="white"/>
</mask>
<g mask="url(#mask0_99_17)">
<path d="M72.0241 90.3589C73.2265 89.2796 73.8277 87.5419 73.8277 85.1458V79.9854H68.3712V84.8971C68.3908 85.4084 68.2932 85.9174 68.0858 86.3847C67.9988 86.568 67.8589 86.7208 67.6843 86.823C67.5096 86.9252 67.3084 86.9722 67.1069 86.9578C66.9227 86.9668 66.7392 86.9289 66.5734 86.8476C66.4076 86.7664 66.265 86.6444 66.1586 86.4929C65.9375 86.183 65.8271 85.6512 65.8273 84.8976V71.2473C65.8068 70.7459 65.8962 70.2461 66.0891 69.7833C66.1832 69.5987 66.331 69.4471 66.5127 69.3489C66.6945 69.2506 66.9017 69.2101 67.1069 69.233C67.2889 69.2193 67.4715 69.2512 67.6383 69.3257C67.8051 69.4003 67.951 69.5152 68.0628 69.6603C68.268 69.9434 68.3708 70.4929 68.3712 71.3088V75.3371H73.7651V70.6271C73.7651 69.1914 73.4774 68.0009 72.9021 67.0557C72.3421 66.1244 71.518 65.3826 70.5356 64.9254C69.4594 64.4347 68.2879 64.1914 67.1063 64.2133C64.7527 64.2133 63.0544 64.9159 62.0114 66.3213C60.9685 67.7267 60.4471 69.7512 60.4473 72.395V84.9746C60.4473 87.185 61.0457 88.9048 62.2427 90.1341C63.4396 91.3634 65.0196 91.978 66.9827 91.9778C69.141 91.9778 70.8213 91.4382 72.0235 90.3589M80.1633 91.7294L80.5034 87.329H83.7695L84.1558 91.7294H89.2889L86.7147 64.4605H77.512L74.8913 91.7294H80.1633ZM81.9205 69.1082H82.1671L83.354 82.9759H80.8883L81.9205 69.1082ZM96.4414 91.7294V79.2883C96.9785 79.2511 97.5163 79.3497 98.0058 79.5751C98.3298 79.7664 98.4917 80.2595 98.4916 81.0545V91.7294H103.841V81.4108C103.876 80.5068 103.699 79.6071 103.324 78.7843C103.146 78.4444 102.89 78.1516 102.578 77.9295C102.266 77.7075 101.907 77.5625 101.528 77.5064C101.996 77.3774 102.429 77.1448 102.796 76.8258C103.163 76.5067 103.454 76.1092 103.648 75.6625C104.023 74.7744 104.21 73.5865 104.21 72.0987C104.228 70.7496 104.107 69.4021 103.848 68.0781C103.672 67.0581 103.172 66.123 102.422 65.4131C101.713 64.7781 100.665 64.4605 99.2766 64.4605H90.9537V91.7294H96.4414ZM96.472 69.5096H97.736C97.9218 69.4902 98.109 69.527 98.2738 69.6154C98.4386 69.7038 98.5733 69.8396 98.6608 70.0055C98.8251 70.336 98.9073 71.0331 98.9073 72.097C98.9073 73.7396 98.5322 74.5609 97.7819 74.5609H96.472V69.5096ZM110.993 64.4588H105.752V91.7294H110.993V64.4588ZM110.993 91.7283H120.504C122.096 91.7283 123.324 91.3616 124.188 90.6284C125.096 89.8189 125.723 88.7384 125.976 87.5449C126.327 86.0265 126.492 84.471 126.469 82.9124C126.505 81.4947 126.294 80.0816 125.846 78.7368C125.659 78.191 125.334 77.7034 124.903 77.3218C124.472 76.9402 123.95 76.6776 123.388 76.5598C123.824 76.4569 124.234 76.2649 124.594 75.9957C124.953 75.7264 125.253 75.3857 125.476 74.9947C125.933 74.1996 126.162 73.1615 126.162 71.8805V70.6878C126.162 68.4671 125.712 66.8739 124.813 65.908C123.914 64.9421 122.478 64.4592 120.505 64.4594H113.151V91.7294L110.993 91.7283ZM118.453 68.6749H119.593C120.364 68.6749 120.749 69.1139 120.749 69.9918V72.7346C120.76 73.2136 120.687 73.6908 120.533 74.1444C120.389 74.5373 120.065 74.7336 119.562 74.7332H118.453V68.6749ZM118.453 86.8957V78.9937H119.455C120.093 78.9937 120.527 79.2184 120.759 79.6677C121.015 80.2437 121.134 80.8722 121.105 81.5026V84.9125C121.105 86.2553 120.401 86.9268 118.993 86.9268C118.859 86.9268 118.68 86.9163 118.454 86.8954M135.61 91.7294C137.203 91.7294 138.431 91.3628 139.295 90.6295C140.203 89.8201 140.83 88.7395 141.083 87.5461C141.433 86.0277 141.599 84.4721 141.576 82.9135C141.612 81.4958 141.401 80.0827 140.953 78.7379C140.766 78.1921 140.441 77.7046 140.01 77.3229C139.579 76.9413 139.057 76.6787 138.495 76.5609C138.931 76.4581 139.341 76.266 139.701 75.9968C140.06 75.7275 140.36 75.3868 140.583 74.9959C141.04 74.2007 141.269 73.1626 141.269 71.8817V70.6889C141.269 68.4683 140.82 66.875 139.921 65.9091C139.021 64.9432 137.586 64.4603 135.613 64.4605H128.257V91.7294H135.61ZM133.56 68.6749H134.701C135.471 68.6749 135.857 69.1139 135.857 69.9918V72.7346C135.868 73.2136 135.795 73.6908 135.641 74.1444C135.497 74.5373 135.173 74.7336 134.67 74.7332H133.559L133.56 68.6749ZM133.56 86.8957V78.9937H134.562C135.199 78.9937 135.633 79.2184 135.866 79.6677C136.122 80.2437 136.24 80.8722 136.211 81.5026V84.9125C136.211 86.2553 135.507 86.9268 134.1 86.9268C133.966 86.9268 133.787 86.9163 133.561 86.8954M154.57 91.7294V86.4154H148.882V80.1717H153.999V75.044H148.882V69.7283H154.216V64.4605H143.364V91.7294H154.57ZM160.891 91.7294L161.231 87.329H164.498L164.882 91.7294H170.015L167.441 64.46H158.239L155.619 91.7294H160.891ZM162.648 69.1082H162.894L164.081 82.9753H161.615L162.648 69.1082ZM176.983 91.7294V78.095L179.696 91.7294H184.999V64.4605H179.758V77.5218L177.26 64.4605H171.681V91.7294H176.983Z" fill="white"/>
<path d="M113.654 160.831V145.413H86.3329C86.5913 145.182 86.8642 144.969 87.1499 144.774C87.5728 144.47 88.2384 143.999 89.1468 143.36C90.0553 142.721 91.2352 141.915 92.6867 140.943C95.5304 139.058 98.1627 137.203 100.584 135.376C102.876 133.664 105.031 131.773 107.028 129.721C108.826 127.887 110.299 125.758 111.385 123.425C112.44 121.044 112.967 118.46 112.928 115.853C112.966 113.173 112.392 110.52 111.248 108.099C110.112 105.769 108.468 103.726 106.438 102.123C104.182 100.365 101.608 99.0641 98.8594 98.2915C95.6116 97.3716 92.249 96.9261 88.8751 96.9686C82.8856 96.9686 77.9087 97.8505 73.9444 99.6142C69.98 101.378 67.0151 103.841 65.0495 107.004C63.0824 110.167 62.0992 113.909 62.0998 118.227V119.185C62.101 119.537 62.1313 119.888 62.1905 120.234H78.3463V118.411C78.3213 116.871 78.6802 115.349 79.3904 113.984C80.0696 112.692 81.1109 111.63 82.3852 110.927C83.6859 110.198 85.2743 109.833 87.1505 109.833C89.0267 109.833 90.5242 110.152 91.6431 110.791C92.6903 111.358 93.5559 112.212 94.1391 113.254C94.6808 114.246 94.962 115.361 94.9562 116.493C94.9551 118.442 94.2449 120.324 92.9593 121.784C91.4322 123.543 89.6946 125.106 87.7859 126.437C85.6673 127.958 83.3982 129.63 80.9786 131.455C78.619 133.219 76.3196 135.029 74.0807 136.883C71.9026 138.68 69.8552 140.632 67.9542 142.723C66.1803 144.654 64.6972 146.836 63.5522 149.2C62.4671 151.461 61.9083 153.942 61.9181 156.453V160.831H113.654Z" fill="white"/>
<path d="M62.4405 59.3078V53.7776H64.7293V51.428H62.4405V49.4878H64.8537V47.1108H60V59.3078H62.4405ZM68.0871 59.3078V53.7429C68.3274 53.7263 68.568 53.7703 68.7872 53.8708C68.9319 53.9564 69.0043 54.1771 69.0043 54.5328V59.3078H71.3965V54.6929C71.4122 54.2887 71.3332 53.8865 71.1658 53.5187C71.0861 53.3666 70.9718 53.2355 70.8322 53.1362C70.6925 53.0368 70.5316 52.972 70.3624 52.9469C70.5715 52.8891 70.7652 52.785 70.9293 52.6424C71.0933 52.4997 71.2236 52.322 71.3107 52.1222C71.4976 51.6122 71.5831 51.0702 71.5623 50.527C71.5703 49.9235 71.516 49.3208 71.4002 48.7286C71.3218 48.2723 71.098 47.854 70.7625 47.5367C70.3622 47.2248 69.8614 47.0726 69.3563 47.1094H65.6325V59.3078H68.0871ZM68.1013 49.3701H68.6681C68.7512 49.3615 68.8349 49.378 68.9085 49.4175C68.9822 49.457 69.0425 49.5176 69.0816 49.5917C69.1771 49.8937 69.2146 50.2112 69.1919 50.5273C69.1919 51.262 69.0241 51.6293 68.6885 51.6291H68.101L68.1013 49.3701ZM77.4822 58.5349C77.9944 57.9462 78.2507 57.095 78.2508 55.9814V50.188C78.2508 49.1435 77.9969 48.351 77.489 47.8107C76.9812 47.2704 76.237 47.0002 75.2566 47C74.2777 47 73.5343 47.2702 73.0264 47.8105C72.5186 48.3508 72.2645 49.1432 72.2643 50.1877V55.9811C72.2643 57.0947 72.5206 57.9459 73.0332 58.5347C73.5458 59.1234 74.287 59.4178 75.2566 59.4178C76.2264 59.4178 76.9677 59.1234 77.4805 58.5347M74.8233 56.9274C74.7135 56.6708 74.6662 56.3916 74.6852 56.113V50.1669C74.6852 49.5523 74.8875 49.2451 75.292 49.2451C75.651 49.2451 75.8305 49.5453 75.8305 50.1458V56.0996C75.8305 56.8156 75.6467 57.1735 75.279 57.1733C75.1878 57.18 75.0965 57.1605 75.0159 57.117C74.9353 57.0735 74.8687 57.0078 74.8238 56.9277M81.4219 59.3081V50.5207L82.8974 59.3081H85.076L86.4686 50.5207V59.3078H88.6886V47.1108H84.9583L83.9451 54.5459L82.9249 47.1108H79.2292V59.3078L81.4219 59.3081ZM96.5419 59.3081V49.453H97.9828V47.1108H92.6734V49.453H94.1145V59.3078L96.5419 59.3081ZM101.072 59.3081V53.7776H102.216V59.3078H104.629V47.1108H102.216V51.4693H101.072V47.1108H98.6579V59.3078L101.072 59.3081ZM110.717 59.3081V56.9303H108.173V54.1385H110.462V51.8448H108.173V49.4667H110.559V47.1108H105.705V59.3078L110.717 59.3081Z" fill="white"/>
<path d="M73.0994 196.253C74.3972 195.088 75.0461 193.212 75.0461 190.626V185.057H69.1563V190.358C69.1777 190.91 69.0726 191.459 68.8491 191.964C68.7551 192.161 68.604 192.326 68.4155 192.437C68.227 192.547 68.0098 192.598 67.7922 192.582C67.5933 192.592 67.3951 192.551 67.216 192.463C67.0369 192.376 66.8828 192.244 66.768 192.08C66.5295 191.746 66.4103 191.172 66.4103 190.358V175.625C66.3881 175.084 66.4849 174.545 66.6937 174.045C66.8827 173.649 67.2485 173.452 67.7914 173.452C67.988 173.436 68.1853 173.471 68.3655 173.551C68.5457 173.632 68.7032 173.756 68.8238 173.913C69.0456 174.219 69.1565 174.812 69.1563 175.693V180.04H74.9792V174.957C74.9792 173.407 74.6687 172.123 74.0477 171.102C73.4432 170.097 72.5539 169.297 71.4939 168.803C70.3322 168.273 69.0676 168.01 67.7922 168.034C65.2525 168.034 63.4197 168.792 62.294 170.308C61.1683 171.824 60.6055 174.009 60.6055 176.863V190.442C60.6055 192.827 61.2516 194.684 62.544 196.01C63.8364 197.336 65.5416 198 67.6596 198C69.9885 198 71.8023 197.418 73.1011 196.253M89.3454 195.868C90.5818 194.446 91.2 192.392 91.2 189.706V175.726C91.2 173.207 90.5874 171.295 89.3621 169.99C88.1368 168.686 86.3426 168.034 83.9795 168.034C81.6178 168.034 79.8239 168.686 78.5978 169.99C77.3718 171.294 76.759 173.206 76.7594 175.726V189.706C76.7594 192.393 77.3778 194.447 78.6146 195.868C79.8514 197.289 81.6397 198 83.9795 198C86.3196 198 88.1081 197.289 89.3451 195.868M82.9318 191.988C82.7096 191.593 82.5986 190.938 82.5988 190.023V175.676C82.5988 174.193 83.0868 173.452 84.0629 173.452C84.928 173.452 85.3606 174.176 85.3606 175.625V189.99C85.3606 191.718 84.9166 192.582 84.0286 192.582C83.8083 192.599 83.588 192.551 83.3935 192.446C83.199 192.341 83.0385 192.182 82.9306 191.989M104.243 197.733L107.854 168.285H102.279L100.367 188.318L98.221 168.285H92.6474L96.2578 197.732L104.243 197.733ZM121.645 197.733V191.997H115.506V185.258H121.029V179.722H115.507V173.987H121.263V168.301H109.55V197.732L121.645 197.733ZM129.297 197.733V183.017L132.225 197.732H137.947V168.301H132.293V182.398L129.597 168.301H123.575V197.732L129.297 197.733ZM148.911 197.733V173.954H152.389V168.301H139.579V173.953H143.056V197.732L148.911 197.733ZM159.941 197.733V184.305C160.717 184.305 161.28 184.408 161.63 184.614C161.979 184.82 162.154 185.352 162.154 186.211V197.732H167.927V186.595C167.965 185.62 167.774 184.649 167.369 183.761C167.177 183.394 166.901 183.078 166.564 182.838C166.227 182.599 165.839 182.442 165.431 182.381C165.936 182.242 166.403 181.991 166.799 181.647C167.195 181.303 167.509 180.874 167.719 180.391C168.123 179.433 168.326 178.151 168.326 176.546C168.345 175.09 168.214 173.635 167.935 172.206C167.745 171.105 167.206 170.095 166.396 169.329C165.632 168.644 164.501 168.301 163.004 168.301H154.02V197.732L159.941 197.733ZM159.974 173.753H161.338C161.539 173.732 161.741 173.772 161.919 173.867C162.097 173.963 162.242 174.109 162.337 174.288C162.514 174.645 162.603 175.398 162.603 176.546C162.603 178.319 162.198 179.205 161.388 179.205H159.974V173.753ZM179.323 197.733V188.05L183.983 168.301H178.193L176.562 178.268L174.932 168.301H169.126L173.802 188.05V197.732L179.323 197.733Z" fill="white"/>
</g>
</g>
<defs>
<clipPath id="clip0_99_17">
<rect width="125" height="151" fill="white" transform="translate(60 47)"/>
</clipPath>
</defs>
</svg>
