<?xml version="1.0" encoding="utf-8"?>
<!-- Generator: Adobe Illustrator 25.2.1, SVG Export Plug-In . SVG Version: 6.00 Build 0)  -->
<svg version="1.1" id="Layer_1" xmlns="http://www.w3.org/2000/svg" xmlns:xlink="http://www.w3.org/1999/xlink" x="0px" y="0px"
	 viewBox="0 0 22 22" style="enable-background:new 0 0 22 22;" xml:space="preserve">
<style type="text/css">
	.st0{fill-rule:evenodd;clip-rule:evenodd;fill:#FFFFFF;}
</style>
<path class="st0" d="M10.4,1.5C4.7,1.5,0.2,6.2,0.2,11.8c0,4.5,2.8,8.3,7,9.8c0.5,0.1,0.7-0.2,0.7-0.5c0-0.3,0-0.9,0-1.7
	C5,20,4.4,18,4.4,18c-0.2-0.7-0.6-1.1-1.1-1.5c-0.9-0.7,0.1-0.7,0.1-0.7c0.7,0.1,1.2,0.5,1.6,1c0.6,1,1.9,1.4,3,0.9
	c0-0.5,0.3-1,0.7-1.4C6.4,16,4,15.2,4,11.2c0-1,0.4-2,1-2.7C4.7,7.6,4.7,6.5,5.1,5.7c0,0,0.9-0.3,2.8,1c0.9-0.2,1.7-0.4,2.6-0.4
	c0.9,0,1.7,0.1,2.6,0.3c2-1.3,2.8-1,2.8-1c0.4,0.9,0.4,1.8,0.1,2.7c0.7,0.8,1,1.7,1,2.7c0,4-2.4,4.8-4.6,5.1
	c0.5,0.5,0.8,1.2,0.7,1.9c0,1.3,0,2.5,0,2.8c0,0.4,0.2,0.6,0.7,0.5c5.4-1.8,8.2-7.7,6.4-13.1C18.7,4.4,14.8,1.5,10.4,1.5z"/>
</svg>
