<svg width="245" height="245" viewBox="0 0 245 245" fill="none" xmlns="http://www.w3.org/2000/svg">
<path d="M63.1909 97.5138C63.8727 97.5138 64.2168 97.8561 64.2168 98.5364V139.805C64.2168 141.066 63.9707 142.258 63.485 143.371C63.02 144.458 62.3502 145.447 61.5116 146.283C60.6818 147.111 59.7038 147.765 58.5843 148.248C57.4524 148.734 56.2319 148.982 54.9992 148.976H52.2178C50.985 148.983 49.7643 148.735 48.6326 148.248C47.5397 147.785 46.5461 147.118 45.7053 146.283C44.8668 145.447 44.1969 144.458 43.732 143.371C43.243 142.246 42.9938 141.031 43.0001 139.805V130.555C43.0001 129.877 43.3203 129.442 43.9541 129.247L50.6147 127.496C51.2463 127.301 51.5665 127.546 51.5665 128.224V139.432C51.5665 139.915 51.7408 140.331 52.0784 140.667C52.2389 140.833 52.432 140.963 52.6457 141.051C52.8593 141.138 53.0888 141.181 53.3199 141.176H53.9036C54.1345 141.18 54.3636 141.137 54.5771 141.049C54.7905 140.961 54.9838 140.832 55.1451 140.667C55.3103 140.507 55.4409 140.315 55.5289 140.102C55.6169 139.89 55.6605 139.662 55.657 139.432V98.5256C55.657 97.8453 55.9946 97.5029 56.6828 97.5029H63.1909V97.5138ZM90.6239 147.447C90.7241 148.125 90.4279 148.467 89.7461 148.467H83.0921C82.4583 148.467 82.0902 148.131 81.9965 147.447L81.4128 139.586H76.8737L76.2899 147.447C76.1919 148.125 75.8282 148.467 75.1944 148.467H68.5294C67.8455 148.467 67.5493 148.131 67.6495 147.447L73.1339 98.5299C73.2319 97.8496 73.6196 97.5073 74.3035 97.5073H83.9655C84.6472 97.5073 85.0327 97.8496 85.1329 98.5299L90.6239 147.447ZM80.8225 131.431L79.4329 111.708H78.847L77.453 131.431H80.8225Z" fill="white"/>
<path d="M109.615 97.7281C110.735 98.2113 111.713 98.8656 112.543 99.6911C113.375 100.519 114.032 101.489 114.518 102.603C115.004 103.723 115.25 104.911 115.25 106.169V111.993C115.25 112.674 114.93 113.114 114.296 113.304L107.635 114.325C107.004 114.52 106.684 114.277 106.684 113.597V106.538C106.687 106.308 106.644 106.08 106.556 105.868C106.468 105.656 106.337 105.463 106.172 105.303C106.01 105.139 105.817 105.009 105.603 104.922C105.39 104.834 105.161 104.791 104.93 104.794H104.347C104.116 104.79 103.887 104.833 103.673 104.921C103.46 105.009 103.266 105.138 103.105 105.303C102.939 105.463 102.808 105.655 102.72 105.867C102.632 106.08 102.589 106.308 102.593 106.538V139.439C102.593 139.922 102.767 140.338 103.103 140.674C103.263 140.839 103.457 140.97 103.67 141.057C103.884 141.145 104.113 141.188 104.344 141.183H104.93C105.161 141.186 105.39 141.143 105.604 141.055C105.817 140.968 106.01 140.838 106.172 140.674C106.337 140.513 106.468 140.321 106.556 140.109C106.644 139.896 106.687 139.668 106.684 139.439V129.247C106.684 128.566 107.002 128.321 107.635 128.519L114.296 129.394C114.93 129.589 115.25 130.022 115.25 130.703V139.798C115.25 141.059 115.004 142.253 114.518 143.367C114.053 144.454 113.382 145.442 112.543 146.279C111.715 147.102 110.735 147.759 109.615 148.242C108.483 148.728 107.263 148.975 106.03 148.97H103.251C102.018 148.976 100.798 148.728 99.6659 148.242C98.5731 147.779 97.5795 147.113 96.7385 146.279C95.9 145.442 95.2302 144.454 94.7652 143.367C94.2759 142.24 94.0267 141.025 94.0333 139.798V106.172C94.0333 104.911 94.2795 103.723 94.7652 102.603C95.2509 101.489 95.9087 100.519 96.7385 99.6911C97.5795 98.857 98.5731 98.1907 99.6659 97.7281C100.798 97.2417 102.018 96.9938 103.251 97.0001H106.03C107.298 97.0001 108.491 97.2449 109.615 97.7281Z" fill="white"/>
<path d="M141.557 147.447C141.655 148.125 141.361 148.467 140.677 148.467H134.017C133.385 148.467 133.015 148.131 132.923 147.447L132.338 139.586H127.801L127.215 147.447C127.117 148.125 126.755 148.467 126.121 148.467H119.461C118.779 148.467 118.483 148.131 118.581 147.447L124.067 98.5298C124.165 97.8494 124.553 97.5071 125.235 97.5071H134.897C135.579 97.5071 135.966 97.8494 136.064 98.5298L141.557 147.447ZM131.747 131.431L130.358 111.707H129.774L128.384 131.431H131.747ZM174.011 98.5298V147.447C174.011 148.125 173.667 148.467 172.983 148.467H165.961C165.277 148.467 164.933 148.131 164.933 147.447V124.443L160.106 143.226C160.006 143.471 159.884 143.586 159.742 143.586C159.601 143.586 159.472 143.464 159.378 143.226L154.552 124.443V147.447C154.552 148.125 154.208 148.467 153.524 148.467H146.502C145.82 148.467 145.474 148.131 145.474 147.447V98.5298C145.474 97.8494 145.813 97.5071 146.502 97.5071H152.72C153.014 97.5071 153.265 97.6176 153.489 97.8386C153.693 98.0342 153.853 98.2695 153.962 98.5298L159.742 124.59L165.523 98.5298C165.634 98.2698 165.795 98.0341 165.998 97.8364C166.096 97.7319 166.215 97.6487 166.348 97.5921C166.48 97.5354 166.622 97.5065 166.767 97.5071H172.983C173.667 97.5136 174.011 97.8494 174.011 98.5298ZM199.889 139.798C199.889 141.059 199.642 142.253 199.157 143.367C198.692 144.454 198.022 145.442 197.183 146.279C196.354 147.102 195.376 147.759 194.256 148.242C193.124 148.728 191.904 148.975 190.671 148.97H187.89C186.657 148.976 185.436 148.728 184.304 148.242C183.212 147.779 182.218 147.113 181.377 146.279C180.539 145.442 179.869 144.454 179.404 143.367C178.914 142.24 178.665 141.025 178.672 139.798V106.172C178.672 104.911 178.918 103.723 179.404 102.603C179.889 101.489 180.547 100.519 181.377 99.6911C182.218 98.857 183.212 98.1907 184.304 97.7281C185.436 97.2417 186.657 96.9938 187.89 97.0001H190.673C191.939 97.0001 193.132 97.2449 194.258 97.7281C195.378 98.2113 196.356 98.8656 197.186 99.6911C198.013 100.519 198.673 101.489 199.159 102.603C199.645 103.723 199.891 104.911 199.891 106.169L199.889 139.798ZM191.329 106.538C191.332 106.308 191.289 106.08 191.201 105.868C191.113 105.656 190.982 105.463 190.817 105.303C190.655 105.139 190.462 105.009 190.248 104.922C190.035 104.834 189.806 104.791 189.575 104.794H188.992C188.761 104.79 188.532 104.833 188.318 104.921C188.105 105.009 187.911 105.138 187.75 105.303C187.584 105.463 187.453 105.655 187.365 105.867C187.277 106.08 187.234 106.308 187.238 106.538V139.439C187.238 139.922 187.413 140.338 187.748 140.674C187.908 140.839 188.102 140.97 188.315 141.057C188.529 141.145 188.758 141.188 188.989 141.183H189.575C189.806 141.186 190.035 141.143 190.249 141.055C190.462 140.968 190.656 140.838 190.817 140.674C190.982 140.513 191.113 140.321 191.201 140.109C191.289 139.896 191.332 139.668 191.329 139.439V106.538Z" fill="white"/>
</svg>
