<svg id="Layer_1" data-name="Layer 1" xmlns="http://www.w3.org/2000/svg" viewBox="0 0 22 22"><defs><style>.cls-1{fill:#fff;}</style></defs><path class="cls-1" d="M2.56.36A2.33,2.33,0,0,0,.06,2.71,2.31,2.31,0,0,0,2.49,5.06,2.34,2.34,0,0,0,5,2.71,2.33,2.33,0,0,0,2.56.36Z"/><rect class="cls-1" x="0.18" y="6.91" width="4.69" height="15.09"/><path class="cls-1" d="M16.6,6.57A4.72,4.72,0,0,0,12.31,9h-.09l0-2.1H7.49V22h4.88V13.3a3.49,3.49,0,0,1,.15-1.18,2.59,2.59,0,0,1,2.41-1.76c1.7,0,2.38,1.33,2.38,3.28V22H22V13.08C22,8.64,19.69,6.57,16.6,6.57Z"/></svg>