<svg width="35" height="28" viewBox="0 0 35 28" fill="none" xmlns="http://www.w3.org/2000/svg">
<path d="M33.1 0.999901C30.7 3.1999 28.9 5.46657 27.7 7.7999C26.5 10.1332 25.9 12.3999 25.9 14.5999C26.5667 14.2666 27.3333 14.0999 28.2 14.0999C30.0667 14.0999 31.6 14.6999 32.8 15.8999C33.9333 17.1666 34.5 18.7666 34.5 20.6999C34.5 22.8332 33.8333 24.5666 32.5 25.8999C31.1 27.2332 29.3667 27.8999 27.3 27.8999C25.1 27.8999 23.3333 27.1666 22 25.6999C20.6 24.2999 19.9 22.5332 19.9 20.3999C19.9 15.8666 20.6 12.0999 22 9.0999C23.4 6.0999 25.4333 3.46657 28.1 1.1999C28.7667 0.666564 29.7 0.399902 30.9 0.399902C31.8333 0.399902 32.5667 0.5999 33.1 0.999901Z" fill="white"/>
<path d="M14.1 0.999901C11.7 3.1999 9.9 5.46657 8.7 7.7999C7.5 10.1332 6.9 12.3999 6.9 14.5999C7.56667 14.2666 8.33333 14.0999 9.2 14.0999C11.0667 14.0999 12.6 14.6999 13.8 15.8999C14.9333 17.1666 15.5 18.7666 15.5 20.6999C15.5 22.8332 14.8333 24.5666 13.5 25.8999C12.1 27.2332 10.3667 27.8999 8.3 27.8999C6.1 27.8999 4.33333 27.1666 3 25.6999C1.6 24.2999 0.899998 22.5332 0.899998 20.3999C0.899998 15.8666 1.6 12.0999 3 9.0999C4.4 6.0999 6.43333 3.46657 9.1 1.1999C9.76667 0.666564 10.7 0.399902 11.9 0.399902C12.8333 0.399902 13.5667 0.5999 14.1 0.999901Z" fill="white"/>
</svg>
