<svg xmlns="http://www.w3.org/2000/svg" viewBox="0 0 1055.5 295.3"><defs><style>.cls-1{fill:#fff;}</style></defs><g id="Layer_2" data-name="Layer 2"><g id="_20160121175418_Image" data-name="20160121175418 Image"><path class="cls-1" d="M375.9,30.6c-.5,1.8-.9,3.7-1.6,5.6a38.9,38.9,0,0,0,2.2-13.5,16,16,0,0,0-1.5-5.5,8.6,8.6,0,0,0-3.4-3.7c-3.1-1.9-7.7-2.6-12.4-2.2a46.6,46.6,0,0,0-14,3.6,45.4,45.4,0,0,1,15.5-3.2,23.2,23.2,0,0,1,7.2,1,11.9,11.9,0,0,1,5,3.1,9.5,9.5,0,0,1,2.1,5,24.3,24.3,0,0,1-.1,7.1,62.5,62.5,0,0,1-5.1,15.5,33.9,33.9,0,0,1-1.8,3.9l-1.9,3.8-4.2,7.4a11.4,11.4,0,0,1-1,1.9,17.4,17.4,0,0,1-1.1,1.8l-2.2,3.5c-1.4,2.4-2.8,4.8-4.3,7l-4.4,6.6c-.6,1.1-1.4,2.2-2.1,3.3l-2.1,3.1c-1.5,2.1-2.8,4.1-4.1,6.1s-2.7,3.9-3.9,5.8-3.6,2.8-7.1,6.1l-11.9,11.8-11.5,11.4a61.9,61.9,0,0,0-5.3,5.4c-6.5,6.8-13.2,13.6-20.1,20.2l7.1-6.8c2.3-2.3,4.7-4.6,7-7-2.3,2.4-4.7,4.7-7,7l-7.1,6.8c-3.1,2.9-6.3,5.9-9.5,8.7l-28,24.5,34-14.3c13.1-5.5,26.8-10.7,40.8-15.5s28.4-9.2,43.1-12.8c7.4-1.7,14.8-3.3,22.2-4.4,3.8-.5,7.5-.9,11.2-1.1a52.9,52.9,0,0,1,10.6.4,18.5,18.5,0,0,1,4.5,1.1,8.5,8.5,0,0,1,2.9,1.7,3.1,3.1,0,0,1,.8,2,9.9,9.9,0,0,1-.4,3.6,37.2,37.2,0,0,1-4.2,9.2c-2,3.1-4.2,6.2-6.5,9.2-5.6,7.2-14.7,17.1-25.8,27.9l-8.7,8.2-4.6,4.3-4.6,4.1h-.1l-.8.5-2.1,1.8a15.5,15.5,0,0,0-1.9,2.4,24.4,24.4,0,0,0-1.4,2.8,13.4,13.4,0,0,0-.5,6.6,13.6,13.6,0,0,0,2.3,5.8,20,20,0,0,0,1.9,2.2,17.1,17.1,0,0,0,2,1.8,21.1,21.1,0,0,0,4.4,2.4,26.1,26.1,0,0,0,8.8,1.8,36,36,0,0,0,8.1-.6l3.8-.8,3.7-1.1,3.5-1.2,1.7-.7,1.6-.8a31.8,31.8,0,0,0,3.2-1.6l3.1-1.6c7.8-4.3,15-8.6,21.9-12.7L455.6,196l14.6-8.8-16.4,9.7c20-13.1,38.1-25,55.8-36.1-3.3,1.7-4,1.7-11.7,5.9l9.2-5.3c3.9-2.9,10.7-7.2,17.6-11.4l18.6-10.9c-1.7,1.5,5.6-2.4,12-5.2l-2.6.9,4.6-2,2.3-.9,2.1-.6c3.5-.8,7-1.6,10.5-2.2,7-1.3,14.1-2.2,20.6-1.4a22.5,22.5,0,0,1,8.5,2.9,13.5,13.5,0,0,1,3.2,2.6,21.6,21.6,0,0,1,2.4,3.5,27.8,27.8,0,0,1,1.6,4l.7,2.4c.3.9.5,1.8.8,2.6,1.2,3.3,2.5,6.5,3.8,9.4s2.8,5.7,3.4,7.2a117.1,117.1,0,0,0,6.9,10.4,119.4,119.4,0,0,0,7.8,9.5c-.8-.5,2.4,3.5,5.2,6.2l1.8,1.9,1,1c.1.2,0,.2-.4-.2l-2.2-1.9a143.3,143.3,0,0,0,22.2,16.7A106.6,106.6,0,0,0,684.2,217a137.7,137.7,0,0,0,22.9,6,169.8,169.8,0,0,0,23.7,2.3h12l3-.2,3-.2,6-.6c8-.9,15.8-2.2,23.7-3.5,15.6-2.7,31.2-5.9,46.8-9.3l46.3-10.1h-1.5c21.5-4.8,40.2-9.8,66.6-14.2,9.4-2.1,20.7-4.3,30.7-6.2l13.5-2.6a87,87,0,0,0,8.8-1.9c10.9-1.3,18.6-2.3,26.3-3a204.5,204.5,0,0,1,26.3-1c-1.4-.2-.7-.3.8-.3h3l3.5.3,5.5.3c.9,0,.6-.1-2.1-.6l-4.9-.7-3.9-.5-6-.3h-13.1l.4.2c-14.5.3-28.8,1.5-43,3.2s-28.4,3.7-42.6,6.1c-28.2,4.6-56.4,10.2-84.6,15.9-18.8,4.1-38.4,8.2-58.2,11.9-9.9,1.8-19.9,3.6-29.8,5-4.9.8-9.8,1.4-14.7,1.9l-7.3.6-3.6.2h-3.6a166.3,166.3,0,0,1-31.4-2.5,155.1,155.1,0,0,1-15.3-3.7l-3.7-1.3-1.9-.6-1.8-.7-3.6-1.4-3.6-1.6-3.5-1.6c-1.1-.6-2.3-1.1-3.4-1.8s-4.5-2.4-6.6-3.8-4.2-2.7-6.3-4.1-4-2.9-5.8-4.5-3.7-3.2-5.5-4.8-3.5-3.3-5.1-5a121.2,121.2,0,0,1-8.8-10.4,78.2,78.2,0,0,1-10.2-18.9c-.4-1-.7-1.9-1.1-2.8s-.8-1.9-1.1-2.8-1.1-3.6-2-6.4a27.5,27.5,0,0,0-3.7-7.5,27,27,0,0,0-6.4-6.2,24.3,24.3,0,0,0-8-3.7,39.1,39.1,0,0,0-8.2-1.4,69.5,69.5,0,0,0-15.9.9c-5.1.7-10.1,1.8-15.1,2.9l-2,.6-2.2.7c-1.3.5-2.6.9-3.8,1.5l-3.5,1.6-3.5,1.7c-9.1,4.6-17.7,9.6-26,14.5l1.6-1c-17.6,10.4-30.9,17.9-47.8,28.4.2.1-2.5,1.7-3.7,2.6s-7.4,4.4-16.9,10.4l-34.3,22-18.5,11.5-4.5,2.7-2.1,1.2-2.1,1.1a66.2,66.2,0,0,1-7.9,3.5,29.1,29.1,0,0,1-12.7,1.9,11,11,0,0,1-5.2-1.6l-.9-.6-.7-.6a3.7,3.7,0,0,1-.9-1.4,2.7,2.7,0,0,1,.8-3.1l.4-.4.5-.3.5-.3.6-.4.9-.9,3-2.6c4-3.5,7.9-7.1,11.8-10.7,7.8-7.2,15.3-14.6,22.4-22.4,3.5-3.9,7-7.9,10.1-12.1a78,78,0,0,0,8.5-13.6,33,33,0,0,0,2.8-8.2,19.6,19.6,0,0,0,.3-4.9,15.1,15.1,0,0,0-4.6-10.1,19.2,19.2,0,0,0-4.2-3,28.3,28.3,0,0,0-8.2-2.5,58.3,58.3,0,0,0-13.2,0,101.4,101.4,0,0,0-11.5,1.7,42.6,42.6,0,0,0-7.2,1.2c-2.1.5-4.3,1.1-8.1,1.8a162.1,162.1,0,0,0-21.4,4.2c-3.9,1.2-4.1,1.6.8.5-15.5,4.5-30.9,9.4-44.4,14.2-6.2,2.4-12.4,4.7-18.6,7.2a72.9,72.9,0,0,1-11.1,3.8h-.1l4.8,8.1c5.6-4.9,7.4-6.6,9.5-8.3s4.2-3.4,9.9-8.5c1.5-1.1,8.4-7.8,15-14.8,3.4-3.5,6.6-7.1,9.2-10l5.4-5.9-1.6,1.9,16.2-17.1,7.5-8.3c2.5-2.9,5-6.1,7.6-9.5s3.7-4.9,5.5-7.4l2.7-3.7,2.5-3.9,2.6-3.9,1.3-2,.6-1,.6-1,4.7-8.2A111.2,111.2,0,0,0,385.1,40l.8-2.3.6-2.5.6-2.5.4-2.6a36.8,36.8,0,0,0,0-11A22,22,0,0,0,382.4,8a22.6,22.6,0,0,0-10.2-6.6A34.2,34.2,0,0,0,361.4,0a54.7,54.7,0,0,0-10,1.3,59,59,0,0,0-9.3,2.9,68.4,68.4,0,0,0-8.6,4.2c-1.3.8-2.7,1.6-3.9,2.5L328,12l-1.9,1.2-3.6,2.5L319,18.3c0,.2.4-.2,1.2-.7l2.9-2.1c2.2-1.5,4.6-3,5-2.8A149.5,149.5,0,0,0,297.2,39a205,205,0,0,0-24,32.5l-7,10.9a37.5,37.5,0,0,0-3,5.9c-.4.9-.6,1.5-2,4.3l-.9.5c-3.6,8.5-6.3,11.9-9.5,19.9.1.5-1.1,3.4-2.3,6.3-.6-.1-3.4,8.7-3.7,8.1h0c-.6,1.8-1.1,3-1.9,5.1s-3.2,10.3-5.5,19.1-4.4,17.6-4.8,19.3l-.5,1.6c-1.3,4.6-1.4,6.8-.5,4.1l-1.6,5.7v-.6l-1.5,5.7c-.4,1.1-.9,2.2-.8.5-.6,3.3-1.4,7.1-2.3,10.3,2.5-9,6-20.2,9.3-29.5-.9,4-3.2,10.9-4.2,15.1s-4.6,15.3-6.7,23.5c-.4,1.8,0,3.1-1.2,7.1-.8,1.9-.9,4.7-1.9,8a115.2,115.2,0,0,1,2.3-11.7c-.7.6-2.4,9.5-3.1,12.6-.2,1.5-1.8,9.2-2.5,14-.1-2.2-1,3.9-1.8,6.7s-.7,5.4-.3,4.1c.4,1.1,2.5-13,2.3-8.3-.5,1.1-1.4,7.5-1.9,11,.3.1.6-2.3.5-.1-.6,3.9-.8,8-1.4,10.2,0-.8.3-2.3.4-3.5-.3,2.5.1-4.3.7-11s1.3-13.1.8-9.8c.3-.9-.6,6.3-1.2,13.3s-1.1,13.8-.9,12.1.3,2.3.8-.9v-3.6c.7-4.3,1.5-6,1.5-4.4-.5,3.6-.3-1.6,0-6.9s.9-10.8.6-7.7l.5-2.4a86.2,86.2,0,0,1-2,12.2c.3.1-.1,3.6-.4,6.6l-.2,1c-.3,3-.9,7.3-.2,5.4,1.1-9,1.5-5.9,1.9-2.8s.8,6.2,2-2.3c-1.6,7.1-.4-2.5.8-10a81,81,0,0,0,2.3-9.3c.8-4.7.3-2.8.3-3.7.6-2.5,1.6-7.4,1.9-6.7.3-3.7,1.4-5.7,2.1-10.1s-.2.3.2-2.5c1.2-5.7,3.1-13.6,4.3-18.1.7-1.7,2.6-6.8,2.2-2.8-2.2,8.5-.1-3.5-2.1,5.4,1.6-3.6-1.7,8-1.5,9.8,1-2.8,2.3-8.6,3.4-13.4l-.3.9a152,152,0,0,1,4.6-17.2c0,1.2.7-.8-.1,2.3l1.7-5.7c.1-.8.2-1.6-.3.1a63.2,63.2,0,0,1,2.2-7.5c.2-.3,2.2-8.1,4.3-15.6s4.4-14.7,4.4-14.2c1.4-4.1,2.2-4.9,3.4-9,0-.1-.9,2.3-2.1,5.8s-2.8,8.4-4.2,13c-2.9,9.3-5.1,18-4.4,15.2s3.9-13.5,7.8-25,8.2-22.8,8.9-23.9c1.3-2.9,2.8-6.5,2.2-5.9,2.4-4.9-.1,1.7,1.7-1.7,0-.1-.3.2.3-.9l1.8-3.2a141.9,141.9,0,0,1,6.4-13.2c2.4-4.6,5-9.2,7-13.2-1.1,2.4-2.1,5.2-4.5,10.3l-.6.8-1.3,2.7c-.5,1.1-.9,2.2-.7,2.2,2.6-4.7,4.7-8.7,7.3-13.8l1.8-2.5h-.2c1.1-1.5,1-1.3.8-.6s-.1.2-.2.3a20.9,20.9,0,0,0,2.8-3.9l2-3.3,2.3-3.6a119.6,119.6,0,0,1,10.3-14.4c1.7-2.3.1-.3,2.3-3.2a164.5,164.5,0,0,1,19.6-18.5c1.2-1.3,1.8-1.9,1.7-2a12.9,12.9,0,0,0-2.6,1.6l3.1-2.5,3.2-2.3c-2.6,2.5.5.5,3.5-1.3s6-3.5,3-.9l.9-.5.4-.3h.2l.2-.2.4-.2,2.2-1.5,2.5-1.5,2.7-1.6c.3-.3.7-1.2,5.6-3.1l2.2-.6,1.7-.5,2.1-.4a38.2,38.2,0,0,1,5.2-.7c.7.1.5.3.2.4s-.7.3-.6.4a16.8,16.8,0,0,1,7.9.2l1.3.3,1.3.5,1.6.7.9.5a5.3,5.3,0,0,1,1,.6,10.4,10.4,0,0,1,4.3,5.7,33.4,33.4,0,0,1,.8,3.5,4.7,4.7,0,0,0,.3,1.7,17.6,17.6,0,0,1-.9,5.9C376.2,31.2,376,31,375.9,30.6Z"/><path class="cls-1" d="M58.3,62.4l-2.1.9a212.2,212.2,0,0,1,21.5-8.2,171,171,0,0,0-25.2,8c-8,3.5-15.3,7.9-19.9,13-1.2-.5-5.5,1.1-9.4,3.3s-7.5,5-7.5,5.3a104.9,104.9,0,0,0-7.4,8.5c1.7-2.1,3.4-4,5.1-5.9-1.7,1.9-3.4,3.8-5.1,5.9a48.2,48.2,0,0,0-5,7.9,16,16,0,0,0-1,2.3,5.4,5.4,0,0,0-.5,1.1l-.5,1.2c-.2.8-.5,1.6-.7,2.4l-.4,1.5c-.1.6-.1,1.2-.2,1.8a19.8,19.8,0,0,0,.3,3.5,15.5,15.5,0,0,0,.4,1.5c.2.5.3,1,.5,1.4a26,26,0,0,0,2.5,4.7,64.1,64.1,0,0,0,5.9,7.6,158.3,158.3,0,0,0,13.1,12.8c4.5,4.1,9.3,8,14.1,11.8s15.6,11.8,26.1,18.9S84.1,187.5,90,191.3l5.1,3.2-5.6-3.7,21.3,10.4a23.5,23.5,0,0,0-3.6-3.1l3.2,2c3.5.9,10.5,4.6,14,6-.9,0,1.7,1.5,4,2.7l-.8-.7,7,3.4,3.6,1.6a7.1,7.1,0,0,1,1.5.7l.5.2.6.5a22.3,22.3,0,0,1,4.4,4.3,25.8,25.8,0,0,1,2.7,5.2,7.9,7.9,0,0,1,.4,2.2,25.8,25.8,0,0,1,.8,6.8c-.3-.3-.7,1.1-1,2.1s-.6,1.7-.4.1l-.3,1.9c-.1.6-.4,1.2-.6,1.9a29.2,29.2,0,0,1-1.7,3.6,17.7,17.7,0,0,1-1.2,1.7c-.4.5-.7,1.1-1.1,1.7a39.2,39.2,0,0,0-2.5,3.2c-3.5,3.6-7.8,6.5-12.2,9.4-2.3,1.3-4.5,2.7-7,3.9l-3.6,1.8-3.7,1.7a271.9,271.9,0,0,1-30.9,11.5h.5l-10.8,3.5A87.7,87.7,0,0,1,60.4,284l-10.7,3.1c-3.5.9-6.4,1.8-7.6,2.7-7.7,1.4-10.7,2.3-18.3,3.7,2.1.4-7.3,1.7-3.5,1.7s5.4-.5,9.8-.4l-.2-.2c5-.4,10.1-1,15.1-1.6s10-1.3,15.1-2.1c2.5-.3,5-.8,7.5-1.3l7.6-1.4,7.5-1.7,3.8-.8,3.7-1,5.1-1.6,5-1.7,5.2-1.7,5.2-1.9c3.4-1.2,6.8-2.7,10.3-4.2,1.7-.7,3.3-1.6,5-2.4l2.5-1.3,2.4-1.4c6.9-4,13.9-9.1,19.4-15.8a39.7,39.7,0,0,0,6.4-11.3,29.3,29.3,0,0,0,1.5-12.3,55.1,55.1,0,0,0-1.5-9.6,31.4,31.4,0,0,0-6.3-9.5l-1.1-1.1-1.1-1.1c-.8-.7-1.8-1.3-2.7-2l-1.7-.9-.4-.2-.3-.2-.6-.2-2.4-1.1c-6.2-2.8-12.5-6-18.5-8.9l.6.3c-6.4-3.3-10.7-6.4-16.8-9.7-.1.1-1-.4-1.5-.6s-9.4-5.3-18.5-10.4-18.3-10.3-19.2-11.2l-1.9-1.1c-12-8.5-23.4-18.6-33-26.4l-6.8-4.3c-1.3-1.8-2.1-1.5-3.9-3.4a39,39,0,0,0-4.2-5.9c-.8-1-1.2-.9-.3.6a30.3,30.3,0,0,1-4.5-6l-.8-1.4a9.3,9.3,0,0,1-.4-1.3,1.4,1.4,0,0,1-.2-.6c0-.1-.1-.2-.1-.4a2.5,2.5,0,0,1,.1-.8v-.4l.2-.7a3.3,3.3,0,0,1,.4-1.3,13.3,13.3,0,0,1,1-2.8,7,7,0,0,1,1.1-1.8,3.5,3.5,0,0,1,1.2-1,14.2,14.2,0,0,1,2.5-3.1l1-1a13.8,13.8,0,0,0,2-1.8,8.4,8.4,0,0,0,1.9-1.6c.9-.8,2-2,3.1-3.1a47.9,47.9,0,0,1,5.5-4.7l-.6.6c4.9-3.3,9-4.4,14.1-7.1A353.1,353.1,0,0,1,89.5,62.6c-.1-.6-3.2,1.3-3.6.6,8.6-3,17.5-5.1,26.3-7.6a37.6,37.6,0,0,1,4.5-.6c2.8-.6,1.5-.8,3.6-1.3l.5.5c2.9-1.3,4.5-.7,7.3-1.7a4.9,4.9,0,0,1,2.2-.8c.2.5,3.1-.9,3.1-.3h0l1.8-.4,12.7-5.4h.6c1.7-.4,2.3-1,1.3-.8l2-.5h-.2l2-.5c.4,0,.9.2.4.6a14.2,14.2,0,0,1,3.5-1.1l-10.8,1.1c1.3-.6,3.8-.8,5.3-1.3a82.6,82.6,0,0,0,8.5-.9c.6-.2.9-1,2.3-1s1.6-.4,2.9-.3a29.2,29.2,0,0,1-4,1c.3.5,3.4-.4,4.5-.5s3.1-.7,4.8-1.2c-.6.7,1.4.1,2.4.1s1.8-.5,1.3-.6-4.5.6-3.1-.3,2.7-.4,3.9-.6-.9-.1-.2-.5,2.7-.9,3.5-.7l-1.2.2c1.7-.3-8.8,3.9-6.7,3.3-.6-.2,9.4-3.8,8.2-3.6s.6-.7-.4-.6l-1.1.6c-1.5.2-2.2-.2-1.8-.5,2.5-.5-6.6,3.5-4.5,2.8h-.9a12.2,12.2,0,0,1,4.2-.9c-.1-.3,1.1-.7,2.1-1h.4c1-.4,2.4-.6,1.7-.8-6.1,1.2,3.4-3.9-2.6-2.9,2.7.2-.7.9-3.2,1.5a7.3,7.3,0,0,0-3.5,0c-1.6.4-.9.4-1.1.6s-2.7.4-2.6,0-2,.1-3.5.6.1.2-.8.6l-6.4,1.3c-.7-.2-2.7-.3-1.5-1.1,3.1-.7-.9,1,2.2.2-1.5-.4,2.7-.9,3.2-1.6a16.5,16.5,0,0,0-4.8.9h.3a23.6,23.6,0,0,1-6.1,1.4c.3-.4-.4-.4.6-.8l-2,.5c-.3.2-.5.3.1.2a5.5,5.5,0,0,1-2.7.6c-.3-.2-10.7,4-10.4,3.7-1.5.4-1.9.1-3.3.8l2.1-.7,4.6-1.5c3.2-1.1,6.3-2.1,5.3-1.9s-4.8,1.5-8.9,2.9-8,2.8-8.6,2.7-2.4.7-2,.9c-1.9.4.4-.7-1-.6s.1.1-.3.2h-1.3c-2.8,1.2-7.1,1.9-9.9,3.3a15.2,15.2,0,0,1,3.4-2.2h.4c.2-.2,1.8-.8,1.7-1a17.3,17.3,0,0,0-5.3,1.7h-1.1c-.6,0-.6-.1-.4-.2a.1.1,0,0,1,.1-.1c-1.4-.5-7,2.6-10.4,3.3-1,.4-.1.2-1.2.7-3.5.8-6,1.3-9.5,2.3-1.1.8-1.1.9.4.8l-2.7.8c2.1-1.7-5.3.9-2.9-.9a12.9,12.9,0,0,0-3.9,1.2c-.1.3-.2.8-2.1,1.5l-4.3,1c-.6-.1.2-.5,0-.7-3.2,1.6-3.2.5-6.3,1.8s-5.7,2.5-5.6,3C58.4,63.3,58.2,62.9,58.3,62.4Z"/></g></g></svg>