<svg width="245" height="245" viewBox="0 0 245 245" fill="none" xmlns="http://www.w3.org/2000/svg">
<path fill-rule="evenodd" clip-rule="evenodd" d="M4 126.486H11.4651C11.4651 127.708 12.3704 129.142 14.6101 129.142C16.2634 129.142 17.6489 128.452 17.6489 127.283C17.6489 126.486 17.0645 126.114 15.1966 125.689L11.9454 124.839C4.6375 122.871 4.425 118.728 4.425 116.654C4.425 112.988 8.58363 109.267 14.608 109.267C19.3021 109.267 25.0056 111.445 24.8994 117.665H17.4364C17.4364 116.071 16.3165 115.326 14.7716 115.326C13.4371 115.326 12.3173 115.857 12.3173 116.919C12.3173 117.876 13.1715 118.407 14.4508 118.726L18.7709 119.896C25.0078 121.596 25.5411 125.53 25.5411 127.23C25.5411 132.704 19.8355 135.15 14.8248 135.15C9.2785 135.15 4 132.119 4 126.486ZM28.8625 102.055C28.8625 99.2988 31.1023 97.2185 33.7691 97.2185C36.4339 97.2185 38.5674 99.301 38.5674 102.055C38.5674 104.698 36.4339 106.891 33.7691 106.891C31.1023 106.891 28.8625 104.698 28.8625 102.055ZM29.823 134.51H37.7131V109.622H29.823V134.51ZM115.367 121.805C115.367 129.829 109.502 134.718 103.263 134.718C100.705 134.718 97.398 133.762 95.5854 131.476V146.956H87.6931V109.62H95.5854V112.187C97.398 109.849 100.705 108.891 103.263 108.891C109.502 108.891 115.367 113.834 115.367 121.805ZM107.237 121.805C107.237 118.668 104.632 116.224 101.61 116.224C98.6411 116.224 95.9849 118.615 95.9849 121.805C95.9849 125.047 98.6943 127.438 101.61 127.438C103.103 127.436 104.533 126.841 105.588 125.785C106.643 124.729 107.236 123.297 107.237 121.805ZM119.436 134.51H127.329V97.176H119.436V134.51ZM150.034 109.622L145.03 122.568L139.796 109.62H131.054L140.924 131.601L134.709 146.956H143.134L158.515 109.62H150.036M200.325 122.024C200.325 130.048 194.46 134.937 188.221 134.937C185.66 134.937 182.356 133.981 180.543 131.694V134.51H172.651V97.1738L180.543 97.176V112.351C182.356 110.068 185.66 109.112 188.221 109.112C194.46 109.112 200.325 114 200.325 122.026M192.192 122.026C192.192 118.874 189.589 116.418 186.567 116.418C183.652 116.418 180.942 118.821 180.942 122.026C180.942 125.228 183.599 127.631 186.567 127.631C189.589 127.631 192.192 125.175 192.192 122.026ZM230.406 124.197H212.222C212.968 126.535 215.049 127.916 218.034 127.916C220.38 127.916 222.726 127.013 224.326 125.526L228.379 130.626C225.927 133.284 221.66 134.771 217.448 134.771C209.609 134.771 204.011 129.51 204.011 121.964C204.011 113.887 210.301 108.891 217.448 108.891C224.539 108.891 230.565 113.834 230.565 121.38C230.565 122.07 230.512 122.973 230.406 124.197ZM222.673 119.573C222.62 117.13 220.433 115.536 217.607 115.536C215.208 115.536 212.968 116.598 212.167 119.573H222.673ZM232.229 129.946C232.229 127.198 234.416 125.164 237.028 125.164C239.694 125.164 241.934 127.198 241.934 129.946C241.934 132.804 239.694 134.837 237.028 134.837C234.414 134.837 232.229 132.804 232.229 129.946ZM73.3324 109.078C70.7186 109.078 66.8788 110.408 65.1724 113.755C63.7338 110.78 60.9606 109.08 57.2823 109.08C57.1059 109.08 56.9253 109.089 56.7404 109.106C56.6724 109.11 56.6044 109.121 56.5364 109.127C56.4004 109.144 56.2601 109.163 56.122 109.189C54.2393 109.49 52.008 110.517 50.5673 112.376L50.563 109.62H42.675V134.51H50.5651V121.781C50.5651 117.635 52.7518 116.785 54.8853 116.785C56.8573 116.785 58.7761 117.954 58.7761 121.779V134.51H66.6684V121.994C66.7215 118.06 68.5341 116.785 70.9354 116.785C72.9605 116.785 74.8794 117.954 74.8794 121.779V134.51H82.7716V121.144C82.7716 113.543 79.5714 109.078 73.3324 109.078Z" fill="white"/>
</svg>
