<svg width="245" height="245" viewBox="0 0 245 245" fill="none" xmlns="http://www.w3.org/2000/svg">
<path d="M130.272 190.391C129.687 192.127 127.82 196.382 123.301 196.382C118.162 196.382 116.379 190.781 116.293 190.545L116.141 190.015C116.141 190.015 120.567 190.385 123.005 190.385C125.437 190.385 129.604 190.143 130.279 190.015L130.272 190.391Z" fill="#232323"/>
<path d="M143.759 187.631L144.813 187.765C143.555 191.076 141.296 194.787 136.867 194.787C132.548 194.787 130.418 192.269 129.526 190.586L128.771 190.122C128.771 190.122 136.212 189.879 143.759 187.631Z" fill="#232323"/>
<path d="M103 187.631L101.945 187.765C103.197 191.076 105.467 194.787 109.91 194.787C114.204 194.787 116.519 192.136 117.473 190.586L117.985 190.122C117.985 190.122 110.557 189.879 103 187.631Z" fill="#232323"/>
<path d="M126.907 190.745C126.206 191.756 125.735 191.704 124.907 191.704C124.477 191.704 123.86 192.052 123.866 192.694C123.885 193.199 124.294 193.609 124.966 193.609C126.496 193.609 127.665 191.474 127.976 190.565C127.976 190.565 128.872 190.528 129.133 190.501C129.133 190.501 127.53 195.329 123.356 195.329C119.177 195.329 117.473 190.559 117.473 190.559C117.473 190.559 120.996 190.774 123.005 190.774C125.02 190.774 126.302 190.756 126.907 190.745Z" fill="white"/>
<path d="M103.568 188.617C106.284 189.342 108.225 189.955 112.799 190.514C112.799 190.514 112.653 190.98 111.658 190.942C111.278 190.918 111.226 190.822 111.095 190.8C110.801 190.746 110.375 191.046 110.418 191.545C110.464 191.897 110.756 192.334 111.771 192.334C112.787 192.334 113.969 191.501 114.567 190.723C114.567 190.723 115.174 190.866 115.805 190.897C115.805 190.897 113.85 193.647 110.009 193.647C105.793 193.647 104.222 189.835 103.568 188.617Z" fill="white"/>
<path d="M122.955 165.985C137.518 165.985 153.652 156.982 164.98 144.004C166.214 142.6 168.28 139.934 173.199 139.934C178.127 139.934 184.677 144.458 183.91 152.69C183.339 158.687 174.83 172.216 160.26 180.537C145.694 188.892 132.276 190.679 122.955 190.679C113.625 190.679 100.219 188.892 85.6452 180.537C71.0775 172.216 62.5704 158.687 62.003 152.69C61.2362 144.458 67.7882 139.934 72.7057 139.934C77.6377 139.934 79.712 142.6 80.9414 144.004C92.2526 156.982 108.395 165.985 122.955 165.985Z" fill="white" stroke="#232323" stroke-width="2.09797" stroke-miterlimit="3.863"/>
<path d="M122.832 167.981C108.178 167.981 91.5027 159.273 79.2211 145.185C77.9711 143.754 76.3799 141.913 72.593 141.913C70.381 141.913 67.8728 143.106 66.2097 144.951C64.9577 146.321 63.5535 148.738 63.8907 152.442C64.3779 157.502 72.3402 170.598 86.5316 178.732C97.9703 185.285 110.184 188.596 122.832 188.596C135.491 188.596 147.705 185.285 159.144 178.732C173.331 170.598 181.306 157.502 181.775 152.442C182.126 148.738 180.712 146.321 179.476 144.951C177.805 143.106 175.29 141.913 173.089 141.913C169.285 141.913 167.696 143.754 166.458 145.185C154.183 159.273 137.488 167.981 122.832 167.981Z" fill="#232323"/>
<path d="M185.868 94.5134L185.92 91.0928C186.966 91.8983 188.933 91.9107 190.085 90.6746C190.609 90.1114 190.907 89.2397 190.864 88.3431C190.815 87.3306 190.358 86.2788 189.608 85.5375C185.356 81.353 181.58 77.1746 181.58 77.1746C181.189 76.5534 180.578 76.1041 180.225 75.9509C179.705 75.7004 177.855 74.8494 176.444 77.0069C175.172 78.9615 175.361 81.7174 175.605 82.7237L179.592 88.1961C180.957 89.9395 184.803 93.6479 185.868 94.5134Z" fill="#232323"/>
<path d="M100.666 59.0429C105.684 57.345 110.273 55.9412 116.456 55.3904L117.394 54.8604C113.942 52.1169 110.513 50.2451 107.098 50.2451C104.954 50.2451 100.592 51.7131 99.6191 59.4653L100.666 59.0429Z" fill="#232323"/>
<path d="M145.254 59.0429C140.234 57.345 135.649 55.9412 129.471 55.3904L128.521 54.8604C131.988 52.1169 135.409 50.2451 138.827 50.2451C140.974 50.2451 145.318 51.7131 146.311 59.4653L145.254 59.0429Z" fill="#232323"/>
<path d="M117.283 55.1334C119.808 50.2448 122.116 48.4766 123.408 48.4766C125.003 48.4766 126.882 51.0316 128.358 54.3383L128.668 55.0878L127.371 54.9864C126.52 54.8249 124.096 54.7938 123.171 54.7938C122.221 54.7938 120.174 54.7938 118.94 54.9098L117.283 55.1334Z" fill="#232323"/>
<path d="M97.3765 165.302L93.7212 171.956C92.6172 173.956 91.4803 175.226 89.6157 174.149C87.7798 173.103 88.2054 171.588 89.332 169.521L92.9975 162.858L90.0412 161.206L86.168 168.248C84.0361 172.124 86.719 174.528 88.8201 175.694C91.063 176.944 94.3277 177.874 96.4411 174.027L100.341 166.954L97.3765 165.302ZM144.381 179.012L143.15 175.194L146.817 174.001L146.31 172.413L142.638 173.612L141.593 170.349L145.347 169.109L144.842 167.537L137.969 169.788L141.789 181.615L149.365 179.14L148.865 177.563L144.381 179.012ZM152.232 163.706L148.049 166.135L154.243 176.954L158.41 174.527C162.717 172.026 163.126 168.237 161.43 165.197C159.389 161.59 156.019 161.508 152.232 163.706ZM158.554 166.999C160.123 169.767 159.804 171.786 157.388 173.179L156.237 173.854L151.69 165.941L152.927 165.218C155.828 163.539 157.475 165.034 158.554 166.999ZM125.087 172.068L125.311 173.689L128.769 173.196L130.264 183.889L133.479 183.439L131.989 172.753L135.395 172.277L135.161 170.633L125.087 172.068ZM122.16 172.169L118.922 171.991L118.274 184.414L121.514 184.588L122.16 172.169ZM112.329 170.65L110.073 179.14L105.853 168.901L103.227 168.191L100.028 180.21L102.888 180.974L105.162 172.415L109.446 182.74L112.014 183.438L115.201 171.414L112.329 170.65Z" fill="white"/>
<path d="M95.291 92.213V150.482L122.954 168.384L150.616 150.482L150.657 92.302C149.771 91.5152 147.931 89.7905 146.49 88.8877H99.2917C98.0972 89.7325 95.7042 91.7658 95.291 92.213Z" fill="white"/>
<path d="M134.011 134.02V131.854C134.011 131.854 133.44 130.964 132.023 130.964C130.611 130.964 129.766 131.393 129.766 131.751C129.766 132.337 131.03 134.02 134.011 134.02ZM122.856 114.849L124.994 111.089L126.67 114.849H129.445C127.776 116.427 127.093 118.814 127.093 120.406V122.141C127.093 122.878 126.725 124.098 126.725 124.098C126.725 124.098 129.135 125.947 129.505 126.268C129.659 126.39 129.828 126.465 129.717 126.786C129.525 127.326 127.889 128.069 127.722 128.21C127.352 128.541 127.256 128.74 127.352 129.067C127.47 129.382 127.776 129.44 128.403 129.216C129.036 129.011 130.348 128.318 131.448 127.844C132.543 127.363 134.011 127.485 134.011 127.485V125.363H129.867V118.619L129.135 117.431L130.962 114.151L132.8 117.452L132.077 118.619V122.141H134.188V118.619L133.46 117.452L135.294 114.176L137.12 117.452L136.398 118.619V122.141H138.524V118.619L137.771 117.452L139.611 114.176L141.445 117.452L140.713 118.619L140.748 125.353H136.571V128.467C137.519 129.363 138.413 131.393 138.413 132.587C138.413 133.811 137.621 134.329 137.621 134.329C137.887 135.289 137.835 135.689 137.722 136.559C137.621 137.443 136.526 138.822 136.526 138.822V154.916C136.526 156.009 134.011 155.902 134.011 154.968V139.184C132.589 137.617 128.715 136.385 128.715 136.385C127.295 137.815 126.421 140.3 126.421 140.3C127.038 140.735 127.998 140.3 128.36 139.878C128.715 139.455 129.445 139.346 129.867 139.613C130.28 139.878 130.383 139.979 130.241 140.6C130.078 141.255 129.819 142.3 129.819 143.031C129.819 143.781 130.656 143.613 131.281 143.669C132.543 143.781 132.751 145.201 132.646 145.994C132.543 146.791 132.173 148.483 132.173 149.535C132.173 150.576 132.229 151.628 132.332 152.224C132.441 152.8 132.646 153.436 132.589 154.179C132.525 155.179 131.914 155.338 131.281 154.697C130.656 154.065 121.904 144.669 121.904 144.669C121.323 146.58 123.744 149.839 124.526 150.845C125.313 151.852 125.262 152.591 124.573 153.28C123.899 153.962 122.585 154.326 122.328 154.968C122.061 155.589 122.955 157.502 124.795 159.875C126.629 162.244 122.69 163.834 120.34 164.308C117.974 164.776 117.974 163.14 118.138 162.244C118.294 161.355 118.294 160.815 118.237 160.034C118.185 159.239 117.462 158.138 116.456 156.819C115.464 155.494 115.464 154.289 115.877 151.218C116.294 148.156 116.195 146.201 116.195 146.201C116.195 146.201 115.147 146.245 113.626 146.201C112.112 146.143 110.856 145.259 110.749 141.561C110.645 137.873 110.558 129.067 110.31 128.144C110.067 127.231 109.086 127.063 108.673 126.941C108.243 126.833 108.223 126.21 108.638 125.986C109.732 125.45 111.043 124.098 110.558 123.257C110.067 122.415 108.141 122.589 106.852 123.224C105.558 123.854 104.195 125.237 103.844 125.614C103.505 125.986 103.211 125.986 103.248 125.585C103.291 125.154 103.009 123.139 102.843 122.442C102.658 121.738 102.033 120.406 101.821 120.054C101.613 119.7 101.821 119.564 102.175 119.7C102.514 119.841 103.291 120.166 104.021 120.361C104.757 120.584 105.458 120.22 105.793 119.528C106.142 118.814 106.825 117.309 107.174 116.636C107.518 115.971 108.073 116.12 108.529 116.222C108.981 116.329 109.401 116.611 109.818 116.779C110.233 116.953 110.581 116.919 110.729 116.706C110.871 116.503 111.043 116.427 111.294 115.901C111.539 115.375 111.843 115.625 111.882 115.835C113.132 123.404 116.389 123.752 116.389 123.752C115.899 125.013 114.752 127.024 114.481 127.531C114.187 128.005 114.078 128.68 114.006 129.204C113.95 129.726 114.187 134.726 114.534 136.559C114.888 138.393 116 137.679 116.362 137.118C116.697 136.559 117.789 134.231 117.789 134.231C117.789 134.231 118.058 133.598 118.058 133.072C118.058 132.542 117.153 131.393 116.946 131.034C116.73 130.67 115.967 129.972 115.967 128.21C115.967 126.454 117.538 125.237 118.103 124.775C118.662 124.313 118.662 123.674 118.586 123.288C118.342 121.93 116.909 119.073 116.22 117.978C115.515 116.886 114.154 114.814 114.154 114.814H116.983L118.804 111.004L120.786 114.83L122.856 114.849ZM122.398 126.39C123.321 124.854 123.707 123.257 123.707 123.257H121.039C121.039 123.257 121.467 124.891 122.398 126.39ZM119.618 118.644C119.725 119.431 120.307 119.731 120.749 119.501C121.189 119.257 121.113 118.619 120.786 118.11C120.474 117.611 119.824 117.054 119.625 117.137C119.421 117.222 119.548 118.18 119.618 118.644ZM124.908 117.137C124.717 117.054 124.032 117.611 123.707 118.11C123.395 118.619 123.315 119.257 123.759 119.501C124.193 119.731 124.752 119.425 124.892 118.644C124.968 118.18 125.118 117.222 124.908 117.137Z" fill="#232323"/>
<path d="M97.4609 106.739V110.247H148.499V106.739H144.735V107.306H101.225V106.739H97.4609Z" fill="#232323"/>
<path d="M97.4629 90.9766H148.491V104.953H97.4629V90.9766Z" fill="#232323"/>
<path d="M106.231 100.896L110.139 101.863L112.249 95.9428V94.4437L106.231 100.896ZM138.44 104.385V102.562H134.752V101.03H137.766V94.2715H134.988L134.039 92.4121L133.111 94.2715H130.326V101.03H133.352V102.562H126.097V101.03H129.115V94.2715H126.333L125.394 92.4121L124.444 94.2715H121.671V101.03H124.703V102.562H117.298V101.03H120.322V94.2715H117.536L116.605 92.4121L115.649 94.2715H112.874V101.03H115.908V102.562L110.049 102.581L104.221 101.21L105.388 104.385L138.44 104.385Z" fill="white"/>
<path d="M100.955 58.4919C105.881 56.8313 109.604 55.5372 115.671 54.9947C112.875 53.0401 110.393 51.3857 107.54 51.3857C106.039 51.3857 104.756 51.9634 104.46 53.0194C104.185 53.9801 104.937 54.3984 105.205 54.3342C105.484 54.2617 105.684 54.1789 105.616 53.918C105.544 53.6426 105.755 52.9428 106.709 52.9428C107.68 52.9428 108.046 53.8476 108.046 54.4688C108.046 55.09 107.067 56.1273 105.268 56.1273C103.504 56.1273 102.6 54.943 102.668 53.8476C101.816 55.1024 101.321 56.3716 100.955 58.4919Z" fill="white"/>
<path d="M66.6302 88.1948L70.6308 82.7223C70.8611 81.7161 71.044 78.9622 69.7653 77.0076C68.3673 74.8481 66.5253 75.7011 65.9846 75.9517C65.6434 76.1049 65.0225 76.5521 64.6401 77.1754C64.6401 77.1754 60.7936 81.4407 56.5606 85.6377C55.9624 86.2361 55.3045 87.3293 55.249 88.3418C55.1976 89.2404 55.5574 90.1432 56.0755 90.7064C57.2329 91.9487 59.2559 91.899 60.2899 91.0915L60.3619 94.512C61.4268 93.6486 65.2671 89.9382 66.6302 88.1948Z" fill="#232323"/>
<path d="M122.955 80.2317C145.734 80.2317 158.694 101.765 161.523 105.546C166.547 112.3 172.698 117.783 179.826 115.971C190.296 113.273 189.751 97.6533 189.751 97.6533C187.225 95.8208 182.92 93.5142 175.071 82.3084C167.384 71.3242 149.989 55.0518 122.955 55.0518C95.9146 55.0518 78.5242 71.3242 70.8559 82.3084C62.9985 93.5142 58.6792 95.8208 56.1772 97.6533C56.1772 97.6533 55.6119 113.273 66.0905 115.971C73.214 117.783 79.361 112.3 84.3936 105.546C87.2122 101.765 100.18 80.2317 122.955 80.2317Z" fill="white" stroke="#232323" stroke-width="2.09797" stroke-miterlimit="3.863"/>
<path d="M122.954 78.1865C144.915 78.1865 157.976 96.9477 162.699 103.717C168.95 112.121 174.241 115.293 179.326 113.99C186.673 112.106 187.586 101.921 187.685 98.8381V98.716L187.602 98.6518C185.012 96.8442 180.678 93.8481 173.417 83.4809C169.085 77.29 152.641 57.0752 122.954 57.0752C93.2784 57.0752 76.8194 77.29 72.4898 83.4809C65.2882 93.7819 60.7592 96.9229 58.3333 98.6L58.2305 98.6849L58.2428 98.7926C58.3415 101.882 59.2564 112.121 66.5854 113.99C71.6757 115.293 76.9777 112.121 83.212 103.717C87.9312 96.9477 101.004 78.1865 122.954 78.1865Z" fill="#232323"/>
<path d="M111.024 62.5138C106.995 63.3731 104.34 66.3651 105.21 70.4213C105.716 72.6119 107.657 76.6433 113.795 75.3285C115.5 75.0013 116.421 74.318 117.313 73.4587L116.194 72.1647C115.773 72.6367 115.144 73.3242 113.732 73.6202C110.761 74.2518 108.995 71.8313 108.555 69.7421C107.901 66.6466 109.692 64.514 111.715 64.0729C113.16 63.752 114.036 64.1475 114.591 64.3649H114.609L114.986 62.7789C114.011 62.3855 112.841 62.1246 111.024 62.5138ZM144.723 80.3586C147.028 81.7563 149.542 81.5181 150.718 79.5573C151.573 78.1866 151.582 77.0478 150.554 75.0083C150.289 74.4307 149.941 74.0166 149.709 73.4906C149.254 72.6376 148.835 71.9398 149.226 71.2793C149.657 70.5629 150.657 70.5049 151.561 71.0619C152.509 71.6396 152.901 72.5941 153.101 73.2463L154.587 72.6003C154.131 71.3704 153.454 70.2668 151.909 69.3454C149.267 67.7428 147.118 68.1652 146.224 69.6663C145.318 71.1758 145.574 72.4326 146.257 73.7205C146.257 73.7205 146.68 74.4514 146.925 74.9504C147.523 75.9567 148.22 77.2259 147.731 78.0189C147.139 79.019 146.119 79.2364 145.126 78.6152C143.854 77.8077 143.556 76.8677 143.29 75.9504L141.656 76.6544C142.016 77.9175 142.861 79.2261 144.723 80.3586ZM127.129 61.861L127.037 66.9297L122.198 66.8593L122.269 61.772L119.025 61.7119L118.81 74.1497L122.06 74.2201L122.163 68.5178L127.01 68.6068L126.918 74.2988L130.164 74.3485L130.376 61.9107L127.129 61.861ZM173.606 101.356C173.628 101.387 175.51 102.323 177.6 100.433C179.348 98.8507 178.762 96.6828 176.936 94.6475L173.571 90.8812L164.396 99.2089L166.565 101.631L170.218 98.331L171.272 99.5298L168.96 104.785L171.729 107.013L173.606 101.356ZM175.244 95.2293C176.104 96.19 176.118 97.3309 175.119 98.2171C174.147 99.1199 172.905 98.9128 171.961 97.8693L171.412 97.2502L174.519 94.4239L175.244 95.2293ZM160.925 92.0518L163.999 89.4823L166.464 92.437L167.738 91.3665L165.259 88.3994L167.86 86.1943L170.399 89.24L171.659 88.182L167.021 82.6143L157.566 90.6107L162.673 96.7499L163.948 95.6836L160.925 92.0518ZM157.381 73.3621L156.279 74.5795L158.87 76.9379L151.691 84.9592L154.112 87.1519L161.281 79.1285L163.839 81.4475L164.936 80.2301L157.381 73.3621ZM136.241 74.1505L137.548 70.3573L141.185 71.6203L141.726 70.0426L138.083 68.7816L139.191 65.5329L142.939 66.827L143.465 65.2575L136.638 62.8909L132.625 74.6702L140.149 77.2646L140.684 75.6951L136.241 74.1505ZM97.141 68.0567L101.779 75.5024L91.4525 71.6201L89.154 73.0736L95.7019 83.6396L98.1956 82.0577L93.5268 74.5354L103.96 78.4363L106.213 77.0139L99.6532 66.4541L97.141 68.0567ZM82.6966 79.3078L80.5853 81.5896L86.504 93.4435L87.9493 91.8864L86.3416 88.733L89.1992 85.6375L92.4392 87.0206L94.8199 84.4531L82.6966 79.3078ZM87.6882 84.9521L85.544 87.2711L83.3401 83.0058L87.6882 84.9521ZM75.7212 86.8299L73.4227 89.5858L77.7174 98.5306L68.5072 95.4931L66.5254 97.8577L75.9884 105.86L77.4254 104.142L70.7378 98.4726L79.7013 101.413L80.6449 100.286L76.3708 91.6605L83.0872 97.3317L85.1842 94.8326L75.7212 86.8299Z" fill="white"/>
<path d="M61.2642 93.1685L61.2539 90.4251C65.9022 86.1266 68.0937 81.8074 68.0937 81.8074C68.0937 81.8074 66.3853 81.1593 65.6205 80.18C65.2422 79.6354 65.0963 78.8921 65.16 78.3931C65.308 77.4572 66.0317 76.9831 66.2784 76.8754C66.8129 76.6435 67.8059 76.1176 68.9119 77.6498C70.0899 79.3083 69.7795 82.4555 69.6171 83.1802C69.6171 83.1802 67.4502 86.9797 61.2642 93.1685Z" fill="white"/>
<path d="M66.4082 82.3077C65.7812 83.4092 64.2002 86.0678 60.2016 89.8424C59.5376 90.4697 57.8806 91.0019 56.9411 89.9397C56.5895 89.5277 56.3572 88.95 56.3921 88.2791C56.4374 87.5027 56.8999 86.5999 57.3646 86.2023C58.1704 85.517 61.6058 82.024 64.0481 79.2764C64.1159 79.7774 64.5435 80.616 64.5435 80.616C64.8807 81.084 65.2919 81.7569 66.4082 82.3077Z" fill="white"/>
<path d="M144.974 58.4919C140.048 56.8313 136.325 55.5372 130.258 54.9947C133.054 53.0401 135.535 51.3857 138.389 51.3857C139.889 51.3857 141.172 51.9634 141.468 53.0194C141.744 53.9801 140.991 54.3984 140.724 54.3342C140.445 54.2617 140.245 54.1789 140.313 53.918C140.385 53.6426 140.173 52.9428 139.219 52.9428C138.249 52.9428 137.883 53.8476 137.883 54.4688C137.883 55.09 138.861 56.1273 140.66 56.1273C142.424 56.1273 143.329 54.943 143.261 53.8476C144.112 55.1024 144.608 56.3716 144.974 58.4919Z" fill="white"/>
<path d="M123.185 51.9798C123.031 52.9281 121.947 53.8371 120.851 53.8371C119.754 53.8371 119.425 53.659 119.425 53.659C119.258 53.9199 119.112 54.1208 118.939 54.4024C119.934 54.363 122.243 54.2988 123.168 54.2988C124.091 54.2988 126.651 54.4334 127.202 54.4728C126.312 52.3712 124.595 49.462 123.409 49.462C123.368 49.462 123.316 49.458 123.253 49.458C122.975 49.458 122.014 50.2975 121.499 51.0347C120.822 52.0031 123.185 51.9798 123.185 51.9798Z" fill="white"/>
<path d="M184.665 93.1685L184.675 90.4251C180.027 86.1266 177.835 81.8074 177.835 81.8074C177.835 81.8074 179.544 81.1593 180.309 80.18C180.687 79.6354 180.833 78.8921 180.769 78.3931C180.621 77.4572 179.898 76.9831 179.651 76.8754C179.116 76.6435 178.123 76.1176 177.017 77.6498C175.839 79.3083 176.15 82.4555 176.312 83.1802C176.312 83.1802 178.479 86.9797 184.665 93.1685Z" fill="white"/>
<path d="M179.52 82.3077C180.147 83.4092 181.728 86.0678 185.726 89.8424C186.39 90.4697 188.047 91.0019 188.987 89.9397C189.338 89.5277 189.571 88.95 189.536 88.2791C189.49 87.5027 189.028 86.5999 188.563 86.2023C187.757 85.517 184.322 82.024 181.88 79.2764C181.812 79.7774 181.384 80.616 181.384 80.616C181.047 81.084 180.636 81.7569 179.52 82.3077Z" fill="white"/>
<path d="M95.291 92.213V150.482L122.954 168.384L150.616 150.482L150.657 92.302C149.771 91.5152 147.931 89.7905 146.49 88.8877H99.2917C98.0972 89.7325 95.7042 91.7658 95.291 92.213Z" stroke="#232323" stroke-width="2.09797" stroke-miterlimit="3.863"/>
<path d="M143.236 188.617C140.521 189.342 138.58 189.955 134.006 190.514C134.006 190.514 134.152 190.98 135.147 190.942C135.527 190.918 135.578 190.822 135.71 190.8C136.004 190.746 136.429 191.046 136.386 191.545C136.341 191.897 136.049 192.334 135.034 192.334C134.018 192.334 132.836 191.501 132.238 190.723C132.238 190.723 131.631 190.866 131 190.897C131 190.897 132.955 193.647 136.795 193.647C141.012 193.647 142.583 189.835 143.236 188.617Z" fill="white"/>
<path d="M51.123 128.805C51.123 121.775 56.7869 116.059 63.7747 116.059C70.7645 116.059 76.4243 121.775 76.4243 128.805C76.4243 135.847 70.7645 141.551 63.7747 141.551C56.7869 141.551 51.123 135.847 51.123 128.805Z" fill="white" stroke="#232323" stroke-width="2.09797" stroke-miterlimit="3.863"/>
<path d="M66.4611 137.565C65.906 137.743 65.6655 137.352 65.4127 137.07C64.4279 135.929 64.175 132.892 64.175 132.49C64.175 132.086 64.3231 131.643 64.6047 131.633C66.9792 131.587 68.6753 130.894 70.2315 129.591C71.7858 128.312 72.4601 126.844 72.5978 126.583C72.7335 126.293 73.0563 126.345 73.1159 126.747C73.1817 127.082 73.3071 127.685 73.3071 128.337C73.3071 132.714 70.3775 136.29 66.4611 137.565ZM63.9551 137.961C63.8872 137.961 63.8112 137.969 63.7474 137.969C61.9979 137.969 60.0716 137.296 58.9306 136.642C57.7485 135.994 57.3044 132.937 57.3044 131.393C57.3044 126.364 59.352 123.37 59.6851 122.781C60.0099 122.185 60.7418 122.123 61.2784 122.268C61.8334 122.429 62.0308 122.527 62.6702 122.717C63.0032 122.827 63.6796 122.966 64.1874 123.057C64.6952 123.179 65.242 123.287 64.9131 124.241C64.5883 125.198 63.4822 127.496 63.3712 130.221C63.2643 132.687 63.5891 135.136 64.1421 136.642C64.506 137.615 64.506 137.979 63.9551 137.961ZM56.7267 126.479C56.2601 126.231 55.6988 125.018 55.5097 124.664C55.3822 124.409 55.3822 123.68 55.5652 123.37C56.3464 121.993 57.4545 120.717 58.8813 120.052C59.056 119.976 59.3006 119.961 59.3006 120.384C59.3006 120.609 59.4219 120.961 59.426 121.185C59.426 121.411 59.5206 121.872 59.2369 122.237C58.9388 122.603 57.6621 124.883 57.3353 126.161C57.2818 126.446 57.1955 126.747 56.7267 126.479ZM56.4636 134.55C55.1396 133.234 54.196 130.848 54.196 128.337C54.196 127.362 54.3399 126.428 54.5969 125.542C54.5969 125.542 54.8333 125.144 55.0389 125.481C55.1972 125.73 55.4151 125.98 55.5919 126.312C55.7893 126.643 56.8131 127.428 56.7267 128.068C56.369 130.418 56.6897 133.54 56.8007 134.066C56.8994 134.586 56.7576 134.807 56.4636 134.55ZM60.6431 119.233C61.6237 118.905 62.6702 118.721 63.7474 118.721C65.3859 118.721 66.9771 119.021 68.3052 119.874C68.6465 120.098 68.7431 120.359 68.7431 120.746C68.7431 122.007 66.7859 122.429 65.4908 122.429C64.1874 122.429 62.5838 121.91 61.449 121.547C60.3183 121.191 60.0716 120.533 60.0716 120.233C60.0716 119.945 60.2916 119.348 60.6431 119.233ZM69.4791 120.634C69.6539 120.777 70.1164 121.154 70.1164 121.154C71.0292 121.993 71.8536 122.949 72.3326 124.096C72.9309 125.541 71.0744 127.73 70.5296 128.235C68.0709 130.561 66.531 130.517 65.6594 130.643C64.7877 130.772 64.2223 130.221 64.2449 129.56C64.3004 127.627 65.6676 124.293 66.0602 123.666C66.3111 123.262 66.7469 123.011 66.7469 123.011C67.6597 122.757 68.5458 122.374 69.0042 121.848C69.4524 121.313 69.4791 120.634 69.4791 120.634ZM63.842 118.094C57.9643 118.094 53.2051 122.889 53.2051 128.805C53.2051 134.724 57.9643 139.518 63.842 139.518C69.7155 139.518 74.4851 134.724 74.4851 128.805C74.4851 122.889 69.7155 118.094 63.842 118.094Z" fill="#232323"/>
<path d="M169.75 128.78C169.75 121.751 175.414 116.055 182.402 116.055C189.394 116.055 195.053 121.751 195.053 128.78C195.053 135.822 189.394 141.529 182.402 141.529C175.414 141.529 169.75 135.822 169.75 128.78Z" fill="white" stroke="#232323" stroke-width="2.09797" stroke-miterlimit="3.863"/>
<path d="M189.81 134.507C189.533 134.782 189.376 134.542 189.494 134.026C189.59 133.515 189.913 130.382 189.553 128.032C189.465 127.394 190.495 126.612 190.684 126.276C190.873 125.947 191.089 125.69 191.241 125.45C191.453 125.102 191.677 125.491 191.677 125.491C191.948 126.388 192.08 127.326 192.08 128.297C192.08 130.817 191.124 133.194 189.81 134.507ZM188.953 126.127C188.624 124.854 187.339 122.564 187.049 122.199C186.757 121.847 186.85 121.379 186.854 121.154C186.854 120.93 186.981 120.572 186.981 120.34C186.981 119.936 187.224 119.944 187.397 120.021C188.832 120.686 189.934 121.942 190.723 123.332C190.898 123.649 190.902 124.373 190.772 124.62C190.587 124.976 190.03 126.189 189.553 126.446C189.076 126.709 189.006 126.402 188.953 126.127ZM187.356 136.606C186.213 137.25 184.286 137.929 182.528 137.929H182.325C181.784 137.944 181.772 137.565 182.142 136.596C182.679 135.103 183.014 132.643 182.903 130.183C182.792 127.446 181.7 125.173 181.361 124.21C181.032 123.255 181.581 123.139 182.095 123.032C182.605 122.93 183.279 122.781 183.614 122.673C184.243 122.481 184.447 122.383 185.002 122.224C185.542 122.083 186.27 122.154 186.601 122.735C186.926 123.332 188.978 126.344 188.978 131.361C188.978 132.898 188.529 135.95 187.356 136.606ZM179.825 137.525C175.898 136.244 172.975 132.67 172.975 128.297C172.975 127.653 173.1 127.057 173.152 126.709C173.228 126.307 173.528 126.241 173.678 126.537C173.816 126.806 174.498 128.272 176.044 129.556C177.611 130.848 179.29 131.554 181.679 131.604C181.969 131.618 182.105 132.047 182.105 132.459C182.105 132.867 181.86 135.898 180.88 137.031C180.619 137.32 180.368 137.718 179.825 137.525ZM173.958 124.063C174.424 122.916 175.253 121.942 176.166 121.123C176.166 121.123 176.618 120.737 176.793 120.603C176.793 120.603 176.83 121.288 177.284 121.802C177.736 122.319 178.614 122.725 179.527 122.967C179.527 122.967 179.957 123.23 180.214 123.634C180.619 124.243 181.975 127.572 182.035 129.521C182.051 130.183 181.492 130.734 180.619 130.608C179.743 130.49 178.207 130.517 175.75 128.204C175.208 127.697 173.351 125.512 173.958 124.063ZM177.971 119.839C179.317 118.982 180.888 118.681 182.528 118.681C183.614 118.681 184.646 118.868 185.635 119.195C185.999 119.309 186.213 119.899 186.213 120.195C186.213 120.487 185.972 121.154 184.833 121.512C183.698 121.864 182.101 122.39 180.8 122.39C179.49 122.39 177.539 121.961 177.539 120.706C177.539 120.327 177.634 120.052 177.971 119.839ZM182.428 118.066C176.556 118.066 171.795 122.864 171.795 128.765C171.795 134.699 176.556 139.478 182.428 139.478C188.309 139.478 193.071 134.699 193.071 128.765C193.071 122.864 188.309 118.066 182.428 118.066Z" fill="#232323"/>
</svg>
