<svg width="27" height="27" viewBox="0 0 27 27" fill="none" xmlns="http://www.w3.org/2000/svg">
<path d="M3.85714 0C1.72969 0 0 1.72969 0 3.85714V23.1429C0 25.2703 1.72969 27 3.85714 27H23.1429C25.2703 27 27 25.2703 27 23.1429V3.85714C27 1.72969 25.2703 0 23.1429 0H3.85714ZM21.7627 5.0625L15.5069 12.2103L22.8656 21.9375H17.104L12.596 16.0373L7.43103 21.9375H4.5683L11.258 14.2895L4.20067 5.0625H10.1069L14.1871 10.4565L18.9 5.0625H21.7627ZM19.4846 20.2259L9.24509 6.68371H7.53951L17.8935 20.2259H19.4786H19.4846Z" fill="white"/>
</svg>
